<?xml version="1.0" encoding="utf-8"?>
<!-- Generator: Adobe Illustrator 21.0.2, SVG Export Plug-In . SVG Version: 6.00 Build 0)  -->
<svg version="1.1" id="Logo" xmlns="http://www.w3.org/2000/svg" xmlns:xlink="http://www.w3.org/1999/xlink" x="0px" y="0px"
	 viewBox="0 0 383.1 150.5" style="enable-background:new 0 0 383.1 150.5;" xml:space="preserve">
<style type="text/css">
	.st0{stroke:#231F20;stroke-linecap:round;stroke-miterlimit:10;}
	.st1{fill:#231F20;}
</style>
<g id="Name">
	<g id="morgan">
		<path id="m" d="M126.6,71.5l1.1-58.3h7.9l10.3,47.3l10.4-47.3h7.9l1.1,58.3h-6.6l-0.6-42.4l-9.9,42.4h-4.6l-9.8-42.4l-0.6,42.4
			H126.6z"/>
		<path id="o" d="M185,72.1c-2.3,0-4.2-0.4-5.8-1.1s-2.8-1.7-3.7-3.1c-0.9-1.4-1.6-3-2-4.8c-0.4-1.8-0.6-3.9-0.6-6.4V44.6
			c0-2.4,0.2-4.6,0.6-6.4c0.4-1.8,1.1-3.4,2-4.8c0.9-1.4,2.2-2.4,3.7-3.1s3.5-1.1,5.8-1.1c4.4,0,7.5,1.3,9.4,3.9
			c1.9,2.6,2.8,6.4,2.8,11.4v12.1c0,5-0.9,8.8-2.8,11.4C192.5,70.7,189.4,72.1,185,72.1z M185,66.4c0.7,0,1.3-0.1,1.8-0.3
			s0.9-0.6,1.2-1.1c0.3-0.5,0.5-1,0.7-1.4c0.2-0.5,0.3-1.1,0.4-2c0.1-0.9,0.1-1.5,0.1-2.1c0-0.5,0-1.3,0-2.3v-13c0-0.9,0-1.6,0-2
			c0-0.4,0-1.1-0.1-1.8c0-0.8-0.1-1.4-0.2-1.8c-0.1-0.4-0.3-0.9-0.5-1.4c-0.2-0.5-0.5-0.9-0.8-1.2c-0.3-0.3-0.7-0.5-1.2-0.7
			c-0.5-0.2-1-0.3-1.6-0.3c-0.6,0-1.2,0.1-1.6,0.3c-0.5,0.2-0.9,0.4-1.2,0.7c-0.3,0.3-0.6,0.7-0.8,1.2c-0.2,0.5-0.4,1-0.5,1.4
			c-0.1,0.4-0.2,1-0.2,1.8c0,0.8-0.1,1.4-0.1,1.8c0,0.4,0,1.1,0,2v13c0,0.9,0,1.6,0,2c0,0.4,0,1.1,0.1,1.8c0,0.8,0.1,1.4,0.2,1.8
			c0.1,0.4,0.3,0.9,0.5,1.4c0.2,0.5,0.5,0.9,0.8,1.2c0.3,0.3,0.7,0.5,1.2,0.7C183.8,66.3,184.4,66.4,185,66.4z"/>
		<path id="r" d="M204.3,71.5V29.8h7.7v5.9c1.4-2.4,2.9-4.1,4.4-5c1.5-1,3.1-1.4,4.8-1.4c0.5,0,0.9,0,1.3,0.1v8.5
			c-1.4-0.5-2.8-0.8-4.2-0.8c-1.3,0-2.4,0.3-3.4,0.9c-1,0.6-1.9,1.6-2.9,3.1v30.4H204.3z"/>
		<path id="g_1_" d="M240.2,84.4c-1.5,0-2.8,0-3.9-0.1c-1.1,0-2.3-0.1-3.6-0.3c-1.3-0.2-2.3-0.4-3.2-0.7c-0.9-0.3-1.7-0.7-2.4-1.1
			c-0.8-0.5-1.3-1.1-1.7-1.8c-0.4-0.7-0.6-1.6-0.6-2.5c0-2.2,0.6-4,1.7-5.6c1.1-1.6,2.6-2.8,4.3-3.8c-1.3-0.4-2.3-1-3-1.8
			c-0.7-0.8-1-1.7-1-2.7c0-1.4,0.4-2.7,1.1-3.8c0.7-1.1,1.9-2.3,3.6-3.8c-1.6-1.3-2.9-2.9-3.6-4.8c-0.8-1.9-1.2-4.5-1.2-7.7
			c0-4.9,1-8.5,3-11c2-2.5,4.9-3.8,8.7-3.8c4.2,0,7.1,1.5,8.6,4.6c0.4-0.5,1.1-1.2,2.1-2.1c1.1-0.9,2.2-1.6,3.5-2.2l1.2-0.5l1.9,5
			c-0.9,0.2-2.3,0.6-4,1.2c-1.7,0.6-2.7,1.1-3.1,1.4c0.4,0.8,0.7,2,0.9,3.6c0.3,1.5,0.4,2.9,0.4,4.1c0,2.2-0.2,4.2-0.6,5.9
			c-0.4,1.7-1,3.2-1.9,4.5c-0.9,1.3-2.1,2.3-3.6,3c-1.5,0.7-3.4,1-5.5,1c-0.4,0-1.1-0.1-2.1-0.2c-1-0.2-1.6-0.3-1.8-0.3
			c0,0-0.1,0.2-0.3,0.5c-0.2,0.3-0.3,0.5-0.4,0.7s-0.2,0.3-0.3,0.6c-0.1,0.3-0.2,0.5-0.3,0.7c-0.1,0.2-0.1,0.4-0.1,0.7
			c0,0.5,0.3,0.9,0.8,1.2c0.5,0.3,1.4,0.5,2.7,0.6c0.1,0,1.2,0.1,3.3,0.3c2.1,0.2,3.1,0.3,3.2,0.3c6.4,0.6,9.6,4,9.6,10.1
			c0,3.7-1,6.4-3,8C247.5,83.6,244.4,84.4,240.2,84.4z M240.1,78.3c2.2,0,3.9-0.3,4.9-1c1.1-0.7,1.6-1.7,1.6-3.1
			c0-1.3-0.4-2.3-1.2-3s-2.3-1.1-4.5-1.3l-6.6-0.5c-0.7,0.6-1.4,1.3-2,2.3c-0.7,1-1,2-1,3.1c0,0.8,0.2,1.5,0.6,2
			c0.4,0.5,1.2,0.8,2.5,1.1C235.7,78.1,237.6,78.3,240.1,78.3z M238.2,53.3c2,0,3.4-0.7,4-2.2c0.6-1.4,1-3.8,1-7
			c0-1.3,0-2.4-0.1-3.2c-0.1-0.9-0.2-1.7-0.4-2.6c-0.2-0.8-0.5-1.5-0.8-2s-0.8-0.9-1.4-1.2c-0.6-0.3-1.3-0.5-2.2-0.5
			c-2,0-3.4,0.8-4.1,2.2c-0.7,1.5-1,3.9-1,7.2c0,1.1,0,2.1,0.1,3s0.2,1.7,0.4,2.5c0.2,0.8,0.5,1.5,0.9,2c0.4,0.5,0.8,0.9,1.4,1.2
			S237.4,53.3,238.2,53.3z"/>
		<path id="a" d="M266,72.1c-2.4,0-4.4-1-6-2.9c-1.6-2-2.4-4.2-2.4-6.7c0-2,0.3-3.8,1-5.4c0.6-1.6,1.3-2.9,2.1-3.9
			c0.7-1,2-2,3.8-3.1c1.8-1.1,3.2-1.8,4.2-2.3c1-0.4,2.7-1.2,5.2-2.2c0.1-0.1,0.2-0.1,0.3-0.1v-3c0-2.7-0.3-4.6-0.8-5.7
			c-0.6-1.1-1.7-1.7-3.4-1.7c-2.9,0-4.4,2-4.4,5.9V43l-7.6-0.3c0-0.4,0-0.9,0.1-1.5c0.2-4.1,1.4-7.2,3.5-9.1c2.1-1.9,5.1-2.8,9-2.8
			c4,0,6.9,1.1,8.7,3.3c1.8,2.2,2.7,5.5,2.7,9.9v19c0,3.1,0.2,6.5,0.7,10h-7c-0.5-2.3-0.8-4.4-1-6.2c-0.6,1.9-1.6,3.5-3,4.8
			C270,71.4,268.2,72.1,266,72.1z M269.1,65.4c1,0,2-0.4,2.9-1.2c0.9-0.8,1.7-1.5,2.1-2.3V50.1c-2.7,1.5-4.5,2.6-5.3,3.4
			c-2.2,1.8-3.4,4-3.4,6.5c0,1.7,0.3,3,0.9,3.9C267,64.9,267.9,65.4,269.1,65.4z"/>
		<path id="n_1_" d="M289.2,71.5V29.8h7.7v4.1c3.3-3.1,6.7-4.7,10.2-4.7c1.2,0,2.2,0.2,3,0.7c0.9,0.5,1.5,1.2,2,2
			c0.4,0.9,0.8,1.8,0.9,2.7c0.2,0.9,0.3,2,0.3,3.1v33.7h-7.7V40c0-1.6-0.2-2.8-0.7-3.6c-0.5-0.8-1.3-1.2-2.6-1.2
			c-1.5,0-3.3,0.9-5.4,2.6v33.6H289.2z"/>
	</g>
	<g id="design">
		<path id="d" d="M115.3,133.6V75.4H128c6.3,0,10.8,1.4,13.3,4.3c2.6,2.9,3.9,7.4,3.9,13.5v21.4c0,6.4-1.3,11.2-3.8,14.3
			c-2.6,3.2-6.8,4.7-12.8,4.7H115.3z M123.4,127.8h4.6c1.2,0,2.3-0.1,3.3-0.4s1.7-0.5,2.4-0.9c0.6-0.3,1.2-0.9,1.6-1.6
			c0.4-0.8,0.8-1.4,1-2.1s0.4-1.6,0.5-2.8c0.1-1.2,0.2-2.3,0.2-3.2s0-2.1,0-3.8V94.1c0-1.4,0-2.6-0.1-3.6c0-1-0.1-1.9-0.3-2.9
			c-0.1-1-0.4-1.7-0.6-2.4c-0.3-0.6-0.6-1.2-1.1-1.7c-0.4-0.6-1-1-1.7-1.3c-0.7-0.3-1.4-0.5-2.3-0.7c-0.9-0.2-1.9-0.2-3.1-0.2h-4.4
			V127.8z"/>
		<path id="e" d="M164.1,134.2c-2.4,0-4.5-0.3-6.1-1c-1.6-0.7-2.9-1.8-3.8-3.2c-0.9-1.5-1.5-3.2-1.9-5.1c-0.4-2-0.5-4.4-0.5-7.2
			v-9.5c0-2.9,0.2-5.3,0.6-7.3c0.4-2,1-3.7,2-5.1s2.2-2.5,3.8-3.2c1.6-0.7,3.6-1,6-1c1.5,0,2.8,0.1,3.9,0.4s2.1,0.7,3,1.2
			s1.5,1.2,2.1,2c0.6,0.8,1.1,1.7,1.4,2.6c0.4,0.9,0.7,2.1,0.9,3.4c0.2,1.3,0.4,2.6,0.4,4c0.1,1.3,0.1,2.8,0.1,4.6l0,3.4h-16.4v5.6
			c0,0.1,0,0.2,0,0.5c0,1.2,0,2,0,2.6s0.1,1.3,0.1,2.2c0.1,0.9,0.2,1.6,0.4,2c0.2,0.4,0.4,0.9,0.8,1.4s0.8,0.8,1.3,1
			c0.5,0.2,1.2,0.3,1.9,0.3c1.7,0,2.8-0.6,3.4-1.7c0.6-1.1,0.9-2.9,0.9-5.2v-2.5h7.5v1.6C175.9,129.7,171.9,134.2,164.1,134.2z
			 M159.5,108.8h8.8V105c0-1.1,0-2-0.1-2.8c-0.1-0.8-0.2-1.5-0.4-2.2s-0.4-1.3-0.7-1.7c-0.3-0.4-0.7-0.7-1.2-0.9
			c-0.5-0.2-1.2-0.4-1.9-0.4c-1.8,0-3,0.7-3.6,2c-0.6,1.3-0.9,3.8-0.9,7.5V108.8z"/>
		<path id="s" d="M192.5,134.2c-3.4,0-6.1-1.1-8.2-3.2s-3.3-5-3.6-8.5l6.4-1.9c0.3,2.7,0.9,4.7,1.8,6s2.2,2,3.8,2
			c1.4,0,2.5-0.5,3.4-1.4c0.9-0.9,1.3-2,1.2-3.4c-0.1-2.1-1.2-4-3.4-5.8l-7.1-6.1c-1.7-1.4-3-2.9-3.9-4.5c-0.9-1.6-1.3-3.5-1.3-5.7
			c0.1-3.3,1.1-5.8,3-7.6c1.9-1.8,4.5-2.7,7.8-2.7c3.1,0,5.6,1,7.4,3.1c1.8,2.1,2.9,4.7,3.1,7.9l-5.2,1.9c-0.3-2.3-0.8-4.1-1.6-5.4
			s-1.9-1.8-3.5-1.8c-1.2,0-2.2,0.4-3,1.2c-0.8,0.8-1.1,1.8-1.1,3c0,1.6,0.7,3,2.1,4.2l7.4,6.8c1.9,1.6,3.3,3.3,4.3,5
			c1,1.7,1.6,3.8,1.6,6.2c0,3.5-1,6.1-3.1,7.9C198.9,133.3,196.1,134.2,192.5,134.2z"/>
		<path id="i" d="M210.3,85.9v-8.1h7.7v8.1H210.3z M210.3,133.6V92h7.7v41.6H210.3z"/>
		<path id="g" d="M239.2,146.5c-1.5,0-2.8,0-3.9-0.1s-2.3-0.1-3.6-0.3s-2.3-0.4-3.2-0.7s-1.7-0.7-2.4-1.1s-1.3-1.1-1.7-1.8
			s-0.6-1.6-0.6-2.5c0-2.2,0.6-4,1.7-5.6s2.6-2.8,4.3-3.8c-1.3-0.4-2.3-1-3-1.8s-1-1.7-1-2.7c0-1.4,0.4-2.7,1.1-3.8
			c0.7-1.1,1.9-2.3,3.6-3.8c-1.6-1.3-2.9-2.9-3.6-4.8c-0.8-1.9-1.2-4.5-1.2-7.7c0-4.9,1-8.5,3-11c2-2.5,4.9-3.8,8.7-3.8
			c4.2,0,7.1,1.5,8.6,4.6c0.4-0.5,1.1-1.2,2.1-2.1c1.1-0.9,2.2-1.6,3.5-2.2l1.2-0.5l1.9,5c-0.9,0.2-2.3,0.6-4,1.2
			c-1.7,0.6-2.7,1.1-3.1,1.4c0.4,0.8,0.7,2,0.9,3.6c0.3,1.5,0.4,2.9,0.4,4.1c0,2.2-0.2,4.2-0.6,5.9c-0.4,1.7-1,3.2-1.9,4.5
			c-0.9,1.3-2.1,2.3-3.6,3c-1.5,0.7-3.4,1-5.5,1c-0.4,0-1.1-0.1-2.1-0.2c-1-0.2-1.6-0.3-1.8-0.3c0,0-0.1,0.2-0.3,0.5
			c-0.2,0.3-0.3,0.5-0.4,0.7s-0.2,0.3-0.3,0.6c-0.1,0.3-0.2,0.5-0.3,0.7c-0.1,0.2-0.1,0.4-0.1,0.7c0,0.5,0.3,0.9,0.8,1.2
			s1.4,0.5,2.7,0.6c0.1,0,1.2,0.1,3.3,0.3c2.1,0.2,3.1,0.3,3.2,0.3c6.4,0.6,9.6,4,9.6,10.1c0,3.7-1,6.4-3,8S243.4,146.5,239.2,146.5
			z M239.1,140.5c2.2,0,3.9-0.3,4.9-1s1.6-1.7,1.6-3.1c0-1.3-0.4-2.3-1.2-3s-2.3-1.1-4.5-1.3l-6.6-0.5c-0.7,0.6-1.4,1.3-2,2.3
			s-1,2-1,3.1c0,0.8,0.2,1.5,0.6,2s1.2,0.8,2.5,1.1S236.6,140.5,239.1,140.5z M237.2,115.5c2,0,3.4-0.7,4-2.2s1-3.8,1-7
			c0-1.3,0-2.4-0.1-3.2c-0.1-0.9-0.2-1.7-0.4-2.6s-0.5-1.5-0.8-2s-0.8-0.9-1.4-1.2c-0.6-0.3-1.3-0.5-2.2-0.5c-2,0-3.4,0.8-4.1,2.2
			c-0.7,1.5-1,3.9-1,7.2c0,1.1,0,2.1,0.1,3s0.2,1.7,0.4,2.5c0.2,0.8,0.5,1.5,0.9,2c0.4,0.5,0.8,0.9,1.4,1.2S236.4,115.5,237.2,115.5
			z"/>
		<path id="n" d="M257.6,133.6V92h7.7v4.1c3.3-3.1,6.7-4.7,10.2-4.7c1.2,0,2.2,0.2,3,0.7s1.5,1.2,2,2c0.4,0.9,0.8,1.8,0.9,2.7
			c0.2,0.9,0.3,2,0.3,3.1v33.7h-7.7v-31.4c0-1.6-0.2-2.8-0.7-3.6s-1.3-1.2-2.6-1.2c-1.5,0-3.3,0.9-5.4,2.6v33.6H257.6z"/>
	</g>
</g>
<g id="right_x5F_outer_x5F_bracket">
	<polygon id="right_x5F_outer_x5F_prism" class="st0" points="319,73.7 336.6,98.5 382,73.7 336.6,49 	"/>
	<g id="top_x5F_right_x5F_bracket">
		<g>
			<path class="st1" d="M340.8,47.8c9-6,18-12,27-18c0.8-0.5,1-1.6,0.3-2.4c-6-6-11.8-12.6-18.2-18.2C340.4,1,324.8,0.1,313,0
				c-1.9,0-1.9,3,0,3c11.1,0.1,26,0.8,34.9,8.6c6.4,5.5,12,12,18,18c0.1-0.8,0.2-1.6,0.3-2.4c-9,6-18,12-27,18
				C337.7,46.3,339.2,48.9,340.8,47.8L340.8,47.8z"/>
		</g>
	</g>
	<g id="bottom_x5F_right_x5F_bracket">
		<g>
			<path class="st1" d="M339.3,101.8c9,6,18,12,27,18c-0.1-0.8-0.2-1.6-0.3-2.4c-6,6-11.7,12.5-18,18c-8.9,7.8-23.9,8.5-34.9,8.6
				c-1.9,0-1.9,3,0,3c11.8-0.1,27.4-1,36.9-9.3c6.4-5.6,12.2-12.2,18.2-18.2c0.7-0.7,0.5-1.8-0.3-2.4c-9-6-18-12-27-18
				C339.2,98.1,337.7,100.7,339.3,101.8L339.3,101.8z"/>
		</g>
	</g>
</g>
<g id="left_x5F_bracket">
	<g id="top_x5F_left_x5F_bracket">
		<g>
			<path class="st1" d="M43.8,45.2c-9-6-18-12-27-18c0.1,0.8,0.2,1.6,0.3,2.4c6-6,11.7-12.5,18-18C44,3.8,59,3.1,70,3
				C72,3,72,0,70,0C58.2,0.1,42.7,1,33.2,9.3C26.7,14.8,21,21.4,15,27.4c-0.7,0.7-0.5,1.8,0.3,2.4c9,6,18,12,27,18
				C43.9,48.9,45.4,46.3,43.8,45.2L43.8,45.2z"/>
		</g>
	</g>
	<g id="bottom_x5F_left_x5F_bracket">
		<g>
			<path class="st1" d="M42.3,99.2c-9,6-18,12-27,18c-0.8,0.5-1,1.6-0.3,2.4c6,6,11.8,12.6,18.2,18.2c9.5,8.3,25.1,9.2,36.9,9.3
				c1.9,0,1.9-3,0-3c-11.1-0.1-26-0.8-34.9-8.6c-6.4-5.5-12-12-18-18c-0.1,0.8-0.2,1.6-0.3,2.4c9-6,18-12,27-18
				C45.4,100.7,43.9,98.1,42.3,99.2L42.3,99.2z"/>
		</g>
	</g>
	<polygon id="left_x5F_prism" class="st0" points="64,73.7 46.5,98.5 1,73.7 46.5,49 	"/>
</g>
<g id="Z">
	<g id="the_x5F_z">
		<path id="z_x5F_icon" d="M51.7,133.7L53,122l46.1-97.2H65.4l1.2-11.7h51l-0.8,7.1L68.4,122h37.8l-1.2,11.7H51.7z"/>
	</g>
</g>
</svg>
