<?xml version="1.0" encoding="utf-8"?>
<!-- Generator: Adobe Illustrator 18.1.1, SVG Export Plug-In . SVG Version: 6.00 Build 0)  -->
<svg version="1.1" xmlns="http://www.w3.org/2000/svg" xmlns:xlink="http://www.w3.org/1999/xlink" x="0px" y="0px"
	 viewBox="0 0 1201 400" enable-background="new 0 0 1201 400" xml:space="preserve">
<g id="Layer_1">
	<g>
		<linearGradient id="SVGID_1_" gradientUnits="userSpaceOnUse" x1="494.4813" y1="147.2769" x2="559.9136" y2="147.2769">
			<stop  offset="0" style="stop-color:#FF0000"/>
			<stop  offset="0.216" style="stop-color:#C20000;stop-opacity:0.784"/>
			<stop  offset="0.6041" style="stop-color:#5B0000;stop-opacity:0.3959"/>
			<stop  offset="0.8737" style="stop-color:#190000;stop-opacity:0.1263"/>
			<stop  offset="1" style="stop-color:#000000;stop-opacity:0"/>
		</linearGradient>
		<path fill="url(#SVGID_1_)" d="M556.7,134.7c-0.9,0.6-1.7,1.3-2.6,1.8l-1.7,1c-0.6,0.3-1.1,0.6-1.7,0.9c-1.2,0.6-2.3,1.2-3.5,1.7
			c-1.2,0.5-2.4,1-3.6,1.5c-1.2,0.5-2.4,1-3.6,1.4c-1.2,0.4-2.4,0.9-3.7,1.3c-1.2,0.4-2.5,0.8-3.7,1.2c-1.2,0.3-2.5,0.7-3.7,1
			c-2.5,0.6-5,1.2-7.6,1.6c-1.3,0.2-2.5,0.4-3.8,0.6c-1.3,0.2-2.5,0.4-3.8,0.6c-1.3,0.2-2.5,0.4-3.8,0.6c-1.3,0.2-2.6,0.4-3.8,0.5
			l-1.9,0.2l-1.9,0.1c-1.3,0.1-2.6,0.1-3.9,0.1l0.5-1c1,1,2.2,1.9,3.4,2.7c1.2,0.8,2.5,1.5,3.8,2.1c0.7,0.3,1.3,0.6,2,0.8
			c0.7,0.2,1.3,0.5,2,0.7c0.7,0.2,1.4,0.4,2,0.6l2.1,0.5c1.4,0.2,2.8,0.4,4.2,0.4c1.4,0.1,2.8-0.1,4.2-0.1c0.7-0.1,1.4-0.2,2.1-0.3
			l1-0.2c0.3-0.1,0.7-0.2,1-0.3l2.1-0.5l0.3-0.1l0.1,0l0,0c-0.3,0.1-0.1,0-0.1,0l0,0l0.1,0l0.5-0.2l1-0.4c1.4-0.6,2.8-1.1,4-1.8
			l1.9-0.9l1.9-1c1.3-0.7,2.5-1.4,3.7-2.2c0.6-0.4,1.2-0.8,1.8-1.2c0.6-0.4,1.2-0.8,1.8-1.3c1.1-0.9,2.3-1.8,3.3-2.8
			c0.6-0.5,1.1-1,1.6-1.5l0.8-0.8l0.7-0.8l0.7-0.8l0.7-0.8c0.5-0.6,0.9-1.1,1.3-1.7C555.5,136.9,556.1,135.8,556.7,134.7z
			 M557.3,134.3c-0.4,1.5-1,2.8-1.7,4.2c-0.7,1.3-1.5,2.6-2.4,3.9c-0.4,0.6-0.9,1.2-1.4,1.8c-0.5,0.6-1,1.2-1.5,1.7
			c-0.5,0.5-1,1.1-1.6,1.6l-1.7,1.6c-0.6,0.5-1.2,1-1.7,1.5c-0.6,0.5-1.2,1-1.8,1.4c-1.2,0.9-2.5,1.8-3.8,2.5
			c-0.7,0.4-1.3,0.8-2,1.2l-2,1c-0.7,0.3-1.4,0.7-2,1l-2,0.9l-1,0.4l-0.5,0.2l-0.1,0l-0.2,0.1l0,0l-0.1,0l-0.3,0.1l-2.3,0.6
			c-0.4,0.1-0.7,0.2-1.1,0.2l-1.2,0.1c-0.8,0.1-1.5,0.2-2.3,0.3c-1.6,0-3.1,0.1-4.7,0c-1.6-0.1-3.1-0.4-4.6-0.7l-2.2-0.6
			c-0.7-0.2-1.5-0.5-2.2-0.8c-1.4-0.6-2.8-1.3-4.1-2.1c-1.3-0.8-2.6-1.7-3.8-2.6c-1.2-1-2.3-2-3.3-3.1l-1-1.1l1.5,0.1
			c1.2,0.1,2.5,0.2,3.8,0.1c1.3,0,2.5-0.1,3.8-0.3c1.3-0.1,2.5-0.3,3.8-0.5c1.3-0.2,2.5-0.5,3.8-0.8c1.2-0.3,2.5-0.6,3.7-0.9
			c1.2-0.3,2.5-0.7,3.7-1.1l7.3-2.2l7.3-2.2c1.2-0.3,2.4-0.8,3.7-1.1c1.2-0.4,2.4-0.8,3.6-1.2c1.2-0.4,2.4-0.8,3.6-1.2l1.8-0.6
			c0.6-0.2,1.2-0.4,1.8-0.7l1.8-0.7l1.7-0.7c1.2-0.4,2.3-1.1,3.5-1.6l0.3-0.1L557.3,134.3z"/>
	</g>
	<g>
		<linearGradient id="SVGID_2_" gradientUnits="userSpaceOnUse" x1="478.213" y1="191.0604" x2="572.1998" y2="191.0604">
			<stop  offset="0" style="stop-color:#FF0000"/>
			<stop  offset="0.216" style="stop-color:#C20000;stop-opacity:0.784"/>
			<stop  offset="0.6041" style="stop-color:#5B0000;stop-opacity:0.3959"/>
			<stop  offset="0.8737" style="stop-color:#190000;stop-opacity:0.1263"/>
			<stop  offset="1" style="stop-color:#000000;stop-opacity:0"/>
		</linearGradient>
		<path fill="url(#SVGID_2_)" d="M563.2,242C563.2,242,563.2,242,563.2,242c-0.2,0.1-0.2,0.1-0.2,0.1l-0.1,0l-0.2,0l-0.3,0l-0.6,0.1
			c-0.4,0.1-0.9,0.1-1.3,0.2c-0.9,0.2-1.7,0.4-2.5,0.6c-1.7,0.4-3.3,1-4.9,1.7c-3.1,1.4-6,3.3-8.3,5.9c-2.3,2.5-4,5.6-4.9,8.8
			c-1,3.3-1.2,6.7-1.1,10.1l-1.2-0.7c2.9-1.7,5.9-3.4,8.9-4.9c3-1.6,6.1-3.1,9.2-4.4c1.6-0.7,3.2-1.3,4.8-1.8c1.6-0.5,3.3-1,5.1-1.2
			c0.9-0.1,1.9-0.1,2.9,0c0.5,0.1,1,0.3,1.6,0.6c0.5,0.3,1,0.8,1.3,1.4c0.3,0.6,0.4,1.2,0.4,1.7c0,0.6,0,0.9,0,1.4
			c0,0.8-0.1,1.7-0.1,2.5c-0.1,1.7-0.1,3.4-0.1,5l0,5.1l0.1,10.1c0.1,6.8,0.2,13.5,0.4,20.3l0,1.4l-1.4,0c-5.6,0-11.3-0.8-16.7-2.5
			c-5.4-1.7-10.5-4.3-15.1-7.5c-4.6-3.2-8.7-7.1-12.4-11.3c-3.7-4.2-6.9-8.8-9.8-13.5c-5.8-9.5-10.3-19.6-14.1-30
			c-1.9-5.2-3.6-10.4-5.2-15.7c-1.5-5.3-3-10.6-4.3-16c-1.3-5.4-2.5-10.7-3.6-16.2c-1.1-5.4-2.1-10.8-3-16.3
			c-1.8-10.9-3.3-21.8-4.5-32.8c-1.2-11-2.1-22-2.7-33c-0.3-5.5-0.6-11-0.7-16.6c-0.2-5.5-0.3-11-0.2-16.6l0-1.9l1.9,0.6l5.5,1.7
			l2.7,0.9c0.9,0.3,1.8,0.5,2.8,0.8l5.5,1.5c1.9,0.4,3.7,0.8,5.6,1.3l2.8,0.6c0.9,0.2,1.9,0.3,2.8,0.5l5.6,1l5.7,0.8
			c1.9,0.3,3.8,0.5,5.7,0.7c1.9,0.2,3.8,0.5,5.7,0.6c1.9,0.2,3.8,0.3,5.7,0.5l5.7,0.3l5.7,0.2c1.9,0.1,3.8,0.1,5.7,0.1l5.7,0
			c1.9-0.1,3.8-0.1,5.7-0.2c1.9-0.1,3.8-0.2,5.7-0.4l1.7-0.1l0,1.7l-0.2,33l-0.2,33l-0.4,33l-0.5,33l-0.3,0l-0.6-33l-0.4-33l-0.3-33
			l-0.2-33l1.7,1.5c-2,0.2-3.9,0.3-5.8,0.4c-1.9,0.1-3.9,0.2-5.8,0.2l-5.8,0.1c-1.9,0-3.9,0-5.8-0.1l-5.8-0.2l-5.8-0.4
			c-1.9-0.1-3.9-0.3-5.8-0.5c-1.9-0.1-3.8-0.4-5.8-0.6c-1.9-0.2-3.8-0.4-5.8-0.8l-5.7-0.9l-5.7-1.1c-0.9-0.2-1.9-0.4-2.9-0.6
			l-2.8-0.7c-1.9-0.4-3.8-0.9-5.7-1.3l-5.6-1.5c-0.9-0.3-1.9-0.5-2.8-0.8l-2.8-0.9l-5.5-1.8l1.9-1.3c-0.1,5.5,0,11,0.1,16.5
			c0.1,5.5,0.3,11,0.5,16.5c0.2,5.5,0.5,11,0.9,16.5c0.4,5.5,0.8,11,1.3,16.5c1,11,2.2,21.9,3.9,32.8c1.6,10.9,3.7,21.7,6.3,32.4
			c1.3,5.4,2.7,10.7,4.3,15.9c1.6,5.3,3.3,10.5,5.3,15.6c2,5.1,4.1,10.2,6.5,15.1c2.4,4.9,5.1,9.7,8.1,14.3c3,4.6,6.3,9,9.9,13
			c3.7,4,7.7,7.7,12.2,10.7c4.5,3,9.3,5.4,14.5,7c5.1,1.6,10.5,2.4,15.9,2.4l-1.3,1.4c-0.1-6.8-0.2-13.6-0.2-20.3l0-10.2l0.1-5.1
			c0-1.7,0.1-3.4,0.1-5.1c0-0.9,0.1-1.7,0.1-2.6c0-0.4,0.1-0.9,0.1-1.2c0-0.3-0.1-0.6-0.2-0.8c-0.2-0.4-0.6-0.6-1.2-0.8
			c-0.6-0.1-1.4-0.1-2.2,0c-1.6,0.2-3.2,0.6-4.7,1.1c-1.6,0.5-3.1,1.1-4.7,1.7c-3.1,1.2-6.2,2.6-9.2,4.1c-3,1.5-6,3.1-8.9,4.7
			l-1.2,0.7l0-1.4c-0.1-3.5,0.3-7.1,1.4-10.6c1.1-3.4,3-6.6,5.5-9.1c2.5-2.6,5.6-4.5,8.8-5.8c1.6-0.7,3.3-1.2,5-1.6
			c0.9-0.2,1.7-0.3,2.6-0.5c0.4-0.1,0.9-0.1,1.3-0.2l0.7-0.1l0.3,0l0.2,0l0.1,0c0,0,0,0,0,0c0,0,0,0.1,0,0.1L563.2,242z"/>
	</g>
	<g opacity="0.7">
		<linearGradient id="SVGID_3_" gradientUnits="userSpaceOnUse" x1="572.1998" y1="191.0604" x2="478.213" y2="191.0604">
			<stop  offset="0" style="stop-color:#000000;stop-opacity:0.7"/>
			<stop  offset="2.046024e-02" style="stop-color:#1B0000;stop-opacity:0.6769"/>
			<stop  offset="6.059381e-02" style="stop-color:#4B0000;stop-opacity:0.6315"/>
			<stop  offset="0.1042" style="stop-color:#760000;stop-opacity:0.5822"/>
			<stop  offset="0.1503" style="stop-color:#9B0000;stop-opacity:0.5301"/>
			<stop  offset="0.1996" style="stop-color:#BA0000;stop-opacity:0.4743"/>
			<stop  offset="0.2531" style="stop-color:#D30000;stop-opacity:0.4139"/>
			<stop  offset="0.3123" style="stop-color:#E70000;stop-opacity:0.3469"/>
			<stop  offset="0.3804" style="stop-color:#F50000;stop-opacity:0.2699"/>
			<stop  offset="0.4653" style="stop-color:#FD0000;stop-opacity:0.1739"/>
			<stop  offset="0.6191" style="stop-color:#FF0000;stop-opacity:0"/>
		</linearGradient>
		<path fill="url(#SVGID_3_)" d="M563.2,242C563.2,242,563.2,242,563.2,242c-0.2,0.1-0.2,0.1-0.2,0.1l-0.1,0l-0.2,0l-0.3,0l-0.6,0.1
			c-0.4,0.1-0.9,0.1-1.3,0.2c-0.9,0.2-1.7,0.4-2.5,0.6c-1.7,0.4-3.3,1-4.9,1.7c-3.1,1.4-6,3.3-8.3,5.9c-2.3,2.5-4,5.6-4.9,8.8
			c-1,3.3-1.2,6.7-1.1,10.1l-1.2-0.7c2.9-1.7,5.9-3.4,8.9-4.9c3-1.6,6.1-3.1,9.3-4.4c1.6-0.7,3.2-1.3,4.8-1.8c1.6-0.5,3.3-1,5.1-1.2
			c0.9-0.1,1.9-0.1,2.9,0c0.5,0.1,1,0.3,1.6,0.6c0.5,0.3,1,0.8,1.3,1.4c0.3,0.6,0.4,1.2,0.4,1.7c0,0.6,0,0.9,0,1.4
			c0,0.8-0.1,1.7-0.1,2.5c-0.1,1.7-0.1,3.4-0.1,5l0,5.1l0.1,10.1c0.1,6.8,0.2,13.5,0.4,20.3l0,1.4l-1.4,0c-5.6,0-11.3-0.8-16.7-2.5
			c-5.4-1.7-10.5-4.3-15.1-7.5c-4.6-3.2-8.7-7.1-12.4-11.3c-3.7-4.2-6.9-8.8-9.8-13.5c-5.8-9.5-10.3-19.6-14.1-30
			c-1.9-5.2-3.6-10.4-5.2-15.7c-1.5-5.3-3-10.6-4.3-16c-1.3-5.4-2.5-10.7-3.6-16.2c-1.1-5.4-2.1-10.8-3-16.3
			c-1.8-10.9-3.3-21.8-4.5-32.8c-1.2-11-2.1-22-2.7-33c-0.3-5.5-0.6-11-0.7-16.6c-0.2-5.5-0.3-11-0.2-16.6l0-1.9l1.9,0.6l5.5,1.7
			l2.7,0.9c0.9,0.3,1.8,0.5,2.8,0.8l5.5,1.5c1.9,0.4,3.7,0.8,5.6,1.3l2.8,0.6c0.9,0.2,1.9,0.3,2.8,0.5l5.6,1l5.7,0.8
			c1.9,0.3,3.8,0.5,5.7,0.7c1.9,0.2,3.8,0.5,5.7,0.6c1.9,0.2,3.8,0.3,5.7,0.5l5.7,0.3l5.7,0.2c1.9,0.1,3.8,0.1,5.7,0.1l5.7,0
			c1.9-0.1,3.8-0.1,5.7-0.2c1.9-0.1,3.8-0.2,5.7-0.4l1.7-0.1l0,1.7l-0.2,33l-0.2,33l-0.4,33l-0.5,33l-0.3,0l-0.6-33l-0.4-33l-0.3-33
			l-0.2-33l1.7,1.5c-2,0.2-3.9,0.3-5.8,0.4c-1.9,0.1-3.9,0.2-5.8,0.2l-5.8,0.1c-1.9,0-3.9,0-5.8-0.1l-5.8-0.2l-5.8-0.4
			c-1.9-0.1-3.9-0.3-5.8-0.5c-1.9-0.1-3.8-0.4-5.8-0.6c-1.9-0.2-3.8-0.4-5.8-0.8l-5.7-0.9l-5.7-1.1c-0.9-0.2-1.9-0.4-2.9-0.6
			l-2.8-0.7c-1.9-0.4-3.8-0.9-5.7-1.3l-5.6-1.5c-0.9-0.3-1.9-0.5-2.8-0.8l-2.8-0.9l-5.5-1.8l1.9-1.3c-0.1,5.5,0,11,0.1,16.5
			c0.1,5.5,0.3,11,0.5,16.5c0.2,5.5,0.5,11,0.9,16.5c0.4,5.5,0.8,11,1.3,16.5c1,11,2.2,21.9,3.9,32.8c1.6,10.9,3.7,21.7,6.3,32.4
			c1.3,5.4,2.7,10.7,4.3,15.9c1.6,5.3,3.3,10.5,5.3,15.6c2,5.1,4.1,10.2,6.5,15.1c2.4,4.9,5.1,9.7,8.1,14.3c3,4.6,6.3,9,9.9,13
			c3.7,4,7.7,7.7,12.2,10.7c4.5,3,9.3,5.4,14.5,7c5.1,1.6,10.5,2.4,15.9,2.4l-1.3,1.4c-0.1-6.8-0.2-13.6-0.2-20.3l0-10.2l0.1-5.1
			c0-1.7,0.1-3.4,0.1-5.1c0-0.9,0.1-1.7,0.1-2.6c0-0.4,0.1-0.9,0.1-1.2c0-0.3-0.1-0.6-0.2-0.8c-0.2-0.4-0.6-0.6-1.2-0.8
			c-0.6-0.1-1.4-0.1-2.2,0c-1.6,0.2-3.2,0.6-4.7,1.1c-1.6,0.5-3.1,1.1-4.7,1.7c-3.1,1.2-6.2,2.6-9.2,4.1c-3,1.5-6,3.1-8.9,4.7
			l-1.2,0.7l0-1.4c-0.1-3.5,0.3-7.1,1.4-10.6c1.1-3.4,3-6.6,5.5-9.1c2.5-2.6,5.6-4.5,8.8-5.8c1.6-0.7,3.3-1.2,5-1.6
			c0.9-0.2,1.7-0.3,2.6-0.5c0.4-0.1,0.9-0.1,1.3-0.2l0.7-0.1l0.3,0l0.2,0l0.1,0c0,0,0,0,0,0c0,0,0,0.1,0,0.1L563.2,242z"/>
	</g>
	<g>
		<g>
			<linearGradient id="SVGID_4_" gradientUnits="userSpaceOnUse" x1="561.5465" y1="171.4695" x2="655.3968" y2="171.4695">
				<stop  offset="0" style="stop-color:#808080"/>
				<stop  offset="0.2712" style="stop-color:#A65A5A;stop-opacity:0.7288"/>
				<stop  offset="0.7662" style="stop-color:#E61919;stop-opacity:0.2338"/>
				<stop  offset="1" style="stop-color:#FF0000;stop-opacity:0"/>
			</linearGradient>
			<path fill="url(#SVGID_4_)" d="M563.2,257.7c0.1,4.8,0.2,9.5,0.3,14.3l0.3,14.3l-0.7-0.7c5.5-0.1,11-0.9,16.1-2.7
				c5.2-1.7,10.1-4.3,14.5-7.5c4.4-3.2,8.5-6.9,12.1-11.1c3.6-4.1,6.8-8.6,9.6-13.3c2.9-4.7,5.4-9.6,7.8-14.6
				c2.4-5,4.4-10.1,6.4-15.3c3.9-10.3,7.1-21,9.8-31.7c2.7-10.8,5-21.6,6.7-32.6c0.9-5.5,1.7-11,2.4-16.5c0.7-5.5,1.3-11,1.8-16.6
				c0.5-5.5,1-11.1,1.3-16.6c0.3-5.5,0.6-11.1,0.8-16.6c0.4-11.1,0.6-22.2,0.4-33.3l1.5,1l-5.5,2l-2.7,1c-0.9,0.3-1.8,0.6-2.8,0.9
				l-5.6,1.7c-1.9,0.5-3.7,1-5.6,1.5l-2.8,0.7c-0.9,0.2-1.9,0.4-2.8,0.6l-5.7,1.2l-5.7,1c-1.9,0.4-3.8,0.6-5.7,0.8
				c-1.9,0.2-3.8,0.5-5.8,0.7l-5.8,0.6l-5.8,0.4l-5.8,0.3c-1.9,0.1-3.9,0.1-5.8,0.1c-1.9,0-3.9,0-5.8,0c-1.9-0.1-3.9-0.1-5.8-0.2
				c-1.9-0.1-3.9-0.2-5.8-0.4l1.8-1.6l0,18.6l-0.1,18.6l-0.3,37.1l-0.2,18.6l-0.2,18.6c-0.1,6.2-0.2,12.4-0.3,18.6l-0.4,18.6h-0.3
				l-0.4-18.6c-0.1-6.2-0.2-12.4-0.3-18.6l-0.2-18.6l-0.2-18.6l-0.3-37.1l-0.1-18.6l0-18.6l0-1.8l1.8,0.2c1.8,0.2,3.8,0.3,5.7,0.4
				c1.9,0.1,3.8,0.2,5.7,0.2c1.9,0,3.8,0.1,5.7,0.1c1.9,0,3.8,0,5.7-0.1l5.7-0.2l5.7-0.4l5.7-0.5c1.9-0.1,3.8-0.4,5.7-0.7
				c1.9-0.2,3.8-0.5,5.7-0.8l5.7-0.9l5.6-1.1c0.9-0.2,1.9-0.4,2.8-0.6l2.8-0.7c1.9-0.5,3.7-0.9,5.6-1.4l5.5-1.6
				c0.9-0.3,1.8-0.5,2.8-0.8l2.7-0.9l5.4-1.9l1.5-0.5l0,1.6c0,5.6-0.1,11.1-0.3,16.7c-0.2,5.6-0.5,11.1-0.8,16.7
				c-0.3,5.6-0.7,11.1-1.2,16.6c-0.5,5.5-0.9,11.1-1.5,16.6c-0.6,5.5-1.2,11.1-1.9,16.6c-0.7,5.5-1.5,11-2.3,16.5
				c-0.8,5.5-1.7,11-2.7,16.5c-1,5.5-2.1,10.9-3.3,16.4c-1.2,5.4-2.6,10.8-4.1,16.2c-0.7,2.7-1.6,5.4-2.4,8
				c-0.9,2.7-1.7,5.3-2.7,7.9c-1.9,5.3-4,10.5-6.4,15.5c-2.4,5.1-5,10-8,14.8c-3,4.8-6.3,9.3-10,13.6c-3.7,4.2-7.9,8.1-12.6,11.3
				c-4.7,3.2-9.8,5.8-15.2,7.4c-5.4,1.7-11.1,2.4-16.7,2.4l-0.7,0l0-0.7l0.3-14.3c0.1-4.8,0.2-9.5,0.3-14.3L563.2,257.7z"/>
		</g>
		<g>
			<linearGradient id="SVGID_5_" gradientUnits="userSpaceOnUse" x1="561.5559" y1="225.3606" x2="598.4315" y2="225.3606">
				<stop  offset="0" style="stop-color:#808080"/>
				<stop  offset="0.2712" style="stop-color:#A65A5A;stop-opacity:0.7288"/>
				<stop  offset="0.7662" style="stop-color:#E61919;stop-opacity:0.2338"/>
				<stop  offset="1" style="stop-color:#FF0000;stop-opacity:0"/>
			</linearGradient>
			<path fill="url(#SVGID_5_)" d="M562.9,241.9c0,0,0.1-0.2,0.2-0.2l0.1,0l0.2-0.1l0.4-0.1l0.7-0.3l1.5-0.6l2.9-1.2
				c1-0.4,1.9-0.8,2.8-1.2c0.9-0.4,1.9-0.8,2.8-1.3c0.9-0.5,1.8-0.9,2.7-1.4c0.9-0.5,1.8-1,2.7-1.4c1.8-1,3.5-2,5.2-3.1
				c0.9-0.6,1.7-1.1,2.5-1.8c0.8-0.6,1.6-1.3,2.3-2c0.7-0.7,1.4-1.5,2-2.3c0.6-0.8,1.1-1.7,1.6-2.6c0.9-1.8,1.6-3.8,1.9-5.8
				c0.3-2,0.4-4,0.3-6l1.8,1.1c-2.8,1.6-5.6,3-8.5,4.4c-1.4,0.7-2.9,1.3-4.4,1.9c-1.5,0.6-3,1.1-4.5,1.7c-1.5,0.5-3.1,1-4.6,1.4
				c-1.6,0.4-3.2,0.7-4.8,0.9c-1.6,0.2-3.3,0.2-5-0.2c-0.8-0.2-1.7-0.7-2.3-1.5c-0.6-0.8-0.6-1.7-0.4-2.5l0.3,0
				c0.1,0.8,0.3,1.5,0.8,1.9c0.5,0.4,1.2,0.6,1.9,0.7c1.4,0.1,2.9-0.2,4.4-0.6c1.5-0.4,2.9-0.8,4.4-1.3c1.5-0.5,2.9-1.1,4.4-1.6
				l4.3-1.8l4.3-1.8c2.9-1.2,5.8-2.5,8.6-3.7l1.9-0.9l-0.1,2c-0.2,4.4-1.7,8.6-3.8,12.2c-0.5,0.9-1.1,1.8-1.7,2.7
				c-0.6,0.9-1.2,1.7-1.9,2.6c-1.3,1.6-2.8,3.3-4.4,4.7c-1.6,1.4-3.3,2.7-5.2,3.8c-0.9,0.5-1.9,1-2.8,1.5c-1,0.4-1.9,0.9-2.9,1.3
				c-1,0.4-2,0.7-3,1c-1,0.3-2,0.6-3.1,0.8c-1,0.2-2.1,0.4-3.1,0.6c-0.5,0.1-1,0.1-1.6,0.2c-0.3,0-0.5,0.1-0.8,0.1l-0.4,0l-0.2,0
				l-0.1,0c0,0,0,0,0-0.1c0,0,0-0.1,0-0.1L562.9,241.9z"/>
		</g>
		<g>
			<linearGradient id="SVGID_6_" gradientUnits="userSpaceOnUse" x1="573.6364" y1="113.9528" x2="639.0686" y2="113.9528">
				<stop  offset="0" style="stop-color:#808080"/>
				<stop  offset="0.2712" style="stop-color:#A65A5A;stop-opacity:0.7288"/>
				<stop  offset="0.7662" style="stop-color:#E61919;stop-opacity:0.2338"/>
				<stop  offset="1" style="stop-color:#FF0000;stop-opacity:0"/>
			</linearGradient>
			<path fill="url(#SVGID_6_)" d="M576.8,126.5c0.9-0.6,1.7-1.3,2.6-1.8l1.7-1c0.6-0.3,1.1-0.6,1.7-0.9c1.2-0.6,2.3-1.2,3.5-1.7
				c1.2-0.5,2.4-1,3.6-1.5c1.2-0.5,2.4-1,3.6-1.4c1.2-0.4,2.4-0.9,3.7-1.3c1.2-0.4,2.5-0.8,3.7-1.2c1.2-0.3,2.5-0.7,3.7-1
				c2.5-0.6,5-1.2,7.6-1.6c1.3-0.2,2.5-0.4,3.8-0.6c1.3-0.2,2.5-0.4,3.8-0.6c1.3-0.2,2.5-0.4,3.8-0.6c1.3-0.2,2.6-0.4,3.8-0.5
				l1.9-0.2l1.9-0.1c1.3-0.1,2.6-0.1,3.9-0.1l-0.5,1c-1-1-2.2-1.9-3.4-2.7c-1.2-0.8-2.5-1.5-3.8-2.1c-0.7-0.3-1.3-0.6-2-0.8
				c-0.7-0.2-1.3-0.5-2-0.7c-0.7-0.2-1.4-0.4-2-0.6l-2.1-0.5c-1.4-0.2-2.8-0.4-4.2-0.4c-1.4-0.1-2.8,0.1-4.2,0.1
				c-0.7,0.1-1.4,0.2-2.1,0.3l-1,0.2c-0.3,0.1-0.7,0.2-1,0.3L605,105l-0.3,0.1l-0.1,0l0,0c0.3-0.1,0.1,0,0.1,0l0,0l-0.1,0l-0.5,0.2
				l-1,0.4c-1.4,0.6-2.8,1.1-4,1.8l-1.9,0.9l-1.9,1c-1.3,0.7-2.5,1.4-3.7,2.2c-0.6,0.4-1.2,0.8-1.8,1.2c-0.6,0.4-1.2,0.8-1.8,1.3
				c-1.1,0.9-2.3,1.8-3.3,2.8c-0.6,0.5-1.1,1-1.6,1.5l-0.8,0.8l-0.7,0.8l-0.7,0.8l-0.7,0.8c-0.5,0.6-0.9,1.1-1.3,1.7
				C578.1,124.3,577.4,125.4,576.8,126.5z M576.2,127c0.4-1.5,1-2.8,1.7-4.2c0.7-1.3,1.5-2.6,2.4-3.9c0.4-0.6,0.9-1.2,1.4-1.8
				c0.5-0.6,1-1.2,1.5-1.7c0.5-0.5,1-1.1,1.6-1.6l1.7-1.6c0.6-0.5,1.2-1,1.7-1.5c0.6-0.5,1.2-1,1.8-1.4c1.2-0.9,2.5-1.8,3.8-2.5
				c0.7-0.4,1.3-0.8,2-1.2l2-1c0.7-0.3,1.4-0.7,2-1l2-0.9l1-0.4l0.5-0.2l0.1,0l0.2-0.1l0,0l0.1,0l0.3-0.1l2.3-0.6
				c0.4-0.1,0.7-0.2,1.1-0.2l1.2-0.1c0.8-0.1,1.5-0.2,2.3-0.3c1.6,0,3.1-0.1,4.7,0c1.6,0.1,3.1,0.4,4.6,0.7l2.2,0.6
				c0.7,0.2,1.5,0.5,2.2,0.8c1.4,0.6,2.8,1.3,4.1,2.1c1.3,0.8,2.6,1.7,3.8,2.6c1.2,1,2.3,2,3.3,3.1l1,1.1l-1.5-0.1
				c-1.2-0.1-2.5-0.2-3.8-0.1c-1.3,0-2.5,0.1-3.8,0.3c-1.3,0.1-2.5,0.3-3.8,0.5c-1.3,0.2-2.5,0.5-3.8,0.8c-1.2,0.3-2.5,0.6-3.7,0.9
				c-1.2,0.3-2.5,0.7-3.7,1.1l-7.3,2.2l-7.3,2.2c-1.2,0.3-2.4,0.8-3.7,1.1c-1.2,0.4-2.4,0.8-3.6,1.2c-1.2,0.4-2.4,0.8-3.6,1.2
				l-1.8,0.6c-0.6,0.2-1.2,0.4-1.8,0.7l-1.8,0.7l-1.7,0.7c-1.2,0.4-2.3,1.1-3.5,1.6l-0.3,0.1L576.2,127z"/>
		</g>
	</g>
	<g>
		<g>
			<linearGradient id="SVGID_7_" gradientUnits="userSpaceOnUse" x1="655.3968" y1="171.4695" x2="561.5465" y2="171.4695">
				<stop  offset="0" style="stop-color:#666666"/>
				<stop  offset="0.379" style="stop-color:#A53C3C;stop-opacity:0.621"/>
				<stop  offset="0.8007" style="stop-color:#E61111;stop-opacity:0.1993"/>
				<stop  offset="1" style="stop-color:#FF0000;stop-opacity:0"/>
			</linearGradient>
			<path fill="url(#SVGID_7_)" d="M563.2,257.7c0.1,4.8,0.2,9.5,0.3,14.3l0.3,14.3l-0.7-0.7c5.5-0.1,11-0.9,16.1-2.7
				c5.2-1.7,10.1-4.3,14.5-7.5c4.4-3.2,8.5-6.9,12.1-11.1c3.6-4.1,6.8-8.6,9.6-13.3c2.9-4.7,5.4-9.6,7.8-14.6
				c2.4-5,4.4-10.1,6.4-15.3c3.9-10.3,7.1-21,9.8-31.7c2.7-10.8,5-21.6,6.7-32.6c0.9-5.5,1.7-11,2.4-16.5c0.7-5.5,1.3-11,1.8-16.6
				c0.5-5.5,1-11.1,1.3-16.6c0.3-5.5,0.6-11.1,0.8-16.6c0.4-11.1,0.6-22.2,0.4-33.3l1.5,1l-5.5,2l-2.7,1c-0.9,0.3-1.8,0.6-2.8,0.9
				l-5.6,1.7c-1.9,0.5-3.7,1-5.6,1.5l-2.8,0.7c-0.9,0.2-1.9,0.4-2.8,0.6l-5.7,1.2l-5.7,1c-1.9,0.4-3.8,0.6-5.7,0.8
				c-1.9,0.2-3.8,0.5-5.8,0.7l-5.8,0.6l-5.8,0.4l-5.8,0.3c-1.9,0.1-3.9,0.1-5.8,0.1c-1.9,0-3.9,0-5.8,0c-1.9-0.1-3.9-0.1-5.8-0.2
				c-1.9-0.1-3.9-0.2-5.8-0.4l1.8-1.6l0,18.6l-0.1,18.6l-0.3,37.1l-0.2,18.6l-0.2,18.6c-0.1,6.2-0.2,12.4-0.3,18.6l-0.4,18.6h-0.3
				l-0.4-18.6c-0.1-6.2-0.2-12.4-0.3-18.6l-0.2-18.6l-0.2-18.6l-0.3-37.1l-0.1-18.6l0-18.6l0-1.8l1.8,0.2c1.8,0.2,3.8,0.3,5.7,0.4
				c1.9,0.1,3.8,0.2,5.7,0.2c1.9,0,3.8,0.1,5.7,0.1c1.9,0,3.8,0,5.7-0.1l5.7-0.2l5.7-0.4l5.7-0.5c1.9-0.1,3.8-0.4,5.7-0.7
				c1.9-0.2,3.8-0.5,5.7-0.8l5.7-0.9l5.6-1.1c0.9-0.2,1.9-0.4,2.8-0.6l2.8-0.7c1.9-0.5,3.7-0.9,5.6-1.4l5.5-1.6
				c0.9-0.3,1.8-0.5,2.8-0.8l2.7-0.9l5.4-1.9l1.5-0.5l0,1.6c0,5.6-0.1,11.1-0.3,16.7c-0.2,5.6-0.5,11.1-0.8,16.7
				c-0.3,5.6-0.7,11.1-1.2,16.6c-0.5,5.5-0.9,11.1-1.5,16.6c-0.6,5.5-1.2,11.1-1.9,16.6c-0.7,5.5-1.5,11-2.3,16.5
				c-0.8,5.5-1.7,11-2.7,16.5c-1,5.5-2.1,10.9-3.3,16.4c-1.2,5.4-2.6,10.8-4.1,16.2c-0.7,2.7-1.6,5.4-2.4,8
				c-0.9,2.7-1.7,5.3-2.7,7.9c-1.9,5.3-4,10.5-6.4,15.5c-2.4,5.1-5,10-8,14.8c-3,4.8-6.3,9.3-10,13.6c-3.7,4.2-7.9,8.1-12.6,11.3
				c-4.7,3.2-9.8,5.8-15.2,7.4c-5.4,1.7-11.1,2.4-16.7,2.4l-0.7,0l0-0.7l0.3-14.3c0.1-4.8,0.2-9.5,0.3-14.3L563.2,257.7z"/>
		</g>
		<g>
			<linearGradient id="SVGID_8_" gradientUnits="userSpaceOnUse" x1="598.4315" y1="225.3606" x2="561.5559" y2="225.3606">
				<stop  offset="0" style="stop-color:#666666"/>
				<stop  offset="0.379" style="stop-color:#A53C3C;stop-opacity:0.621"/>
				<stop  offset="0.8007" style="stop-color:#E61111;stop-opacity:0.1993"/>
				<stop  offset="1" style="stop-color:#FF0000;stop-opacity:0"/>
			</linearGradient>
			<path fill="url(#SVGID_8_)" d="M562.9,241.9c0,0,0.1-0.2,0.2-0.2l0.1,0l0.2-0.1l0.4-0.1l0.7-0.3l1.5-0.6l2.9-1.2
				c1-0.4,1.9-0.8,2.8-1.2c0.9-0.4,1.9-0.8,2.8-1.3c0.9-0.5,1.8-0.9,2.7-1.4c0.9-0.5,1.8-1,2.7-1.4c1.8-1,3.5-2,5.2-3.1
				c0.9-0.6,1.7-1.1,2.5-1.8c0.8-0.6,1.6-1.3,2.3-2c0.7-0.7,1.4-1.5,2-2.3c0.6-0.8,1.1-1.7,1.6-2.6c0.9-1.8,1.6-3.8,1.9-5.8
				c0.3-2,0.4-4,0.3-6l1.8,1.1c-2.8,1.6-5.6,3-8.5,4.4c-1.4,0.7-2.9,1.3-4.4,1.9c-1.5,0.6-3,1.1-4.5,1.7c-1.5,0.5-3.1,1-4.6,1.4
				c-1.6,0.4-3.2,0.7-4.8,0.9c-1.6,0.2-3.3,0.2-5-0.2c-0.8-0.2-1.7-0.7-2.3-1.5c-0.6-0.8-0.6-1.7-0.4-2.5l0.3,0
				c0.1,0.8,0.3,1.5,0.8,1.9c0.5,0.4,1.2,0.6,1.9,0.7c1.4,0.1,2.9-0.2,4.4-0.6c1.5-0.4,2.9-0.8,4.4-1.3c1.5-0.5,2.9-1.1,4.4-1.6
				l4.3-1.8l4.3-1.8c2.9-1.2,5.8-2.5,8.6-3.7l1.9-0.9l-0.1,2c-0.2,4.4-1.7,8.6-3.8,12.2c-0.5,0.9-1.1,1.8-1.7,2.7
				c-0.6,0.9-1.2,1.7-1.9,2.6c-1.3,1.6-2.8,3.3-4.4,4.7c-1.6,1.4-3.3,2.7-5.2,3.8c-0.9,0.5-1.9,1-2.8,1.5c-1,0.4-1.9,0.9-2.9,1.3
				c-1,0.4-2,0.7-3,1c-1,0.3-2,0.6-3.1,0.8c-1,0.2-2.1,0.4-3.1,0.6c-0.5,0.1-1,0.1-1.6,0.2c-0.3,0-0.5,0.1-0.8,0.1l-0.4,0l-0.2,0
				l-0.1,0c0,0,0,0,0-0.1c0,0,0-0.1,0-0.1L562.9,241.9z"/>
		</g>
		<g>
			<linearGradient id="SVGID_9_" gradientUnits="userSpaceOnUse" x1="639.0686" y1="113.9528" x2="573.6364" y2="113.9528">
				<stop  offset="0" style="stop-color:#666666"/>
				<stop  offset="0.379" style="stop-color:#A53C3C;stop-opacity:0.621"/>
				<stop  offset="0.8007" style="stop-color:#E61111;stop-opacity:0.1993"/>
				<stop  offset="1" style="stop-color:#FF0000;stop-opacity:0"/>
			</linearGradient>
			<path fill="url(#SVGID_9_)" d="M576.8,126.5c0.9-0.6,1.7-1.3,2.6-1.8l1.7-1c0.6-0.3,1.1-0.6,1.7-0.9c1.2-0.6,2.3-1.2,3.5-1.7
				c1.2-0.5,2.4-1,3.6-1.5c1.2-0.5,2.4-1,3.6-1.4c1.2-0.4,2.4-0.9,3.7-1.3c1.2-0.4,2.5-0.8,3.7-1.2c1.2-0.3,2.5-0.7,3.7-1
				c2.5-0.6,5-1.2,7.6-1.6c1.3-0.2,2.5-0.4,3.8-0.6c1.3-0.2,2.5-0.4,3.8-0.6c1.3-0.2,2.5-0.4,3.8-0.6c1.3-0.2,2.6-0.4,3.8-0.5
				l1.9-0.2l1.9-0.1c1.3-0.1,2.6-0.1,3.9-0.1l-0.5,1c-1-1-2.2-1.9-3.4-2.7c-1.2-0.8-2.5-1.5-3.8-2.1c-0.7-0.3-1.3-0.6-2-0.8
				c-0.7-0.2-1.3-0.5-2-0.7c-0.7-0.2-1.4-0.4-2-0.6l-2.1-0.5c-1.4-0.2-2.8-0.4-4.2-0.4c-1.4-0.1-2.8,0.1-4.2,0.1
				c-0.7,0.1-1.4,0.2-2.1,0.3l-1,0.2c-0.3,0.1-0.7,0.2-1,0.3L605,105l-0.3,0.1l-0.1,0l0,0c0.3-0.1,0.1,0,0.1,0l0,0l-0.1,0l-0.5,0.2
				l-1,0.4c-1.4,0.6-2.8,1.1-4,1.8l-1.9,0.9l-1.9,1c-1.3,0.7-2.5,1.4-3.7,2.2c-0.6,0.4-1.2,0.8-1.8,1.2c-0.6,0.4-1.2,0.8-1.8,1.3
				c-1.1,0.9-2.3,1.8-3.3,2.8c-0.6,0.5-1.1,1-1.6,1.5l-0.8,0.8l-0.7,0.8l-0.7,0.8l-0.7,0.8c-0.5,0.6-0.9,1.1-1.3,1.7
				C578.1,124.3,577.4,125.4,576.8,126.5z M576.2,127c0.4-1.5,1-2.8,1.7-4.2c0.7-1.3,1.5-2.6,2.4-3.9c0.4-0.6,0.9-1.2,1.4-1.8
				c0.5-0.6,1-1.2,1.5-1.7c0.5-0.5,1-1.1,1.6-1.6l1.7-1.6c0.6-0.5,1.2-1,1.7-1.5c0.6-0.5,1.2-1,1.8-1.4c1.2-0.9,2.5-1.8,3.8-2.5
				c0.7-0.4,1.3-0.8,2-1.2l2-1c0.7-0.3,1.4-0.7,2-1l2-0.9l1-0.4l0.5-0.2l0.1,0l0.2-0.1l0,0l0.1,0l0.3-0.1l2.3-0.6
				c0.4-0.1,0.7-0.2,1.1-0.2l1.2-0.1c0.8-0.1,1.5-0.2,2.3-0.3c1.6,0,3.1-0.1,4.7,0c1.6,0.1,3.1,0.4,4.6,0.7l2.2,0.6
				c0.7,0.2,1.5,0.5,2.2,0.8c1.4,0.6,2.8,1.3,4.1,2.1c1.3,0.8,2.6,1.7,3.8,2.6c1.2,1,2.3,2,3.3,3.1l1,1.1l-1.5-0.1
				c-1.2-0.1-2.5-0.2-3.8-0.1c-1.3,0-2.5,0.1-3.8,0.3c-1.3,0.1-2.5,0.3-3.8,0.5c-1.3,0.2-2.5,0.5-3.8,0.8c-1.2,0.3-2.5,0.6-3.7,0.9
				c-1.2,0.3-2.5,0.7-3.7,1.1l-7.3,2.2l-7.3,2.2c-1.2,0.3-2.4,0.8-3.7,1.1c-1.2,0.4-2.4,0.8-3.6,1.2c-1.2,0.4-2.4,0.8-3.6,1.2
				l-1.8,0.6c-0.6,0.2-1.2,0.4-1.8,0.7l-1.8,0.7l-1.7,0.7c-1.2,0.4-2.3,1.1-3.5,1.6l-0.3,0.1L576.2,127z"/>
		</g>
	</g>
</g>
<g id="Layer_2">
	<text transform="matrix(0.9588 0 0 1 443.4702 339.3984)" display="none"><tspan x="0" y="0" display="inline" fill="#FFFFFF" stroke="#000000" stroke-miterlimit="10" font-family="'Helvetica-Light'" font-size="34.6697">U N V E </tspan><tspan x="131" y="0" display="inline" fill="#FFFFFF" stroke="#BF0000" stroke-miterlimit="10" font-family="'Helvetica-Light'" font-size="34.6697">I </tspan><tspan x="150.3" y="0" display="inline" fill="#FFFFFF" stroke="#000000" stroke-miterlimit="10" font-family="'Helvetica-Light'" font-size="34.6697">L I N G</tspan></text>
	<text transform="matrix(1.0011 0 0 1 435.4702 339.3984)"><tspan x="0" y="0" fill="none" stroke="#000000" stroke-miterlimit="10" font-family="'Helvetica-Light'" font-size="34.6697">U N V E </tspan><tspan x="131" y="0" fill="none" stroke="#FF0000" stroke-miterlimit="10" font-family="'Helvetica-Light'" font-size="34.6697">I </tspan><tspan x="150.3" y="0" fill="none" stroke="#000000" stroke-miterlimit="10" font-family="'Helvetica-Light'" font-size="34.6697">L I N G</tspan></text>
</g>
</svg>
