<?xml version="1.0" encoding="utf-8"?>
<!-- Generator: Adobe Illustrator 17.0.0, SVG Export Plug-In . SVG Version: 6.00 Build 0)  -->
<!DOCTYPE svg PUBLIC "-//W3C//DTD SVG 1.1//EN" "http://www.w3.org/Graphics/SVG/1.1/DTD/svg11.dtd">
<svg version="1.1" id="Layer_2" xmlns="http://www.w3.org/2000/svg" xmlns:xlink="http://www.w3.org/1999/xlink" x="0px" y="0px"
	 width="176px" height="265px" viewBox="-5.5 0 176 265" enable-background="new -5.5 0 176 265" xml:space="preserve">
<g>
	<g>
		<path fill="#DBDADA" d="M23.485,116.186l17.288,38.405H29.705l-3.225-7.889H8.487l-3.314,7.889H-5.5l17.439-38.405H23.485z
			 M11.263,140.082h12.515l-6.171-15.111L11.263,140.082"/>
	</g>
	<g>
		<path fill="#DBDADA" d="M107.429,116.186l17.288,38.405h-11.069l-3.225-7.889H92.431l-3.312,7.889H78.445l17.44-38.405H107.429z
			 M95.206,140.082h12.515l-6.171-15.111L95.206,140.082"/>
	</g>
	<g>
		<polygon fill="#DBDADA" points="154.623,134.715 170.5,154.592 158.103,154.592 148.82,141.5 139.011,154.592 127.147,154.592 
			142.856,135.028 127.907,116.186 140.104,116.186 148.82,128.697 157.772,116.186 169.572,116.186 		"/>
	</g>
	<g>
		<path fill="#DBDADA" d="M73.353,99.774l14.272,14.268l-5.071,5.069l-4.635-4.654v1.728v27.28c0,3.262,0.525,13.152-17.593,13.152
			c-20.629,0-20.006-10.753-20.006-15.27v-0.885h10.839v0.885c0.083,2.974,0.457,7.54,9.166,7.54c8.584,0,8.467-4.848,8.467-6.709
			v-25.991v-1.749l-4.657,4.647l-5.05-5.042L73.353,99.774z"/>
	</g>
	<g>
		<path fill="#DBDADA" d="M58.681,80.384c20.629,0,20.014,10.754,20.014,15.27v0.886H67.847v-0.886
			c-0.083-2.974-0.464-7.531-9.166-7.531c-8.592,0-8.467,4.841-8.467,6.701v25.997v1.75l4.655-4.647l5.051,5.043l-14.272,14.268
			l-14.264-14.268l5.071-5.071l4.636,4.654v-1.73V93.538C41.09,90.273,40.564,80.384,58.681,80.384z"/>
	</g>
</g>
</svg>
