<?xml version="1.0" encoding="utf-8"?>
<!-- Generator: Adobe Illustrator 17.0.0, SVG Export Plug-In . SVG Version: 6.00 Build 0)  -->
<!DOCTYPE svg PUBLIC "-//W3C//DTD SVG 1.1//EN" "http://www.w3.org/Graphics/SVG/1.1/DTD/svg11.dtd">
<svg version="1.1" id="Layer_1" xmlns="http://www.w3.org/2000/svg" xmlns:xlink="http://www.w3.org/1999/xlink" x="0px" y="0px"
	 width="176px" height="265px" viewBox="89.398 55.538 176 265" enable-background="new 89.398 55.538 176 265"
	 xml:space="preserve">
<g id="Layer_1_1_">
</g>
<g>
	<g id="Layer_4">
		<path fill="#DADADA" d="M176.627,114.539c18.475,39.466,36.949,78.932,55.542,118.652c-0.858,0.105-1.395,0.234-1.932,0.227
			c-4.726-0.058-9.455-0.283-14.175-0.154c-2.328,0.063-3.296-0.915-4.122-2.903c-3.095-7.452-6.396-14.819-9.515-22.262
			c-0.663-1.582-1.512-2.16-3.246-2.148c-14.467,0.098-28.935,0.129-43.402,0.089c-1.685-0.004-2.392,0.612-2.973,2.11
			c-2.945,7.59-6.046,15.12-8.987,22.712c-0.625,1.615-1.474,2.206-3.209,2.176c-5.798-0.1-11.6-0.038-17.866-0.038
			c17.794-39.59,35.522-79.035,53.251-118.481C176.204,114.525,176.415,114.532,176.627,114.539z M160.902,189.818
			c11.412,0,22.302,0,33.526,0c-5.949-12.422-11.734-24.501-17.519-36.579c-0.209,0.014-0.419,0.028-0.628,0.042
			C171.226,165.291,166.17,177.302,160.902,189.818z"/>
	</g>
	<g id="Layer_2">
		<g>
			<path fill="#DADADA" d="M106.737,254.814l-1.684,6.068h-5.541l7.225-23.639h7.015l7.33,23.639h-5.752l-1.824-6.068H106.737z
				 M112.734,250.815l-1.473-5.016c-0.421-1.403-0.842-3.156-1.193-4.559h-0.07c-0.351,1.403-0.701,3.192-1.087,4.559l-1.403,5.016
				H112.734z"/>
			<path fill="#DADADA" d="M124.24,260.882v-23.639h6.243l4.911,8.663c1.403,2.491,2.806,5.436,3.858,8.102h0.105
				c-0.351-3.122-0.456-6.313-0.456-9.856v-6.909h4.91v23.639h-5.612l-5.05-9.119c-1.403-2.525-2.946-5.577-4.103-8.347
				l-0.105,0.035c0.14,3.121,0.21,6.453,0.21,10.311v7.12L124.24,260.882L124.24,260.882z"/>
			<path fill="#DADADA" d="M168.189,259.794c-1.648,0.561-4.77,1.332-7.891,1.332c-4.314,0-7.435-1.087-9.61-3.191
				c-2.174-2.034-3.367-5.12-3.332-8.593c0.035-7.856,5.752-12.345,13.503-12.345c3.051,0,5.401,0.596,6.558,1.158l-1.122,4.279
				c-1.298-0.561-2.911-1.017-5.507-1.017c-4.454,0-7.821,2.525-7.821,7.646c0,4.875,3.051,7.751,7.435,7.751
				c1.227,0,2.209-0.141,2.63-0.351v-4.945h-3.648v-4.173h8.804L168.189,259.794L168.189,259.794z"/>
			<path fill="#DADADA" d="M177.696,237.242v13.608c0,4.068,1.543,6.138,4.279,6.138c2.806,0,4.349-1.964,4.349-6.138v-13.608h5.331
				V250.5c0,7.295-3.683,10.767-9.855,10.767c-5.962,0-9.47-3.297-9.47-10.838v-13.187L177.696,237.242L177.696,237.242z"/>
			<path fill="#DADADA" d="M196.287,237.242h5.366v19.15h9.399v4.489h-14.765V237.242z"/>
			<path fill="#DADADA" d="M219.927,254.814l-1.684,6.068h-5.541l7.225-23.639h7.014l7.331,23.639h-5.752l-1.824-6.068H219.927z
				 M225.925,250.815l-1.473-5.016c-0.421-1.403-0.842-3.156-1.193-4.559h-0.07c-0.351,1.403-0.702,3.192-1.087,4.559l-1.403,5.016
				H225.925z"/>
			<path fill="#DADADA" d="M237.431,237.558c1.718-0.28,4.279-0.491,7.12-0.491c3.507,0,5.962,0.526,7.646,1.859
				c1.403,1.122,2.175,2.771,2.175,4.945c0,3.016-2.139,5.086-4.173,5.822v0.105c1.648,0.666,2.56,2.245,3.157,4.419
				c0.736,2.666,1.473,5.752,1.929,6.664h-5.472c-0.386-0.666-0.946-2.595-1.648-5.507c-0.631-2.946-1.648-3.752-3.823-3.788h-1.613
				v9.295h-5.296L237.431,237.558L237.431,237.558z M242.727,247.729h2.104c2.666,0,4.244-1.333,4.244-3.402
				c0-2.174-1.473-3.261-3.928-3.296c-1.298,0-2.034,0.105-2.42,0.175V247.729z"/>
		</g>
	</g>
	<g id="Layer_2_copy">
		<g>
			<path fill="#DADADA" d="M245.208,243.779c0.145-0.08,0.289-0.16,0.434-0.24c-0.127-0.013-0.27-0.023-0.434-0.027V243.779z"/>
			<path fill="#DADADA" d="M131.631,254.141v2.985c0.795,0.44,1.59,0.88,2.385,1.32L131.631,254.141z"/>
			<path fill="#DADADA" d="M233.558,250.204c0.464-0.256,0.928-0.512,1.392-0.768v-11.343c-1.46,0.804-2.925,1.611-4.397,2.422
				L233.558,250.204z"/>
			<path fill="#DADADA" d="M262.778,124.085c-28.035-9.47-56.036-19.041-84.048-28.583c-0.778-0.265-1.572-0.486-2.41-0.743
				c-0.792,0.242-1.589,0.451-2.362,0.726c-27.329,9.742-54.647,19.515-82.001,29.186c-2.107,0.745-2.77,1.638-2.505,3.89
				c4.312,36.693,8.554,73.394,12.751,110.1c0.107,0.937,0.37,1.646,0.823,2.233l1.875-6.133h6.842
				c-4.229-36.97-8.117-70.545-11.851-102.373c19.376-6.86,38.942-13.84,57.913-20.608c6.178-2.204,12.357-4.408,18.536-6.611
				l18.238,6.216c19.748,6.732,40.118,13.676,60.267,20.491c-3.998,31.399-7.965,63.205-11.808,94.014L242,234.213
				c-0.286,0.157-0.574,0.316-0.86,0.473c1.103-0.064,2.256-0.1,3.411-0.1c3.075,0,5.403,0.387,7.248,1.223
				c4.478-35.896,8.947-71.794,13.526-107.677C265.631,125.729,265.003,124.837,262.778,124.085z"/>
			<path fill="#DADADA" d="M212.239,253.912l1.207-3.951c-2.363,1.307-4.741,2.622-7.142,3.951H212.239z"/>
			<path fill="#DADADA" d="M209.351,263.362h-15.544v-2.524c-5.722,3.174-11.56,6.416-17.531,9.736
				c-4.213-2.347-8.503-4.734-12.887-7.172c-1.013,0.128-2.059,0.205-3.091,0.205c-4.922,0-8.63-1.272-11.335-3.889
				c-1.106-1.035-2.002-2.28-2.672-3.679v7.323h-3.413c10.343,5.74,20.684,11.484,31.017,17.244c1.727,0.963,3.07,0.938,4.793-0.02
				c10.341-5.752,20.689-11.491,31.041-17.223h-0.378V263.362z"/>
			<path fill="#DADADA" d="M120.624,251.031c0.378,0.21,0.757,0.419,1.136,0.629v-11.347c-1.775-0.983-3.565-1.973-5.383-2.979
				L120.624,251.031z"/>
		</g>
	</g>
</g>
</svg>
