<?xml version="1.0" encoding="utf-8"?>
<!-- Generator: Adobe Illustrator 17.0.0, SVG Export Plug-In . SVG Version: 6.00 Build 0)  -->
<!DOCTYPE svg PUBLIC "-//W3C//DTD SVG 1.1//EN" "http://www.w3.org/Graphics/SVG/1.1/DTD/svg11.dtd">
<svg version="1.1" id="Layer_1" xmlns="http://www.w3.org/2000/svg" xmlns:xlink="http://www.w3.org/1999/xlink" x="0px" y="0px"
	 width="175.927px" height="265px" viewBox="0 0 175.927 265" enable-background="new 0 0 175.927 265" xml:space="preserve">
<g>
	<g>
		<polygon fill="#DBDADA" points="138.744,226.105 87.963,240.207 37.181,226.105 25.464,95.176 150.464,95.176 		"/>
		<polygon fill="#EFEFEF" points="87.963,105.782 87.963,228.96 88.077,228.992 129.171,217.58 138.657,105.782 		"/>
		<polygon fill="#22313F" points="87.918,138.519 51.572,154.131 52.777,169.587 87.918,154.091 125.297,137.609 126.847,121.799 		
			"/>
		<polygon fill="#22313F" points="51.572,154.131 52.777,169.587 87.918,154.091 87.918,138.519 		"/>
		<polygon fill="#22313F" points="126.847,121.799 87.918,138.519 87.918,154.091 125.297,137.609 		"/>
		<polygon fill="#22313F" points="51.628,154.131 52.833,169.587 106.751,169.764 105.545,190.372 87.803,195.524 70.748,191.082 
			69.714,178.291 53.867,178.291 55.933,202.985 87.975,212.756 119.843,203.162 123.977,154.131 		"/>
		<polygon fill="#22313F" points="87.918,154.131 51.572,154.131 52.777,169.587 87.918,169.703 		"/>
		<polygon fill="#22313F" points="87.918,195.473 87.745,195.524 70.692,191.082 69.658,178.291 53.811,178.291 55.877,202.985 
			87.918,212.756 		"/>
		<polygon fill="#22313F" points="48.299,121.799 126.847,121.799 125.297,137.609 50.193,137.609 		"/>
		<polygon opacity="0.05" fill="#22313F" enable-background="new    " points="87.918,121.799 48.299,121.799 50.193,137.609 
			87.918,137.609 		"/>
	</g>
	<g>
		<path fill="#DBDADA" d="M49.815,71.627c-1.969,0.984-6.4,2.04-12.166,2.04c-16.385,0-24.823-10.196-24.823-23.699
			c0-16.173,11.533-25.175,25.879-25.175c5.555,0,9.774,1.125,11.674,2.109l-2.18,8.51c-2.18-0.914-5.203-1.758-9.001-1.758
			c-8.509,0-15.119,5.133-15.119,15.682c0,9.493,5.625,15.47,15.189,15.47c3.234,0,6.821-0.702,8.931-1.547L49.815,71.627z"/>
		<path fill="#DBDADA" d="M57.198,61.922c2.883,1.477,7.314,2.953,11.885,2.953c4.922,0,7.524-2.039,7.524-5.133
			c0-2.953-2.25-4.641-7.946-6.681c-7.876-2.743-13.009-7.103-13.009-13.994c0-8.085,6.75-14.274,17.932-14.274
			c5.344,0,9.282,1.125,12.095,2.391l-2.391,8.65c-1.899-0.914-5.274-2.251-9.915-2.251s-6.892,2.11-6.892,4.571
			c0,3.023,2.672,4.36,8.79,6.681c8.368,3.094,12.306,7.454,12.306,14.135c0,7.946-6.118,14.697-19.127,14.697
			c-5.414,0-10.759-1.407-13.432-2.883L57.198,61.922z"/>
		<path fill="#DBDADA" d="M95.171,61.922c2.883,1.477,7.313,2.953,11.884,2.953c4.922,0,7.524-2.039,7.524-5.133
			c0-2.953-2.251-4.641-7.946-6.681c-7.875-2.743-13.009-7.103-13.009-13.994c-0.001-8.085,6.75-14.274,17.932-14.274
			c5.344,0,9.282,1.125,12.095,2.391l-2.391,8.65c-1.899-0.914-5.274-2.251-9.915-2.251s-6.892,2.11-6.892,4.571
			c0,3.023,2.672,4.36,8.79,6.681c8.368,3.094,12.306,7.454,12.306,14.135c0,7.946-6.118,14.697-19.127,14.697
			c-5.414,0-10.759-1.407-13.431-2.883L95.171,61.922z"/>
		<path fill="#DBDADA" d="M133.003,62.486c1.898,0.984,6.259,2.812,10.618,2.812c5.555,0,8.367-2.672,8.367-6.118
			c0-4.501-4.501-6.54-9.212-6.54h-4.36v-7.665h4.149c3.587-0.07,8.157-1.407,8.157-5.274c0-2.742-2.25-4.782-6.751-4.782
			c-3.727,0-7.665,1.617-9.564,2.743l-2.18-7.735c2.742-1.758,8.227-3.445,14.134-3.445c9.774,0,15.19,5.133,15.19,11.392
			c0,4.852-2.743,8.65-8.368,10.618v0.141c5.485,0.984,9.915,5.133,9.915,11.111c0,8.086-7.102,13.994-18.706,13.994
			c-5.907,0-10.9-1.548-13.572-3.234L133.003,62.486z"/>
	</g>
</g>
</svg>
