<?xml version="1.0" encoding="utf-8"?>
<!-- Generator: Adobe Illustrator 17.0.0, SVG Export Plug-In . SVG Version: 6.00 Build 0)  -->
<!DOCTYPE svg PUBLIC "-//W3C//DTD SVG 1.1//EN" "http://www.w3.org/Graphics/SVG/1.1/DTD/svg11.dtd">
<svg version="1.1" id="Layer_1" xmlns="http://www.w3.org/2000/svg" xmlns:xlink="http://www.w3.org/1999/xlink" x="0px" y="0px"
	 width="176px" height="265px" viewBox="187 147.5 176 265" enable-background="new 187 147.5 176 265" xml:space="preserve">
<g>
	<path fill="#DBDADA" d="M268.218,213.603c-0.644,6.138-1.3,12.252-5.303,16.769c-7.887,8.901-18.593,14.367-27.322,18.663
		c-22.205,10.929-47.741,36.394-47.741,77.07c0,19.703,7.6,40.903,21.938,57.235c15.264,17.386,38.096,29.29,65.21,29.159
		c24.238-0.118,44.137-8.031,59.098-20.952c17.496-15.111,28.05-37.307,28.05-65.442c0-20.725-6.179-38.688-17.431-52.431
		c-22.188-27.102-40.092-29.491-51.416-35.951C285.198,233.101,277.72,224.958,268.218,213.603L268.218,213.603z"/>
	<g>
		<g>
			<defs>
				<path id="SVGID_1_" d="M268.218,213.603c-0.644,6.138-1.3,12.252-5.303,16.769c-7.887,8.901-18.593,14.367-27.322,18.663
					c-22.205,10.929-47.741,36.394-47.741,77.07c0,19.703,7.6,40.903,21.938,57.235c15.264,17.386,38.096,29.29,65.21,29.159
					c24.238-0.118,44.137-8.031,59.098-20.952c17.496-15.111,28.05-37.307,28.05-65.442c0-20.725-6.179-38.688-17.431-52.431
					c-22.188-27.102-40.092-29.491-51.416-35.951C285.198,233.101,277.72,224.958,268.218,213.603L268.218,213.603z"/>
			</defs>
			<clipPath id="SVGID_2_">
				<use xlink:href="#SVGID_1_"  overflow="visible"/>
			</clipPath>
			<path clip-path="url(#SVGID_2_)" fill="#C9C9C9" d="M334.443,255.765c11.713,17.696,11.423,36.869,1.203,53.72
				c-8.205,13.528-22.992,24.881-41.741,37.894c-28.289,19.634-57.162,34.483-80.802,28.315
				c-11.545-3.012-21.648-12.105-30.199-26.038l10.95-71.18l80.956-57.19L334.443,255.765L334.443,255.765z"/>
		</g>
		<g>
			<defs>
				<path id="SVGID_3_" d="M268.218,213.603c-0.644,6.138-1.3,12.252-5.303,16.769c-7.887,8.901-18.593,14.367-27.322,18.663
					c-22.205,10.929-47.741,36.394-47.741,77.07c0,19.703,7.6,40.903,21.938,57.235c15.264,17.386,38.096,29.29,65.21,29.159
					c24.238-0.118,44.137-8.031,59.098-20.952c17.496-15.111,28.05-37.307,28.05-65.442c0-20.725-6.179-38.688-17.431-52.431
					c-22.188-27.102-40.092-29.491-51.416-35.951C285.198,233.101,277.72,224.958,268.218,213.603L268.218,213.603z"/>
			</defs>
			<clipPath id="SVGID_4_">
				<use xlink:href="#SVGID_3_"  overflow="visible"/>
			</clipPath>
			<path clip-path="url(#SVGID_4_)" fill="#E2E2E2" d="M267.098,214.689c4.705,7.934,5.371,18.944,0,23.004
				c-2.551,1.928-1.993,2.942-1.02,3.76c1.933,1.623,0.54,4.878-1.593,7.966c-11.938,17.28-35.341,31.062-49.385,37.278
				c-3.749,1.659-10.91,3.883-13.063,1.593c-5.441-5.787,4.376-14.953,9.877-23.195l43.586-31.543L267.098,214.689L267.098,214.689z
				"/>
		</g>
		<g>
			<defs>
				<path id="SVGID_5_" d="M268.218,213.603c-0.644,6.138-1.3,12.252-5.303,16.769c-7.887,8.901-18.593,14.367-27.322,18.663
					c-22.205,10.929-47.741,36.394-47.741,77.07c0,19.703,7.6,40.903,21.938,57.235c15.264,17.386,38.096,29.29,65.21,29.159
					c24.238-0.118,44.137-8.031,59.098-20.952c17.496-15.111,28.05-37.307,28.05-65.442c0-20.725-6.179-38.688-17.431-52.431
					c-22.188-27.102-40.092-29.491-51.416-35.951C285.198,233.101,277.72,224.958,268.218,213.603L268.218,213.603z"/>
			</defs>
			<clipPath id="SVGID_6_">
				<use xlink:href="#SVGID_5_"  overflow="visible"/>
			</clipPath>
			<path clip-path="url(#SVGID_6_)" fill="#22313F" d="M266.971,212.396c6.097,13.802,5.66,21.931-8.251,28.291
				c-0.446,0.204-1.478,1.132,0.305,1.486c5.279,1.048-1.755,9.194-4.799,12.025c-3.507,3.262-8.222,8.132-19.972,16.008
				s-24.422,13.294-27.724,11.074c-5.808-3.906,5.916-13.89,12.139-23.64L266.971,212.396L266.971,212.396z"/>
		</g>
	</g>
	<path fill="none" d="M268.218,213.603c-0.644,6.138-1.3,12.252-5.303,16.769c-7.887,8.901-18.593,14.367-27.322,18.663
		c-22.205,10.929-47.741,36.394-47.741,77.07c0,19.703,7.6,40.903,21.938,57.235c15.264,17.386,38.096,29.29,65.21,29.159
		c24.238-0.118,44.137-8.031,59.098-20.952c17.496-15.111,28.05-37.307,28.05-65.442c0-20.725-6.179-38.688-17.431-52.431
		c-22.188-27.102-40.092-29.491-51.416-35.951C285.198,233.101,277.72,224.958,268.218,213.603L268.218,213.603z"/>
	<path fill="#22313F" d="M306.625,349.332c-12.249-0.08-24.307-21.487-48.777-22.061c-18.404-0.432-32.898,14.993-32.581,29.84
		c0.38,17.82,12.983,22.08,24.675,22.253c22.924,0.34,43.331-23.098,57.257-23.337c10.583-0.182,21.309,21.957,30.923,22.699
		c11.075,0.854,19.341-20.601,18.619-33.601c-0.481-8.663-5.46-14.883-11.923-14.729C332.703,330.686,318.61,349.41,306.625,349.332
		L306.625,349.332z M285.419,377.917c5.288-5.262,10.899-8.378,17.206-8.222c10.068,0.249,10.496,2.614,13.414,8.508
		c0.592,1.197,0.254,2.226-0.128,2.834c-0.208,0.331-1.362,1.437-1.753,1.437c-0.969,0-1.322-0.349-1.72-1.341
		c-2.402-5.995-5.962-6.021-10.451-6.021c-6.916,0-9.934,3.375-14.019,6.755c-1.015,0.84-1.975,1.472-2.74,0.829
		c-0.617-0.518-1.129-1.242-1.115-1.786C284.145,379.62,284.505,378.826,285.419,377.917L285.419,377.917z M271.431,392.222
		c5.435,5.012,31.095,9.22,46.518-1.147c0.568-0.382,1.298-0.636,1.927-0.367c0.471,0.202,0.749,0.456,0.813,0.986
		c0.105,0.869,0.162,2.18-0.51,2.741c-10.71,8.937-39.673,14.033-53.447,2.661c-1.359-1.122-1.407-2.813-0.51-3.791
		c0.666-0.725,1.247-1.065,2.055-1.528C269.284,391.201,270.568,391.425,271.431,392.222L271.431,392.222z"/>
</g>
<path fill="#DBDADA" d="M225.935,166.442v4.843c0,11.579-5.122,17.903-20.333,17.903h-18.155c-0.246,0-0.446-0.201-0.446-0.446
	V148.66c0-0.246,0.201-0.446,0.446-0.446h18.161C220.571,148.213,225.935,154.729,225.935,166.442L225.935,166.442z
	 M356.902,147.506l-8.41,1.359c-0.218,0.035-0.375,0.221-0.375,0.441v32.292c0,6.916,6.238,9.053,13.637,7.268
	c0.297-0.072,0.594-0.138,0.89-0.198c0.238-0.049,0.394-0.28,0.35-0.519l-0.822-4.443c-0.029-0.156-0.169-0.193-0.282-0.193
	c-3.544,0-4.469,0.051-4.469-1.915v-33.651c0-0.135-0.054-0.252-0.157-0.34C357.16,147.519,357.036,147.485,356.902,147.506
	L356.902,147.506z M312.47,176.894v-7.122c0-6.917-4.669-10.68-14.745-10.361c-10.075,0.319-14.015,1.119-14.015,9.354v31.56
	c0,0.135,0.054,0.252,0.157,0.34c0.103,0.088,0.227,0.122,0.361,0.101l8.41-1.359c0.218-0.035,0.375-0.221,0.375-0.441v-6.259
	c0-1.23-0.861-2.199-0.789-3.998c2.685,0.848,5.79,1.143,9.413,1.056C305.817,189.664,312.47,187.503,312.47,176.894L312.47,176.894
	z M293.014,183.778v-15.011c0-2.939,0.17-3.764,4.843-3.764c4.673,0,5.31,2.759,5.31,4.77v8.481c0,4.507-1.51,6.178-5.48,6.159
	C295.68,184.402,294.636,184.085,293.014,183.778L293.014,183.778z M259.509,159.428l-8.41,1.359
	c-0.218,0.035-0.375,0.22-0.375,0.441v19.293c0,6.917,6.301,9.244,13.637,9.371c7.335,0.127,14.529-1.964,14.529-9.371v-20.653
	c0-0.135-0.054-0.252-0.157-0.34c-0.103-0.088-0.227-0.122-0.361-0.101l-8.41,1.359c-0.218,0.035-0.375,0.22-0.375,0.441v19.293
	c0,2.044-1.095,3.763-4.843,3.763s-4.716-1.752-4.716-3.763v-20.652c0-0.135-0.054-0.252-0.157-0.34
	C259.766,159.441,259.642,159.407,259.509,159.428L259.509,159.428z M324.196,178.996v2.819c0,2.766,5.072,2.73,7.838,2.725
	c1.5-0.002,2.103-0.568,2.103-2.103v-6.385c0-0.129-0.048-0.24-0.143-0.327c-0.094-0.088-0.208-0.128-0.337-0.118
	C330.368,175.851,324.196,175.965,324.196,178.996L324.196,178.996z M315.083,181.814v-2.819c0-6.836,11.358-7.878,18.647-8.534
	c0.231-0.021,0.407-0.213,0.407-0.445v-1.599c0-1.665-0.608-3.008-2.995-3.25c-4.198-0.426-6.727,0.173-12.455,1.437
	c-0.234,0.052-0.466-0.09-0.528-0.321l-1.06-3.975c-0.06-0.223,0.06-0.454,0.276-0.534c3.526-1.307,8.195-2.496,13.384-2.215
	c5.062,0.275,12.362-0.082,12.362,8.858v14.019c0,6.112-4.378,7.195-13.932,7.303C321.951,189.823,315.083,187.236,315.083,181.814
	L315.083,181.814z M239.663,189.064h-8.419c-0.246,0-0.446-0.201-0.446-0.446v-25.314c0-0.083,0.019-0.154,0.062-0.226
	c1.294-2.2,9.135-3.317,16.684-3.206c0.244,0.004,0.44,0.203,0.44,0.446v5.015c0,0.127-0.047,0.237-0.139,0.324
	c-0.092,0.087-0.204,0.129-0.331,0.122c-4.468-0.238-7.091,0.25-7.383,1.218c-0.013,0.044-0.019,0.083-0.019,0.129v21.491
	C240.11,188.863,239.909,189.064,239.663,189.064L239.663,189.064z M215.803,171.285v-4.843c0-8.955-2.898-11.534-10.196-11.534
	h-8.475v27.908h8.469C214.174,182.816,215.803,178.456,215.803,171.285L215.803,171.285z"/>
</svg>
