<?xml version="1.0" encoding="utf-8"?>
<!-- Generator: Adobe Illustrator 17.0.0, SVG Export Plug-In . SVG Version: 6.00 Build 0)  -->
<!DOCTYPE svg PUBLIC "-//W3C//DTD SVG 1.1//EN" "http://www.w3.org/Graphics/SVG/1.1/DTD/svg11.dtd">
<svg version="1.1" id="Layer_1" xmlns="http://www.w3.org/2000/svg" xmlns:xlink="http://www.w3.org/1999/xlink" x="0px" y="0px"
	 width="176px" height="265px" viewBox="187 147.5 176 265" enable-background="new 187 147.5 176 265" xml:space="preserve">
<path fill="#DADADA" d="M290.942,218.932c-3.124-0.551-6.287-0.878-9.432-1.31c-3.981,0-7.961,0-11.942,0
	c-4.249,0.659-8.537,1.129-12.74,2.008c-34.168,7.145-61.25,34.859-67.679,69.203c-0.644,3.443-1.061,6.928-1.584,10.393
	c0,4.113,0,8.227,0,12.34c0.627,3.983,0.982,8.031,1.924,11.939c8.361,34.688,29.691,57.414,64.049,66.789
	c48.435,13.216,98.485-18.341,108.305-67.525C371.507,274.37,339.51,227.493,290.942,218.932z M305.586,322.097
	c-3.624,14.719-7.331,29.417-11.028,44.117c-0.06,0.238-0.184,0.46-0.35,0.865c-27.521-27.788-54.924-55.458-82.333-83.134
	c2.106-0.531,4.694-1.189,7.284-1.835c12.129-3.027,24.266-6.027,36.381-9.108c1.329-0.338,2.238-0.175,3.193,0.803
	c2.443,2.504,4.967,4.929,7.901,7.821c-11.463,2.88-22.271,5.596-33.362,8.382c0.546,0.714,0.814,1.159,1.17,1.516
	c5.433,5.448,10.911,10.85,16.294,16.347c1.242,1.268,2.43,1.433,4.066,1.012c5.766-1.483,11.564-2.84,17.352-4.234
	c0.564-0.136,1.146-0.196,2.021-0.341c-1.148,4.542-2.234,8.877-3.34,13.206c-0.557,2.18-1.264,4.33-1.667,6.537
	c-0.152,0.834,0.067,2.077,0.62,2.644c5.6,5.747,11.302,11.396,16.987,17.06c0.308,0.307,0.723,0.505,1.426,0.985
	c2.776-11.053,5.49-21.856,8.269-32.922c0.588,0.43,1.028,0.676,1.373,1.016c2.359,2.331,4.743,4.639,7.008,7.058
	C305.344,320.416,305.746,321.447,305.586,322.097z M310.705,303.07c-3.296-3.27-6.374-6.244-9.32-9.343
	c-0.389-0.409-0.278-1.493-0.113-2.197c1.287-5.477,2.646-10.936,3.977-16.402c0.169-0.693,0.302-1.396,0.525-2.437
	c-3.812,0.852-7.401,1.65-10.987,2.456c-2.906,0.653-5.804,1.344-8.72,1.948c-0.51,0.105-1.284,0.067-1.608-0.246
	c-2.994-2.891-5.915-5.856-9.096-9.039c15.764-3.939,31.212-7.799,47.128-11.776C318.535,271.823,314.663,287.275,310.705,303.07z"
	/>
<g>
	<path fill="#DADADA" d="M220.234,192.043h-12.34v7.961h13.783v6.22H200.28v-33.537h20.7v6.22h-13.087v6.966h12.34V192.043z"/>
	<path fill="#DADADA" d="M226.603,189.654c0-3.035-0.1-5.623-0.199-7.762h6.369l0.348,3.284h0.149
		c1.045-1.543,3.185-3.831,7.364-3.831c3.135,0,5.623,1.592,6.668,4.13h0.1c0.896-1.244,1.99-2.239,3.135-2.936
		c1.343-0.796,2.836-1.194,4.628-1.194c4.677,0,8.21,3.284,8.21,10.549v14.331h-7.364v-13.236c0-3.533-1.144-5.573-3.583-5.573
		c-1.742,0-2.986,1.194-3.483,2.637c-0.199,0.547-0.299,1.343-0.299,1.941v14.231h-7.364V192.59c0-3.085-1.095-5.175-3.483-5.175
		c-1.941,0-3.085,1.493-3.533,2.737c-0.249,0.597-0.299,1.294-0.299,1.891v14.181h-7.364V189.654z"/>
	<path fill="#DADADA" d="M269.394,189.654c0-3.035-0.1-5.623-0.199-7.762h6.369l0.348,3.284h0.149
		c1.045-1.543,3.185-3.831,7.365-3.831c3.135,0,5.623,1.592,6.668,4.13h0.1c0.896-1.244,1.99-2.239,3.135-2.936
		c1.343-0.796,2.836-1.194,4.628-1.194c4.677,0,8.21,3.284,8.21,10.549v14.331h-7.364v-13.236c0-3.533-1.144-5.573-3.583-5.573
		c-1.742,0-2.986,1.194-3.483,2.637c-0.199,0.547-0.299,1.343-0.299,1.941v14.231h-7.364V192.59c0-3.085-1.095-5.175-3.483-5.175
		c-1.941,0-3.085,1.493-3.533,2.737c-0.249,0.597-0.299,1.294-0.299,1.891v14.181h-7.364V189.654z"/>
	<path fill="#DADADA" d="M318.008,196.471c0.249,3.135,3.334,4.628,6.867,4.628c2.587,0,4.677-0.348,6.717-0.995l0.995,5.125
		c-2.488,0.995-5.523,1.493-8.807,1.493c-8.26,0-12.987-4.777-12.987-12.39c0-6.17,3.831-12.987,12.29-12.987
		c7.862,0,10.847,6.12,10.847,12.141c0,1.294-0.149,2.438-0.249,2.986H318.008z M326.915,191.296c0-1.841-0.796-4.926-4.279-4.926
		c-3.185,0-4.478,2.886-4.677,4.926H326.915z"/>
	<path fill="#DADADA" d="M346.918,174.926v6.966h5.424v5.573h-5.424v8.807c0,2.936,0.697,4.279,2.986,4.279
		c0.945,0,1.692-0.1,2.239-0.199l0.05,5.722c-0.995,0.398-2.786,0.647-4.926,0.647c-2.438,0-4.478-0.846-5.673-2.09
		c-1.393-1.443-2.09-3.782-2.09-7.215v-9.952h-3.234v-5.573h3.234v-5.274L346.918,174.926z"/>
</g>
</svg>
