<?xml version="1.0" encoding="utf-8"?>
<!-- Generator: Adobe Illustrator 17.0.0, SVG Export Plug-In . SVG Version: 6.00 Build 0)  -->
<!DOCTYPE svg PUBLIC "-//W3C//DTD SVG 1.1//EN" "http://www.w3.org/Graphics/SVG/1.1/DTD/svg11.dtd">
<svg version="1.1" id="Layer_1" xmlns="http://www.w3.org/2000/svg" xmlns:xlink="http://www.w3.org/1999/xlink" x="0px" y="0px"
	 width="176px" height="265px" viewBox="0 0 176 265" enable-background="new 0 0 176 265" xml:space="preserve">
<g>
	<g id="Guides_to_delete">
		<g>
			<polygon fill="#DADADA" points="36.881,226.655 25.5,98.995 150.5,98.995 139.105,226.665 87.969,240.84 			"/>
			<polygon fill="#EFEFEF" points="88,109.429 88,229.996 129.349,218.535 139.092,109.429 			"/>
			<polygon fill="#22313F" points="48.785,125.088 53.006,172.437 107.274,172.437 105.453,192.745 87.98,197.469 70.54,192.752 
				69.373,179.712 53.657,179.712 55.905,204.849 87.976,213.757 120.088,204.849 124.393,156.782 67.326,156.782 65.893,140.747 
				125.764,140.747 125.813,140.747 127.215,125.088 			"/>
			<g>
				<polygon fill="#22313F" points="88,125.088 48.785,125.088 53.006,172.437 88,172.437 88,156.782 67.326,156.782 
					65.893,140.747 88,140.747 				"/>
				<polygon fill="#22313F" points="88,197.462 87.98,197.469 70.54,192.752 69.373,179.712 53.657,179.712 55.905,204.849 
					87.976,213.757 88,213.75 				"/>
			</g>
		</g>
	</g>
	<g>
		<path fill="#DADADA" d="M10.772,24.16v18.234h17.671V24.16h10.701v47.451H28.443V51.758H10.772v19.853H0V24.16H10.772z"/>
		<path fill="#DADADA" d="M57.658,33.171H44.916V24.16h36.468v9.011H68.43V71.61H57.658V33.171L57.658,33.171z"/>
		<path fill="#DADADA" d="M126.931,53.447c-0.211-5.702-0.422-12.602-0.422-19.501h-0.211c-1.478,6.055-3.45,12.813-5.28,18.375
			l-5.773,18.516h-8.377l-5.069-18.375c-1.549-5.562-3.168-12.32-4.294-18.516h-0.141c-0.282,6.407-0.492,13.728-0.845,19.642
			l-0.845,18.023h-9.927l3.028-47.451h14.292L107.713,40c1.478,5.491,2.956,11.405,4.012,16.967h0.211
			c1.337-5.491,2.957-11.757,4.506-17.037l5.069-15.77h14.01l2.605,47.451h-10.49L126.931,53.447z"/>
		<path fill="#DADADA" d="M146.361,24.16h10.772v38.439H176v9.011h-29.639V24.16z"/>
	</g>
</g>
</svg>
