<?xml version="1.0" encoding="utf-8"?>
<!-- Generator: Adobe Illustrator 17.0.0, SVG Export Plug-In . SVG Version: 6.00 Build 0)  -->
<!DOCTYPE svg PUBLIC "-//W3C//DTD SVG 1.1//EN" "http://www.w3.org/Graphics/SVG/1.1/DTD/svg11.dtd">
<svg version="1.1" id="Layer_1" xmlns="http://www.w3.org/2000/svg" xmlns:xlink="http://www.w3.org/1999/xlink" x="0px" y="0px"
	 width="176px" height="265px" viewBox="0 0 176 265" enable-background="new 0 0 176 265" xml:space="preserve">
<g id="Logotipo">
</g>
<g id="Isotipo">
	<g>
		<path fill="#DBDADA" d="M3.319,131.951l0.142-0.46c-0.079,0,0.623-1.079,0.544-1.079c-5.139,4.974-4.693,11.633-2.222,16.419
			c1.723,3.339,4.878,6.464,8.629,8.149c1.737,0.779,4.398,1.495,7.191,1.438c5.973-0.125,10.161-2.948,12.524-7.55l0.139-0.36
			c-2.085,2.102-5.484,3.562-8.15,3.835C11.025,153.48-0.385,143.545,3.319,131.951z"/>
		<path fill="#DBDADA" d="M18.041,133.648c1.465,2.356,4.262,4.427,8.629,3.497c1.103-0.235,3.601-2.114,4.034-3.109
			c-3.744,2.548-6.067,1.695-7.167,1.371c-0.242-0.069-0.803-0.321-1.325-0.635c-1.16-0.698-1.733-1.017-2.637-2.33
			c-0.496-0.722-0.992-1.868-1.155-2.524c-0.269-1.086-0.194-2.756,0.316-4.195c-1.695,1.512-1.956,4.434-1.388,6.366
			C17.42,132.334,17.823,133.296,18.041,133.648z"/>
		<path fill="#DBDADA" d="M19.239,146.112c5.863,0.784,10.235-1.68,11.745-5.513c-1.726,1.831-4.641,3.135-7.43,3.116
			c-6.239-0.041-13.25-5.63-12.464-13.423c0.067-0.671,0.336-1.724,1.054-3.087c-2.069,2.608-3.324,4.758-2.972,8.361
			C9.654,140.515,14.331,145.455,19.239,146.112z"/>
	</g>
	<g>
		<path fill="#DBDADA" d="M168.61,125.457l-10.588,14.662l-0.958-3.835h-6.951c0,0,0.69,3.49,1.198,5.273
			c0.504,1.762,1.4,3.516,1.438,5.273c0.044,2.01-1.009,5.786-1.009,5.786l6.762-0.033c0,0,0.728-3.622,1.438-5.273
			c0.28-0.657,0.834-1.186,1.198-1.678c1.122-1.517,14.861-20.135,14.861-20.135L168.61,125.457z"/>
		<path fill="#DBDADA" d="M154.617,129.384c-1.486-0.894-5.02-0.508-8.042-0.508h-4.681c-2.932,0-4.667-0.194-4.964,0.937
			c-0.916,3.495-4.794,22.771-4.794,22.771h6.232l4.074-17.737h3.356c3.883,0,11.018-0.105,11.018-0.105
			S155.981,130.206,154.617,129.384z"/>
		<path fill="#DBDADA" d="M130.757,131.27c-1.306-1.821-3.98-2.454-5.753-2.637c-4.705-0.482-8.621,0.777-10.786,2.397
			c-0.654,0.489-1.199,0.882-1.678,1.438c-0.172,0.201-0.36,0.427-0.52,0.659c-0.139,0.197-0.305,0.331-0.439,0.539
			c-0.199,0.302-0.41,0.873-0.659,1.378c-0.199,0.405-0.389,0.882-0.539,1.258c-1.299,3.245-2.625,9.303-1.438,12.464
			c0.175,0.468,0.566,1.059,0.7,1.239c0.168,0.225,0.321,0.487,0.498,0.678c0.65,0.7,1.611,1.194,2.637,1.438
			c5.194,1.239,15.58,0.719,15.58,0.719l1.273-5.637c0,0-7.35,0.331-10.861-0.115c-0.525-0.067-1.987-0.142-2.737-0.798
			c-0.652-0.571-1.422-1.92-0.858-2.797c0.4-0.626,2.01-0.439,3.355-0.48c4.326-0.132,12.224,0,12.224,0s1.513-6.726,0.719-9.588
			C131.28,132.723,131.108,131.756,130.757,131.27z M125.604,138.022l-9.288-0.06c0,0-0.105-4.013,5.31-3.842
			c1.917,0.06,2.591,0.321,3.32,1.445C125.798,136.884,125.604,138.022,125.604,138.022z"/>
		<path fill="#DBDADA" d="M102.893,128.854l-4.314,17.977c0,0-2.387,0.017-3.116,0c-2.301-0.053-3.056-0.13-3.595-1.199
			c-0.568-1.124-0.024-2.555,0.24-4.075c0.736-4.243,2.505-12.74,2.505-12.74l-6.261,0.058c0,0-1.192,5.458-1.757,8.128
			c-0.801,3.773-2.505,9.326-0.719,12.704c1.841,3.478,6.167,2.876,11.026,2.876h6.952c1.716-7.79,5.083-23.766,5.083-23.766
			L102.893,128.854z"/>
		<path fill="#DBDADA" d="M82.998,131.491c-0.369-2.68-2.116-5.592-4.034-6.812c-0.079-0.048-0.422-0.322-0.52-0.379
			c-1.419-0.822-3.691-1.515-5.273-1.678c-8.157-0.836-13.023,2.788-15.82,7.67c-1.1,1.918-1.829,4.013-2.397,6.232
			c-0.628,2.459-1.079,5.441-0.719,8.149c0.216,1.623,1.107,3.929,2.397,5.273c3.176,3.31,9.403,2.876,16.059,2.876
			c2.04,0,6.932-0.041,8.408-0.079c0.477-0.014,1.846-5.585,1.723-5.765c-0.117-0.139-1.747,0.055-3.607-0.113
			C81.04,142.049,83.689,136.51,82.998,131.491z M74.609,140.359c-0.604,2.141-1.199,4.305-1.918,6.232
			c-4.844-0.028-9.344,0.633-10.786-2.397c-0.815-1.714-0.448-4.034,0-6.232c0.602-2.96,1.177-5.111,2.876-6.952
			c1.313-1.421,4.619-3.164,8.15-1.917c1.172,0.415,2.989,2.388,3.116,4.554C76.165,135.673,75.242,138.111,74.609,140.359z"/>
		<path fill="#DBDADA" d="M45.606,134.607h6.712c0.424-1.812,0.827-3.89,1.229-5.724c-2.359,0-4.355-0.029-6.503-0.029
			C46.524,130.601,46.126,132.598,45.606,134.607z"/>
		<path fill="#DBDADA" d="M42.729,147.31c-0.99,4.655-1.119,9.487-6.232,8.869c-0.489,1.798-1.11,4.207-1.659,6.213
			c2.097,0.043,4.027,0.204,5.734,0.019c1.05-0.115,2.946-0.568,3.356-0.959c0.166-0.158,0.281-0.084,0.48-0.24
			c2.224-1.737,2.773-4.139,3.595-7.43c1.313-5.259,2.989-12.814,3.835-17.498h-6.472C45.038,137.363,43.302,144.621,42.729,147.31z
			"/>
	</g>
</g>
</svg>
