<?xml version="1.0" encoding="utf-8"?>
<!-- Generator: Adobe Illustrator 17.0.0, SVG Export Plug-In . SVG Version: 6.00 Build 0)  -->
<!DOCTYPE svg PUBLIC "-//W3C//DTD SVG 1.1//EN" "http://www.w3.org/Graphics/SVG/1.1/DTD/svg11.dtd">
<svg version="1.1" id="Layer_1" xmlns="http://www.w3.org/2000/svg" xmlns:xlink="http://www.w3.org/1999/xlink" x="0px" y="0px"
	 width="176px" height="265px" viewBox="0 0 176 265" enable-background="new 0 0 176 265" xml:space="preserve">
<g id="code_x5F_html5">
</g>
<g id="Layer_2">
</g>
<g>
	<path fill="#DBDADA" d="M8.202,38.267h5.823v16.319c0,7.355-3.524,9.922-9.194,9.922c-1.341,0-3.103-0.23-4.252-0.613l0.651-4.712
		c0.805,0.268,1.839,0.459,2.988,0.459c2.452,0,3.984-1.111,3.984-5.133C8.202,54.51,8.202,38.267,8.202,38.267z"/>
	<path fill="#DBDADA" d="M29.157,64.087l-0.345-1.877h-0.115c-1.226,1.494-3.141,2.298-5.363,2.298
		c-3.793,0-6.053-2.758-6.053-5.746c0-4.865,4.367-7.202,10.995-7.164V51.33c0-0.996-0.536-2.413-3.41-2.413
		c-1.915,0-3.946,0.651-5.171,1.417l-1.073-3.754c1.302-0.728,3.869-1.647,7.279-1.647c6.244,0,8.236,3.678,8.236,8.083v6.512
		c0,1.8,0.076,3.524,0.268,4.559L29.157,64.087L29.157,64.087z M28.467,55.238c-3.064-0.038-5.44,0.69-5.44,2.95
		c0,1.494,0.996,2.222,2.298,2.222c1.456,0,2.643-0.958,3.026-2.145c0.077-0.306,0.115-0.651,0.115-0.996L28.467,55.238
		L28.467,55.238z"/>
	<path fill="#DBDADA" d="M42.604,45.354l2.529,8.696c0.46,1.571,0.804,3.065,1.072,4.559h0.115c0.306-1.532,0.613-2.95,1.034-4.559
		l2.414-8.696h6.129l-6.972,18.733h-5.823l-6.819-18.733H42.604z"/>
	<path fill="#DBDADA" d="M68.961,64.087l-0.345-1.877h-0.115c-1.226,1.494-3.141,2.298-5.363,2.298
		c-3.793,0-6.053-2.758-6.053-5.746c0-4.865,4.367-7.202,10.995-7.164V51.33c0-0.996-0.536-2.413-3.41-2.413
		c-1.915,0-3.946,0.651-5.171,1.417l-1.073-3.754c1.302-0.728,3.869-1.647,7.279-1.647c6.244,0,8.236,3.678,8.236,8.083v6.512
		c0,1.8,0.076,3.524,0.268,4.559L68.961,64.087L68.961,64.087z M68.272,55.238c-3.064-0.038-5.44,0.69-5.44,2.95
		c0,1.494,0.996,2.222,2.298,2.222c1.456,0,2.643-0.958,3.026-2.145c0.077-0.306,0.115-0.651,0.115-0.996L68.272,55.238
		L68.272,55.238z"/>
	<path fill="#DBDADA" d="M78.922,58.073c1.571,0.805,3.984,1.609,6.474,1.609c2.682,0,4.099-1.111,4.099-2.797
		c0-1.609-1.226-2.528-4.329-3.639c-4.291-1.494-7.087-3.869-7.087-7.623c0-4.405,3.677-7.776,9.768-7.776
		c2.911,0,5.057,0.613,6.589,1.302l-1.302,4.712c-1.034-0.498-2.873-1.226-5.402-1.226s-3.754,1.149-3.754,2.49
		c0,1.647,1.456,2.375,4.789,3.639c4.559,1.686,6.704,4.06,6.704,7.7c0,4.329-3.333,8.006-10.42,8.006
		c-2.95,0-5.861-0.766-7.317-1.571L78.922,58.073z"/>
	<path fill="#DBDADA" d="M113.553,63.627c-1.034,0.459-2.988,0.843-5.21,0.843c-6.052,0-9.922-3.678-9.922-9.577
		c0-5.478,3.754-9.96,10.726-9.96c1.532,0,3.217,0.268,4.444,0.728l-0.92,4.329c-0.689-0.306-1.724-0.575-3.256-0.575
		c-3.064,0-5.057,2.183-5.018,5.248c0,3.448,2.299,5.248,5.133,5.248c1.379,0,2.452-0.23,3.333-0.575L113.553,63.627z"/>
	<path fill="#DBDADA" d="M116.771,51.522c0-2.758-0.076-4.559-0.153-6.168h5.018l0.192,3.448h0.153
		c0.958-2.72,3.256-3.869,5.057-3.869c0.536,0,0.804,0,1.226,0.077v5.478c-0.421-0.076-0.919-0.153-1.571-0.153
		c-2.145,0-3.601,1.149-3.984,2.95c-0.076,0.383-0.115,0.843-0.115,1.302v9.5h-5.823V51.522L116.771,51.522z"/>
	<path fill="#DBDADA" d="M137.343,40.796c0,1.609-1.226,2.911-3.141,2.911c-1.839,0-3.064-1.302-3.026-2.911
		c-0.038-1.686,1.187-2.95,3.064-2.95C136.117,37.846,137.305,39.11,137.343,40.796z"/>
	<rect x="131.329" y="45.354" fill="#DBDADA" width="5.823" height="18.733"/>
	<path fill="#DBDADA" d="M141.825,51.637c0-2.452-0.076-4.559-0.153-6.283h5.056l0.268,2.605h0.076
		c1.379-1.992,3.524-3.026,6.244-3.026c4.099,0,7.776,3.563,7.776,9.539c0,6.819-4.329,10.037-8.504,10.037
		c-2.26,0-4.022-0.919-4.865-2.145h-0.077v9.309h-5.823V51.637H141.825z M147.648,56.042c0,0.46,0.038,0.881,0.115,1.226
		c0.383,1.571,1.724,2.758,3.41,2.758c2.529,0,4.022-2.107,4.022-5.287c0-2.988-1.341-5.248-3.946-5.248
		c-1.647,0-3.103,1.226-3.486,2.95c-0.076,0.306-0.115,0.69-0.115,1.034V56.042z"/>
	<path fill="#DBDADA" d="M171.246,39.991v5.363h4.175v4.291h-4.175v6.78c0,2.26,0.536,3.294,2.298,3.294
		c0.728,0,1.302-0.077,1.724-0.153l0.038,4.405c-0.766,0.306-2.145,0.498-3.793,0.498c-1.877,0-3.448-0.651-4.367-1.609
		c-1.072-1.111-1.609-2.911-1.609-5.555v-7.662h-2.49v-4.291h2.49v-4.06L171.246,39.991z"/>
</g>
<g>
	<g>
		<polygon fill="#DBDADA" points="150.5,96.685 88,96.685 88,96.685 25.5,96.685 37.213,223.755 88,238.154 88,238.154 88,238.154 
			88,238.154 88,238.154 138.769,223.755 		"/>
		<polygon fill="#EFEFEF" points="88,107.036 88,227.393 88,227.393 129.126,215.735 139.141,107.036 		"/>
	</g>
	<polygon fill="#22313F" points="83.314,117.069 83.314,205.97 44.709,194.499 44.709,179.277 70.299,186.336 70.299,117.069 	"/>
	<polygon fill="#22313F" points="134.123,117.069 91.989,117.069 91.989,174.645 118.323,169.571 117.826,182.393 91.989,189.425 
		91.989,205.308 128.084,195.712 131.228,152.282 104.921,155.673 104.921,132.262 132.882,132.262 	"/>
</g>
</svg>
