<?xml version="1.0" encoding="utf-8"?>
<!-- Generator: Adobe Illustrator 17.0.0, SVG Export Plug-In . SVG Version: 6.00 Build 0)  -->
<!DOCTYPE svg PUBLIC "-//W3C//DTD SVG 1.1//EN" "http://www.w3.org/Graphics/SVG/1.1/DTD/svg11.dtd">
<svg version="1.1" id="Layer_1" xmlns="http://www.w3.org/2000/svg" xmlns:xlink="http://www.w3.org/1999/xlink" x="0px" y="0px"
	 width="176px" height="265px" viewBox="0 0 176 265" enable-background="new 0 0 176 265" xml:space="preserve">
<g>
	<g id="Layer_2">
	</g>
	<g id="Layer_2_copy_2">
	</g>
	<path fill="#DADADA" d="M13.749,160.511c-3.235,0-5.907-0.682-8.014-2.044c-2.107-1.362-4.019-3.356-5.734-5.985l8.308-6.16
		c0.636,1.128,1.335,2.107,2.095,2.94c0.759,0.834,1.849,1.25,3.271,1.25c0.686,0,1.25-0.171,1.691-0.515
		c0.441-0.344,0.783-0.773,1.029-1.289c0.245-0.516,0.416-1.081,0.515-1.694c0.097-0.613,0.147-1.19,0.147-1.731v-40.132h11.689
		v39.553c0,5.293-1.348,9.263-4.043,11.909C22.056,159.211,18.405,160.511,13.749,160.511z"/>
	<path fill="#DADADA" d="M56.462,160.584c-3.97,0-7.842-1.055-11.616-3.161c-2.01-1.078-3.749-2.462-5.22-4.154
		c-1.47-1.691-2.769-3.859-3.896-6.506l9.778-4.264c0.588,1.275,1.224,2.439,1.911,3.492c0.686,1.055,1.471,1.947,2.353,2.683
		c0.882,0.736,1.899,1.312,3.051,1.728c1.151,0.417,2.463,0.625,3.933,0.625c1.03,0,2.033-0.098,3.015-0.294
		c0.979-0.196,1.849-0.527,2.61-0.993c0.759-0.465,1.36-1.102,1.801-1.911c0.441-0.809,0.662-1.826,0.662-3.051
		c0-1.813-0.932-3.333-2.794-4.559c-2.059-1.371-4.534-2.598-7.425-3.675c-5.686-2.157-9.925-4.386-12.719-6.691
		c-2.94-2.499-4.411-5.955-4.411-10.365c0-4.362,1.715-7.964,5.147-10.808c3.43-2.842,7.719-4.264,12.865-4.264
		c4.312,0,8.185,1.055,11.616,3.161c1.715,1.029,3.235,2.352,4.559,3.97c1.323,1.618,2.524,3.676,3.602,6.176l-10.808,3.308
		c-0.882-2.106-1.998-3.81-3.345-5.109c-1.349-1.298-3.248-1.949-5.698-1.949c-0.785,0-1.581,0.086-2.39,0.258
		c-0.809,0.172-1.544,0.441-2.205,0.809c-0.662,0.368-1.201,0.882-1.618,1.544c-0.417,0.661-0.625,1.458-0.625,2.389
		c0,0.735,0.233,1.447,0.699,2.133c0.465,0.687,1.261,1.348,2.39,1.985c2.353,1.324,4.999,2.499,7.94,3.529
		c4.165,1.422,7.891,3.407,11.175,5.955c3.48,2.599,5.22,6.372,5.22,11.322c0,5.342-1.716,9.483-5.146,12.425
		C67.44,159.161,62.638,160.584,56.462,160.584z"/>
	<path fill="#DADADA" d="M103.549,160.584c-4.257,0-7.853-0.748-10.789-2.242c-2.937-1.495-5.322-3.53-7.157-6.103
		c-1.835-2.573-3.157-5.562-3.964-8.969c-0.808-3.406-1.211-6.995-1.211-10.77c0-3.774,0.403-7.363,1.211-10.771
		c0.808-3.406,2.129-6.396,3.964-8.969s4.22-4.607,7.157-6.102c2.936-1.494,6.533-2.242,10.789-2.242
		c4.258,0,7.841,0.748,10.753,2.242c2.911,1.496,5.285,3.529,7.12,6.102c1.834,2.573,3.156,5.563,3.963,8.969
		c0.808,3.407,1.212,6.996,1.212,10.771c0,8.871-1.958,15.733-5.872,20.585C116.761,158.085,111.036,160.584,103.549,160.584z
		 M103.549,114.414c-3.983,0-6.86,1.483-8.629,4.447c-1.869,3.065-2.802,7.61-2.802,13.639c0,6.028,0.933,10.575,2.802,13.639
		c1.769,2.965,4.646,4.447,8.629,4.447c3.934,0,6.786-1.482,8.556-4.447c1.868-3.064,2.804-7.61,2.804-13.639
		c0-6.029-0.936-10.574-2.804-13.639C110.335,115.898,107.483,114.414,103.549,114.414z"/>
	<path fill="#DADADA" d="M144.388,123.972v35.877h-11.175v-54.698h11.837l19.776,34.259v-34.259H176v54.697h-10.954L144.388,123.972
		z"/>
</g>
</svg>
