<?xml version="1.0" encoding="utf-8"?>
<!-- Generator: Adobe Illustrator 17.0.0, SVG Export Plug-In . SVG Version: 6.00 Build 0)  -->
<!DOCTYPE svg PUBLIC "-//W3C//DTD SVG 1.1//EN" "http://www.w3.org/Graphics/SVG/1.1/DTD/svg11.dtd">
<svg version="1.1" id="Layer_1" xmlns="http://www.w3.org/2000/svg" xmlns:xlink="http://www.w3.org/1999/xlink" x="0px" y="0px"
	 width="176px" height="265px" viewBox="187 147.5 176 265" enable-background="new 187 147.5 176 265" xml:space="preserve">
<g>
	<g>
		<g>
			<path id="SVGID_1_" fill="#AAAAAA" d="M275,326.291c48.6,0,88-20.726,88-46.292c0-25.565-39.4-46.291-88-46.291
				S187,254.434,187,280C187,305.566,226.4,326.291,275,326.291L275,326.291z"/>
		</g>
	</g>
	<path fill="#DBDADA" d="M275,322.855c46.702,0,84.562-19.187,84.562-42.854c0-23.667-37.86-42.854-84.562-42.854
		S190.438,256.333,190.438,280C190.438,303.668,228.298,322.855,275,322.855L275,322.855z"/>
	<path fill="#DBDADA" d="M245.648,276.014c-0.63,3.236-1.817,5.544-3.527,6.862c-1.738,1.339-4.519,2.017-8.264,2.017h-4.479
		l3.239-16.666h5.791c4.254,0,5.968,0.909,6.656,1.672C246.016,270.957,246.219,273.072,245.648,276.014L245.648,276.014z"/>
	<path fill="#DBDADA" d="M324.524,276.014c-0.63,3.236-1.817,5.544-3.527,6.862c-1.738,1.339-4.519,2.017-8.265,2.017h-4.479
		l3.239-16.666h5.791c4.254,0,5.968,0.909,6.657,1.672C324.893,270.957,325.095,273.072,324.524,276.014L324.524,276.014z"/>
	<path fill="#22313F" d="M238.406,266.853c3.839,0,6.398,0.708,7.677,2.126c1.278,1.418,1.583,3.851,0.914,7.298
		c-0.699,3.59-2.044,6.153-4.038,7.689c-1.994,1.535-5.029,2.303-9.104,2.303h-6.147l3.773-19.416H238.406L238.406,266.853z
		 M213.784,305.922h10.106l2.397-12.333h8.656c3.819,0,6.961-0.4,9.428-1.204c2.467-0.802,4.708-2.147,6.726-4.036
		c1.693-1.557,3.063-3.274,4.113-5.151c1.048-1.876,1.793-3.948,2.233-6.213c1.069-5.499,0.262-9.783-2.418-12.851
		c-2.68-3.069-6.945-4.603-12.791-4.603H222.8L213.784,305.922L213.784,305.922z"/>
	<path fill="#22313F" d="M264.864,247.198h10.026l-2.397,12.333h8.932c5.62,0,9.496,0.981,11.63,2.941
		c2.134,1.961,2.773,5.137,1.92,9.529l-4.195,21.587h-10.185l3.988-20.526c0.454-2.335,0.287-3.927-0.501-4.777
		c-0.788-0.849-2.466-1.274-5.031-1.274h-8.013l-5.165,26.577h-10.026L264.864,247.198L264.864,247.198z"/>
	<path fill="#22313F" d="M317.282,266.853c3.839,0,6.398,0.708,7.678,2.126c1.278,1.418,1.583,3.851,0.914,7.298
		c-0.699,3.59-2.044,6.153-4.039,7.689c-1.994,1.535-5.029,2.303-9.104,2.303h-6.147l3.773-19.416H317.282L317.282,266.853z
		 M292.66,305.922h10.106l2.397-12.333h8.656c3.819,0,6.961-0.4,9.428-1.204c2.467-0.802,4.708-2.147,6.726-4.036
		c1.693-1.557,3.063-3.274,4.113-5.151c1.048-1.876,1.793-3.948,2.233-6.213c1.069-5.499,0.262-9.783-2.418-12.851
		c-2.681-3.069-6.945-4.603-12.791-4.603h-19.433L292.66,305.922L292.66,305.922z"/>
</g>
</svg>
