<?xml version="1.0" encoding="utf-8"?>
<!-- Generator: Adobe Illustrator 17.0.0, SVG Export Plug-In . SVG Version: 6.00 Build 0)  -->
<!DOCTYPE svg PUBLIC "-//W3C//DTD SVG 1.1//EN" "http://www.w3.org/Graphics/SVG/1.1/DTD/svg11.dtd">
<svg version="1.1" id="Layer_1" xmlns="http://www.w3.org/2000/svg" xmlns:xlink="http://www.w3.org/1999/xlink" x="0px" y="0px"
	 width="176px" height="265px" viewBox="187 147.5 176 265" enable-background="new 187 147.5 176 265" xml:space="preserve">
<g>
	<path fill="#DBDADA" d="M338.468,265.86c-6.151,0.033-11.479,1.509-15.945,3.711c-1.633-3.26-3.287-6.128-3.564-8.26
		c-0.324-2.489-0.7-3.974-0.308-6.94c0.392-2.966,2.107-7.165,2.082-7.48c-0.025-0.315-0.385-1.825-3.933-1.851
		c-3.548-0.026-6.583,0.682-6.94,1.619c-0.357,0.937-1.04,3.045-1.465,5.244c-0.622,3.217-7.084,14.691-10.753,20.693
		c-1.2-2.343-2.22-4.409-2.433-6.042c-0.324-2.489-0.7-3.975-0.308-6.94c0.392-2.965,2.107-7.165,2.082-7.48
		c-0.025-0.315-0.385-1.825-3.933-1.851c-3.548-0.026-6.583,0.682-6.94,1.619c-0.357,0.937-0.739,3.126-1.465,5.244
		c-0.727,2.118-9.317,21.257-11.567,26.219c-1.146,2.528-2.144,4.558-2.848,5.945c-0.002-0.004-0.005-0.008-0.005-0.008
		s-0.043,0.092-0.118,0.248c-0.603,1.18-0.962,1.834-0.962,1.834s0.004,0.009,0.011,0.024c-0.478,0.867-0.991,1.672-1.244,1.672
		c-0.177,0-0.533-2.308,0.077-5.475c1.278-6.639,4.349-16.994,4.318-17.35c-0.016-0.183,0.571-1.987-2.005-2.93
		c-2.504-0.916-3.396,0.612-3.624,0.617c-0.221,0.005-0.386,0.54-0.386,0.54s2.79-11.644-5.321-11.644
		c-5.07,0-12.096,5.547-15.557,10.574c-2.184,1.191-6.858,3.743-11.817,6.467c-1.905,1.046-3.848,2.116-5.691,3.131
		c-0.125-0.139-0.25-0.278-0.379-0.415c-9.834-10.492-28.014-17.913-27.243-32.018c0.281-5.128,2.063-18.63,34.932-35.009
		c26.925-13.417,48.48-9.725,52.206-1.542c5.321,11.69-11.52,33.417-39.482,36.551c-10.654,1.194-16.263-2.935-17.659-4.473
		c-1.469-1.619-1.688-1.692-2.236-1.388c-0.894,0.495-0.327,1.924,0,2.776c0.835,2.173,4.261,6.026,10.102,7.943
		c5.138,1.686,17.646,2.612,32.773-3.239c16.942-6.553,30.172-24.784,26.286-40.021c-3.952-15.498-29.649-20.593-53.969-11.952
		c-14.474,5.142-30.143,13.213-41.41,23.751c-13.395,12.53-15.532,23.435-14.652,27.992c3.128,16.191,25.444,26.734,34.38,34.548
		c-0.441,0.243-0.855,0.472-1.231,0.679c-4.48,2.216-21.491,11.118-25.746,20.525c-4.826,10.669,0.769,18.325,4.473,19.355
		c11.477,3.193,23.253-2.551,29.582-11.991c6.328-9.438,5.555-21.727,2.651-27.337c-0.036-0.07-0.076-0.138-0.113-0.207
		c1.157-0.685,2.337-1.381,3.506-2.068c2.28-1.339,4.518-2.588,6.461-3.645c-1.087,2.978-1.883,6.548-2.297,11.703
		c-0.486,6.057,1.995,13.885,5.244,16.965c1.43,1.356,3.151,1.388,4.241,1.388c3.779,0,5.504-3.144,7.403-6.863
		c2.329-4.561,4.395-9.87,4.395-9.87s-2.594,14.343,4.473,14.343c2.575,0,5.165-3.339,6.318-5.041
		c0.003,0.019,0.005,0.029,0.005,0.029s0.067-0.111,0.198-0.333c0.267-0.409,0.419-0.669,0.419-0.669s0.005-0.027,0.013-0.074
		c1.035-1.797,3.33-5.894,6.773-12.65c4.447-8.729,8.713-19.664,8.713-19.664s0.397,2.673,1.696,7.094
		c0.765,2.601,2.389,5.477,3.671,8.234c-1.032,1.431-1.666,2.254-1.666,2.254s0.006,0.015,0.017,0.043
		c-0.824,1.094-1.749,2.275-2.716,3.427c-3.51,4.181-7.691,8.955-8.251,10.333c-0.66,1.624-0.503,2.818,0.771,3.779
		c0.931,0.702,2.589,0.811,4.318,0.694c3.154-0.212,5.374-0.994,6.469-1.471c1.707-0.604,3.695-1.553,5.561-2.924
		c3.444-2.532,5.521-6.153,5.321-10.95c-0.111-2.644-0.954-5.264-2.02-7.738c0.313-0.449,0.626-0.903,0.94-1.362
		c5.429-7.936,9.639-16.656,9.639-16.656s0.397,2.673,1.697,7.094c0.658,2.238,1.955,4.679,3.122,7.073
		c-5.104,4.147-8.27,8.966-9.369,12.128c-2.032,5.847-0.441,8.496,2.545,9.099c1.352,0.273,3.262-0.346,4.699-0.955
		c1.788-0.593,3.936-1.58,5.943-3.055c3.444-2.532,6.754-6.076,6.555-10.873c-0.091-2.184-0.683-4.351-1.487-6.433
		c4.327-1.802,9.929-2.805,17.063-1.971c15.307,1.787,18.31,11.345,17.736,15.345c-0.574,4-3.785,6.199-4.858,6.863
		c-1.073,0.664-1.401,0.894-1.311,1.388c0.13,0.718,0.627,0.69,1.542,0.536c1.26-0.213,8.038-3.254,8.328-10.638
		C363.359,276.073,354.377,265.776,338.468,265.86z M220.483,305.637c-5.07,5.531-12.154,7.622-15.191,5.861
		c-3.28-1.902-1.981-10.045,4.241-15.914c3.792-3.577,8.688-6.872,11.936-8.901c0.739-0.445,1.825-1.098,3.145-1.889
		c0.219-0.125,0.342-0.194,0.342-0.194l-0.005-0.008c0.255-0.153,0.516-0.309,0.785-0.47
		C227.999,292.477,225.804,299.832,220.483,305.637z M257.42,280.527c-1.766,4.305-5.462,15.319-7.711,14.729
		c-1.931-0.507-3.107-8.879-0.386-17.119c1.37-4.147,4.296-9.104,6.015-11.027c2.767-3.096,5.814-4.108,6.555-2.853
		C262.836,265.855,258.527,277.828,257.42,280.527z M287.936,295.087c-0.749,0.392-1.435,0.637-1.754,0.448
		c-0.234-0.14,0.309-0.655,0.309-0.655s3.817-4.106,5.321-5.976c0.875-1.088,1.889-2.378,2.994-3.822
		c0.009,0.144,0.014,0.288,0.014,0.429C294.808,290.43,290.056,293.752,287.936,295.087z M311.445,289.728
		c-0.558-0.397-0.466-1.682,1.371-5.683c0.721-1.571,2.366-4.215,5.226-6.743c0.331,1.039,0.533,2.036,0.528,2.964
		C318.533,286.457,314.116,288.769,311.445,289.728z"/>
	<path fill="#DADADA" d="M226.209,328.033c-3.266,0.37-6.547,0.649-9.789,1.169c-4.811,0.771-9.555,1.875-14.163,3.497
		c-2.518,0.886-5.044,1.769-7.225,3.366c-6.326,4.63-9.088,12.683-6.967,20.253c2.258,8.062,9.642,13.676,18.026,13.647
		c5.861-0.02,10.716-2.275,14.525-6.742c1.826-2.141,2.859-4.701,3.789-7.308c3.027-8.486,4.471-17.284,5.158-26.23
		c0.049-0.635,0.072-1.272,0.11-1.96C228.467,327.831,227.335,327.906,226.209,328.033z M216.357,351.642
		c-1.862,0.214-3.726,0.402-5.592,0.578c-0.668,0.063-1.341,0.065-2.114,0.099c1.717,2.024,3.616,3.768,4.812,6.044
		c-0.072,0.079-0.143,0.159-0.215,0.238c-0.431-0.256-0.902-0.464-1.284-0.778c-1.392-1.143-2.755-2.322-4.128-3.489
		c-0.19-0.162-0.37-0.334-0.612-0.554c-0.254,2.901-0.107,5.752-0.949,8.488c-0.027,0.088-0.074,0.17-0.112,0.254
		c-0.066-0.018-0.132-0.036-0.198-0.054c-0.114-0.312-0.293-0.616-0.33-0.937c-0.214-1.88-0.403-3.763-0.581-5.647
		c-0.063-0.669-0.069-1.343-0.106-2.109c-2.025,1.699-3.76,3.612-6.044,4.803c-0.065-0.051-0.131-0.102-0.196-0.154
		c0.15-0.309,0.249-0.659,0.458-0.921c1.091-1.363,2.206-2.707,3.321-4.05c0.292-0.352,0.617-0.676,1.034-1.13
		c-0.614-0.03-1.111-0.036-1.604-0.081c-2.031-0.187-4.061-0.376-6.089-0.592c-0.346-0.037-0.678-0.21-1.016-0.321
		c-0.007-0.076-0.014-0.152-0.021-0.228c0.321-0.118,0.634-0.3,0.964-0.342c1.604-0.201,3.21-0.386,4.82-0.533
		c0.943-0.086,1.894-0.09,2.948-0.135c-1.738-2.012-3.626-3.782-4.86-6.048c0.064-0.075,0.128-0.15,0.191-0.226
		c0.354,0.186,0.75,0.321,1.056,0.567c1.261,1.013,2.499,2.055,3.737,3.097c0.418,0.352,0.809,0.735,1.305,1.19
		c0.035-0.648,0.046-1.188,0.095-1.725c0.185-2.031,0.371-4.061,0.584-6.089c0.032-0.31,0.205-0.606,0.313-0.909
		c0.064-0.009,0.128-0.019,0.191-0.028c0.104,0.228,0.274,0.449,0.303,0.686c0.226,1.84,0.451,3.682,0.619,5.528
		c0.073,0.797,0.012,1.606,0.012,2.409c0.061,0.017,0.123,0.034,0.184,0.05c0.158-0.139,0.313-0.28,0.473-0.417
		c1.441-1.229,2.872-2.469,4.33-3.676c0.352-0.291,0.794-0.472,1.194-0.703c0.06,0.055,0.121,0.11,0.181,0.165
		c-0.139,0.295-0.226,0.633-0.426,0.878c-1.293,1.578-2.61,3.136-3.921,4.699c-0.129,0.154-0.271,0.297-0.498,0.543
		c0.47,0.023,0.84,0.029,1.206,0.062c2.177,0.194,4.355,0.385,6.53,0.604c0.34,0.034,0.666,0.211,0.999,0.322
		c0.003,0.076,0.006,0.152,0.009,0.228C217.01,351.418,216.692,351.603,216.357,351.642z"/>
	<g>
		<path fill="#DBDADA" d="M250.458,358.003c-0.868,0.386-2.506,0.707-4.37,0.707c-5.077,0-8.322-3.085-8.322-8.033
			c0-4.595,3.149-8.354,8.997-8.354c1.285,0,2.699,0.225,3.727,0.61l-0.771,3.631c-0.578-0.257-1.446-0.482-2.731-0.482
			c-2.57,0-4.242,1.832-4.209,4.402c0,2.892,1.928,4.402,4.305,4.402c1.157,0,2.056-0.193,2.796-0.482L250.458,358.003z"/>
		<path fill="#DBDADA" d="M268.323,350.355c0,5.752-4.081,8.387-8.29,8.387c-4.595,0-8.129-3.02-8.129-8.097
			s3.342-8.322,8.387-8.322C265.11,342.322,268.323,345.632,268.323,350.355z M256.948,350.516c0,2.699,1.125,4.723,3.213,4.723
			c1.896,0,3.117-1.896,3.117-4.723c0-2.345-0.9-4.723-3.117-4.723C257.816,345.793,256.948,348.202,256.948,350.516z"/>
		<path fill="#DBDADA" d="M271.343,347.688c0-1.96-0.064-3.631-0.129-5.013h4.113l0.225,2.121h0.096
			c0.675-0.996,2.056-2.474,4.756-2.474c2.025,0,3.631,1.028,4.306,2.667h0.064c0.578-0.804,1.285-1.446,2.024-1.896
			c0.868-0.514,1.831-0.771,2.988-0.771c3.02,0,5.302,2.121,5.302,6.812v9.254h-4.756v-8.547c0-2.282-0.739-3.599-2.313-3.599
			c-1.125,0-1.928,0.771-2.249,1.703c-0.128,0.353-0.193,0.868-0.193,1.253v9.19h-4.756v-8.804c0-1.992-0.707-3.342-2.249-3.342
			c-1.253,0-1.992,0.964-2.282,1.767c-0.161,0.386-0.193,0.835-0.193,1.221v9.158h-4.755V347.688z"/>
		<path fill="#DBDADA" d="M298.974,347.945c0-2.056-0.064-3.824-0.129-5.27h4.242l0.225,2.185h0.064
			c1.157-1.671,2.956-2.538,5.238-2.538c3.438,0,6.523,2.988,6.523,8.001c0,5.72-3.631,8.418-7.133,8.418
			c-1.896,0-3.374-0.771-4.081-1.799h-0.064v7.808h-4.884L298.974,347.945L298.974,347.945z M303.858,351.641
			c0,0.386,0.032,0.739,0.096,1.028c0.321,1.317,1.446,2.313,2.86,2.313c2.121,0,3.374-1.767,3.374-4.434
			c0-2.506-1.125-4.402-3.31-4.402c-1.382,0-2.603,1.028-2.924,2.474c-0.064,0.257-0.096,0.579-0.096,0.868L303.858,351.641
			L303.858,351.641z"/>
		<path fill="#DBDADA" d="M327.12,358.388l-0.289-1.574h-0.096c-1.028,1.253-2.635,1.928-4.499,1.928
			c-3.181,0-5.077-2.313-5.077-4.82c0-4.081,3.663-6.041,9.222-6.009v-0.225c0-0.836-0.449-2.025-2.86-2.025
			c-1.607,0-3.31,0.546-4.338,1.189l-0.9-3.149c1.092-0.61,3.245-1.382,6.105-1.382c5.238,0,6.909,3.085,6.909,6.78v5.462
			c0,1.51,0.064,2.956,0.225,3.824H327.12z M326.541,350.966c-2.57-0.032-4.563,0.578-4.563,2.474c0,1.253,0.835,1.864,1.928,1.864
			c1.221,0,2.217-0.803,2.538-1.8c0.064-0.257,0.096-0.546,0.096-0.835V350.966L326.541,350.966z"/>
		<path fill="#DBDADA" d="M335.12,354.115c0.9,0.546,2.764,1.189,4.21,1.189c1.478,0,2.088-0.514,2.088-1.318
			s-0.482-1.189-2.313-1.799c-3.245-1.092-4.499-2.86-4.466-4.723c0-2.924,2.507-5.141,6.394-5.141c1.831,0,3.47,0.418,4.434,0.9
			l-0.868,3.374c-0.707-0.386-2.056-0.9-3.406-0.9c-1.189,0-1.864,0.482-1.864,1.285c0,0.739,0.61,1.125,2.538,1.8
			c2.988,1.028,4.241,2.538,4.274,4.852c0,2.924-2.314,5.077-6.812,5.077c-2.056,0-3.888-0.45-5.077-1.092L335.12,354.115z"/>
		<path fill="#DBDADA" d="M349.064,354.115c0.9,0.546,2.764,1.189,4.21,1.189c1.478,0,2.088-0.514,2.088-1.318
			s-0.482-1.189-2.313-1.799c-3.245-1.092-4.499-2.86-4.466-4.723c0-2.924,2.506-5.141,6.394-5.141c1.831,0,3.47,0.418,4.434,0.9
			l-0.868,3.374c-0.707-0.386-2.056-0.9-3.406-0.9c-1.189,0-1.864,0.482-1.864,1.285c0,0.739,0.61,1.125,2.538,1.8
			c2.988,1.028,4.241,2.538,4.274,4.852c0,2.924-2.314,5.077-6.812,5.077c-2.056,0-3.888-0.45-5.077-1.092L349.064,354.115z"/>
	</g>
	<g>
		<path fill="#DBDADA" d="M293.755,330.505c-0.45-0.482-0.9-0.964-1.414-1.542c-1.414,1.092-3.374,1.895-5.944,1.895
			c-5.238,0-7.551-3.117-7.551-6.137c0-2.86,1.639-4.916,4.113-6.202v-0.128c-0.932-1.028-1.639-2.635-1.639-4.177
			c0-2.731,2.153-5.719,6.491-5.719c3.342,0,5.88,1.96,5.88,5.077c0,2.185-1.285,4.049-4.274,5.559l-0.032,0.129
			c1.253,1.382,2.57,2.956,3.631,4.049c0.868-1.349,1.542-3.342,1.831-5.27h4.37c-0.578,3.278-1.671,6.073-3.599,8.226
			c1.221,1.382,2.474,2.796,3.823,4.242H293.755L293.755,330.505z M290.059,326.232c-1.349-1.349-3.117-3.31-4.884-5.302
			c-0.9,0.643-1.703,1.574-1.703,2.988c0,1.831,1.382,3.406,3.599,3.406C288.357,327.324,289.417,326.842,290.059,326.232z
			 M285.69,313.764c0,1.092,0.514,2.056,1.478,3.117c1.574-1.092,2.378-1.928,2.378-3.181c0-1.028-0.61-2.153-1.896-2.153
			C286.397,311.547,285.69,312.64,285.69,313.764z"/>
	</g>
</g>
</svg>
