<?xml version="1.0" encoding="utf-8"?>
<!-- Generator: Adobe Illustrator 17.0.0, SVG Export Plug-In . SVG Version: 6.00 Build 0)  -->
<!DOCTYPE svg PUBLIC "-//W3C//DTD SVG 1.1//EN" "http://www.w3.org/Graphics/SVG/1.1/DTD/svg11.dtd">
<svg version="1.1" id="Layer_1" xmlns="http://www.w3.org/2000/svg" xmlns:xlink="http://www.w3.org/1999/xlink" x="0px" y="0px"
	 width="176px" height="292.671px" viewBox="0 0 176 292.671" enable-background="new 0 0 176 292.671" xml:space="preserve">
<g>
	<path fill="#DADADA" d="M45.924,199.653h-7.371c-0.26-12.439-0.978-24.137-2.153-35.095h-0.064l-11.222,35.095h-5.611
		L8.349,164.558H8.283c-0.827,10.524-1.347,22.222-1.564,35.095h-6.72c0.434-15.656,1.521-30.334,3.261-44.034h9.134l10.633,32.356
		h0.066l10.699-32.356h8.74C44.446,171.665,45.577,186.346,45.924,199.653"/>
	<polygon fill="#DADADA" points="176,199.653 155.06,199.653 155.06,155.619 162.106,155.619 162.106,194.237 176,194.237 	"/>
	<path fill="#DADADA" d="M77.889,167.165c-3.001,16.284-6.959,28.118-11.873,35.501c-3.829,5.689-8.023,8.533-12.59,8.533
		c-1.218,0-2.719-0.367-4.501-1.096v-3.925c0.871,0.128,1.892,0.195,3.066,0.195c2.13,0,3.848-0.589,5.154-1.764
		c1.564-1.432,2.347-3.042,2.347-4.826c0-1.219-0.611-3.718-1.826-7.5l-8.089-25.117h7.24l5.805,18.785
		c1.304,4.265,1.848,7.243,1.631,8.94c3.175-8.481,5.393-17.723,6.655-27.725L77.889,167.165L77.889,167.165z"/>
	<path fill="#DADADA" d="M149.582,200.715l-8.094-3.991c0.72-0.592,1.406-1.229,2.025-1.967c3.436-4.04,5.156-10.02,5.156-17.937
		c0-14.568-5.718-21.855-17.156-21.855c-5.61,0-9.981,1.847-13.113,5.548c-3.437,4.044-5.153,10.001-5.153,17.873
		c0,7.741,1.521,13.42,4.565,17.026c2.784,3.261,6.981,4.893,12.593,4.893c2.095,0,4.018-0.258,5.765-0.774l10.54,6.134
		L149.582,200.715z M123.357,190.844c-1.784-2.87-2.677-7.476-2.677-13.827c0-11.09,3.371-16.637,10.111-16.637
		c3.524,0,6.11,1.327,7.764,3.978c1.782,2.872,2.675,7.438,2.675,13.7c0,11.177-3.372,16.768-10.111,16.768
		C127.597,194.826,125.009,193.502,123.357,190.844"/>
	<g>
		<path fill="#DADADA" d="M169.829,140.868c-4.259-0.107-7.556,0.319-10.322,1.49c-0.798,0.319-2.073,0.319-2.183,1.33
			c0.429,0.425,0.48,1.116,0.855,1.704c0.637,1.063,1.752,2.498,2.765,3.245c1.117,0.851,2.235,1.7,3.407,2.444
			c2.073,1.282,4.415,2.024,6.433,3.302c1.175,0.744,2.341,1.701,3.516,2.501c0.583,0.425,0.953,1.118,1.7,1.381v-0.161
			c-0.374-0.477-0.48-1.169-0.849-1.704c-0.532-0.528-1.065-1.01-1.597-1.54c-1.544-2.075-3.461-3.882-5.532-5.372
			c-1.704-1.173-5.431-2.77-6.119-4.733c0,0-0.055-0.057-0.108-0.109c1.17-0.108,2.557-0.534,3.672-0.857
			c1.806-0.477,3.456-0.37,5.318-0.847c0.853-0.214,1.704-0.482,2.559-0.744v-0.482c-0.963-0.956-1.651-2.235-2.662-3.139
			c-2.711-2.34-5.694-4.626-8.779-6.544c-1.652-1.065-3.78-1.753-5.536-2.66c-0.635-0.32-1.699-0.477-2.073-1.012
			c-0.958-1.17-1.492-2.711-2.183-4.096c-1.541-2.923-3.034-6.167-4.362-9.258c-0.957-2.074-1.543-4.147-2.713-6.064
			c-5.483-9.047-11.44-14.524-20.591-19.899c-1.969-1.12-4.31-1.597-6.809-2.183c-1.332-0.056-2.661-0.159-3.991-0.211
			c-0.853-0.374-1.705-1.386-2.449-1.864c-3.034-1.914-10.852-6.064-13.088-0.585c-1.437,3.46,2.128,6.864,3.353,8.62
			c0.904,1.222,2.076,2.608,2.711,3.989c0.373,0.905,0.48,1.864,0.854,2.82c0.85,2.341,1.648,4.948,2.767,7.131
			c0.584,1.117,1.221,2.29,1.966,3.296c0.43,0.589,1.172,0.851,1.332,1.812c-0.743,1.062-0.801,2.659-1.226,3.99
			c-1.914,6.013-1.17,13.461,1.544,17.876c0.849,1.33,2.873,4.257,5.588,3.137c2.394-0.956,1.862-3.989,2.554-6.648
			c0.159-0.643,0.052-1.065,0.371-1.49v0.108c0.744,1.488,1.491,2.921,2.183,4.415c1.651,2.605,4.522,5.319,6.919,7.126
			c1.273,0.961,2.285,2.608,3.881,3.195v-0.161h-0.105c-0.32-0.477-0.797-0.691-1.223-1.062c-0.958-0.958-2.019-2.129-2.768-3.193
			c-2.234-2.979-4.205-6.279-5.957-9.684c-0.854-1.653-1.597-3.46-2.289-5.109c-0.319-0.635-0.319-1.596-0.851-1.914
			c-0.8,1.169-1.967,2.182-2.552,3.614c-1.011,2.29-1.117,5.11-1.492,8.037c-0.212,0.055-0.105,0-0.212,0.105
			c-1.701-0.425-2.286-2.18-2.926-3.666c-1.595-3.782-1.864-9.848-0.478-14.21c0.371-1.115,1.972-4.627,1.33-5.691
			c-0.321-1.015-1.384-1.595-1.968-2.396c-0.691-1.011-1.44-2.285-1.914-3.405c-1.278-2.979-1.919-6.279-3.298-9.257
			c-0.64-1.386-1.758-2.823-2.66-4.097c-1.014-1.437-2.129-2.447-2.929-4.148c-0.264-0.587-0.637-1.545-0.213-2.182
			c0.105-0.426,0.321-0.587,0.747-0.695c0.688-0.585,2.659,0.159,3.349,0.478c1.969,0.796,3.619,1.545,5.267,2.66
			c0.746,0.534,1.544,1.544,2.5,1.812h1.119c1.702,0.369,3.619,0.103,5.217,0.584c2.818,0.904,5.371,2.234,7.66,3.671
			c6.967,4.417,12.714,10.696,16.597,18.197c0.64,1.222,0.908,2.34,1.492,3.615c1.118,2.613,2.502,5.273,3.617,7.824
			c1.117,2.501,2.184,5.052,3.781,7.13c0.796,1.116,3.99,1.701,5.427,2.287c1.061,0.477,2.713,0.904,3.671,1.488
			c1.81,1.116,3.615,2.395,5.32,3.62C167.007,138.473,169.669,139.802,169.829,140.868"/>
		<path fill="#DADADA" d="M115.558,94.631c-0.902,0-1.538,0.108-2.181,0.267v0.107h0.104c0.43,0.849,1.175,1.438,1.703,2.183
			c0.429,0.851,0.801,1.7,1.226,2.551c0.053-0.051,0.104-0.107,0.104-0.107c0.75-0.53,1.121-1.381,1.121-2.66
			c-0.321-0.374-0.372-0.744-0.64-1.117C116.677,95.323,115.985,95.057,115.558,94.631"/>
	</g>
	<path fill="#DADADA" d="M110.174,187.448c0,3.734-1.372,6.8-4.108,9.199c-2.737,2.388-6.414,3.586-11.02,3.586
		c-4.306,0-8.481-1.378-12.525-4.112l1.892-3.782c3.479,1.74,6.629,2.608,9.456,2.608c2.652,0,4.727-0.59,6.229-1.756
		c1.499-1.175,2.397-2.812,2.397-4.89c0-2.616-1.824-4.85-5.169-6.724c-3.089-1.695-9.262-5.234-9.262-5.234
		c-3.345-2.439-5.021-5.058-5.021-9.371c0-3.567,1.25-6.45,3.748-8.644c2.503-2.198,5.733-3.297,9.688-3.297
		c4.088,0,7.804,1.091,11.152,3.265l-1.701,3.779c-2.864-1.214-5.689-1.824-8.475-1.824c-2.259,0-4.001,0.543-5.216,1.634
		c-1.221,1.082-1.975,2.475-1.975,4.172c0,2.608,1.863,4.87,5.302,6.781c3.128,1.696,9.452,5.303,9.452,5.303
		C108.46,180.575,110.174,183.171,110.174,187.448"/>
</g>
</svg>
