<?xml version="1.0" encoding="utf-8"?>
<!-- Generator: Adobe Illustrator 17.0.0, SVG Export Plug-In . SVG Version: 6.00 Build 0)  -->
<!DOCTYPE svg PUBLIC "-//W3C//DTD SVG 1.1//EN" "http://www.w3.org/Graphics/SVG/1.1/DTD/svg11.dtd">
<svg version="1.1" id="Layer_1" xmlns="http://www.w3.org/2000/svg" xmlns:xlink="http://www.w3.org/1999/xlink" x="0px" y="0px"
	 width="176px" height="265px" viewBox="187 147.5 176 265" enable-background="new 187 147.5 176 265" xml:space="preserve">
<g>
	<g>
		<path fill="#DBDADA" d="M216.664,297.942c0,23.09,13.418,43.047,32.88,52.502l-27.828-76.242
			C218.479,281.456,216.664,289.485,216.664,297.942z M314.382,294.999c0-7.212-2.591-12.203-4.81-16.088
			c-2.957-4.808-5.728-8.874-5.728-13.682c0-5.363,4.064-10.354,9.795-10.354c0.26,0,0.506,0.031,0.756,0.047
			c-10.377-9.509-24.207-15.316-39.394-15.316c-20.38,0-38.31,10.458-48.742,26.292c1.371,0.045,2.662,0.073,3.755,0.073
			c6.1,0,15.549-0.742,15.549-0.742c3.144-0.185,3.514,4.436,0.372,4.808c0,0-3.161,0.37-6.675,0.553l21.242,63.191l12.767-38.288
			l-9.089-24.903c-3.144-0.183-6.118-0.553-6.118-0.553c-3.144-0.187-2.776-4.993,0.37-4.808c0,0,9.632,0.742,15.364,0.742
			c6.1,0,15.549-0.742,15.549-0.742c3.144-0.185,3.515,4.436,0.372,4.808c0,0-3.165,0.37-6.675,0.553l21.081,62.71l5.819-19.44
			C312.901,306.277,314.382,299.992,314.382,294.999z M276.025,303.045l-17.504,50.861c5.227,1.536,10.755,2.377,16.479,2.377
			c6.795,0,13.31-1.173,19.373-3.307c-0.153-0.25-0.299-0.516-0.417-0.805L276.025,303.045z M326.192,269.956
			c0.252,1.857,0.394,3.85,0.394,5.998c0,5.918-1.11,12.573-4.438,20.894l-17.817,51.516c17.345-10.112,29.007-28.901,29.007-50.422
			C333.336,287.799,330.744,278.264,326.192,269.956z"/>
		<g>
			<path fill="#DBDADA" d="M206.996,297.942c0,37.5,30.506,68.006,68.004,68.006c37.5,0,68.004-30.506,68.004-68.006
				c0-37.497-30.504-68.001-68.004-68.001C237.502,229.94,206.996,260.444,206.996,297.942z M210.117,297.942
				c0-35.778,29.107-64.883,64.883-64.883s64.888,29.105,64.888,64.883S310.776,362.829,275,362.829S210.117,333.72,210.117,297.942
				z"/>
		</g>
	</g>
	<g>
		<path fill="#DBDADA" d="M266.237,199.119h-9.069v0.963c2.835,0,3.292,0.608,3.292,4.206v6.486c0,3.596-0.456,4.255-3.292,4.255
			c-2.178-0.304-3.648-1.47-5.675-3.699l-2.33-2.534c3.142-0.558,4.813-2.533,4.813-4.763c0-2.786-2.381-4.915-6.84-4.915h-8.917
			v0.963c2.838,0,3.292,0.608,3.292,4.206v6.486c0,3.596-0.454,4.255-3.292,4.255v0.961h10.083v-0.961
			c-2.838,0-3.294-0.659-3.294-4.255v-1.824h0.861l5.623,7.041h14.744c7.245,0,10.385-3.85,10.385-8.46
			C276.622,202.919,273.482,199.119,266.237,199.119z M245.008,207.377v-6.737h2.077c2.28,0,3.294,1.57,3.294,3.393
			c0,1.774-1.014,3.344-3.294,3.344L245.008,207.377L245.008,207.377z M266.389,214.42h-0.355c-1.824,0-2.078-0.455-2.078-2.786
			V200.64c0,0,2.229,0,2.433,0c5.268,0,6.231,3.85,6.231,6.838C272.62,210.568,271.657,214.42,266.389,214.42z"/>
		<path fill="#DBDADA" d="M210.001,209.252l3.495-10.336c1.014-2.989,0.558-3.85-2.684-3.85v-1.013h9.525v1.013
			c-3.192,0-3.952,0.76-5.219,4.458l-5.776,17.327h-0.658l-5.168-15.859l-5.269,15.859h-0.659l-5.623-17.327
			c-1.217-3.699-2.027-4.458-4.966-4.458v-1.013h11.247v1.013c-2.99,0-3.8,0.709-2.736,3.85l3.393,10.336l5.118-15.199h0.964
			L210.001,209.252z"/>
		<path fill="#DBDADA" d="M227.226,216.649c-5.573,0-10.134-4.103-10.134-9.119c0-4.965,4.561-9.069,10.134-9.069
			s10.133,4.103,10.133,9.069C237.358,212.545,232.799,216.649,227.226,216.649z M227.226,200.031c-4.661,0-6.283,4.205-6.283,7.498
			c0,3.345,1.622,7.499,6.283,7.499c4.712,0,6.332-4.154,6.332-7.499C233.559,204.236,231.938,200.031,227.226,200.031z"/>
		<path fill="#DBDADA" d="M289.135,214.976v1.013h-11.601v-1.013c3.395,0,4.003-0.861,4.003-5.927v-8.106
			c0-5.067-0.609-5.877-4.003-5.877v-1.013h10.488c5.218,0,8.105,2.686,8.105,6.283c0,3.496-2.887,6.232-8.105,6.232h-2.889v2.481
			C285.133,214.115,285.741,214.976,289.135,214.976z M288.021,195.876h-2.889v8.815h2.889c2.838,0,4.154-1.976,4.154-4.356
			C292.175,197.904,290.859,195.876,288.021,195.876z"/>
		<path fill="#DBDADA" d="M330.932,211.228l-0.253,0.912c-0.456,1.672-1.014,2.28-4.61,2.28h-0.71c-2.635,0-3.089-0.607-3.089-4.205
			v-2.33c3.951,0,4.255,0.354,4.255,2.99h0.962v-7.549h-0.962c0,2.635-0.304,2.989-4.255,2.989v-5.673h2.786
			c3.597,0,4.154,0.607,4.609,2.279l0.253,0.962h0.812l-0.355-4.763h-14.897v0.963c2.838,0,3.294,0.608,3.294,4.206v6.486
			c0,3.29-0.388,4.119-2.624,4.238c-2.126-0.325-3.586-1.485-5.583-3.681l-2.33-2.534c3.141-0.558,4.813-2.533,4.813-4.763
			c0-2.786-2.381-4.915-6.84-4.915h-8.917v0.963c2.837,0,3.292,0.608,3.292,4.206v6.486c0,3.596-0.455,4.255-3.292,4.255v0.961
			h10.081v-0.961c-2.835,0-3.292-0.659-3.292-4.255v-1.824h0.861l5.623,7.041h20.823l0.303-4.761
			C331.692,211.228,330.932,211.228,330.932,211.228z M304.082,207.377v-6.737h2.077c2.28,0,3.294,1.57,3.294,3.393
			c0,1.774-1.014,3.344-3.294,3.344L304.082,207.377L304.082,207.377z"/>
		<path fill="#DBDADA" d="M341.217,216.649c-2.026,0-3.799-1.064-4.56-1.722c-0.253,0.253-0.708,1.013-0.81,1.722h-0.962v-6.991
			h1.013c0.405,3.343,2.735,5.318,5.725,5.318c1.621,0,2.939-0.91,2.939-2.431c0-1.318-1.167-2.331-3.243-3.293l-2.887-1.368
			c-2.027-0.964-3.547-2.635-3.547-4.864c0-2.432,2.28-4.509,5.422-4.509c1.672,0,3.089,0.607,3.951,1.318
			c0.253-0.203,0.506-0.761,0.659-1.368h0.961v5.979h-1.063c-0.356-2.382-1.672-4.358-4.357-4.358c-1.42,0-2.737,0.811-2.737,2.078
			c0,1.318,1.064,2.025,3.496,3.141l2.787,1.368c2.432,1.165,3.395,3.04,3.395,4.56C347.398,214.42,344.611,216.649,341.217,216.649
			z"/>
		<path fill="#DBDADA" d="M356.82,216.649c-2.026,0-3.8-1.064-4.56-1.722c-0.253,0.253-0.71,1.013-0.809,1.722h-0.964v-6.991h1.013
			c0.405,3.343,2.735,5.318,5.725,5.318c1.621,0,2.939-0.91,2.939-2.431c0-1.318-1.166-2.331-3.243-3.293l-2.889-1.368
			c-2.026-0.964-3.546-2.635-3.546-4.864c0-2.432,2.28-4.509,5.421-4.509c1.672,0,3.09,0.607,3.952,1.318
			c0.253-0.203,0.506-0.761,0.658-1.368h0.962v5.979h-1.065c-0.353-2.382-1.671-4.358-4.356-4.358c-1.419,0-2.736,0.811-2.736,2.078
			c0,1.318,1.064,2.025,3.496,3.141l2.787,1.368c2.432,1.165,3.393,3.04,3.393,4.56C363.001,214.42,360.215,216.649,356.82,216.649z
			"/>
	</g>
</g>
</svg>
