<?xml version="1.0" encoding="utf-8"?>
<!-- Generator: Adobe Illustrator 17.0.0, SVG Export Plug-In . SVG Version: 6.00 Build 0)  -->
<!DOCTYPE svg PUBLIC "-//W3C//DTD SVG 1.1//EN" "http://www.w3.org/Graphics/SVG/1.1/DTD/svg11.dtd">
<svg version="1.1" id="Layer_1" xmlns="http://www.w3.org/2000/svg" xmlns:xlink="http://www.w3.org/1999/xlink" x="0px" y="0px"
	 width="176px" height="265px" viewBox="187 147.5 176 265" enable-background="new 187 147.5 176 265" xml:space="preserve">
<g id="Layer_3" display="none">
	<path display="inline" fill="#B2B3B3" d="M549.766,511.575c0,18.371-122.649,33.265-273.945,33.265S1.876,529.947,1.876,511.575
		c0-18.375,143.875-33.265,273.945-33.265C430.655,478.311,549.766,493.2,549.766,511.575z"/>
</g>
<g id="Layer_2">
</g>
<g id="Layer_1_1_">
	<g>
		<g>
			<path fill="#DBDADA" d="M211.152,226.808h75.782l-3.007,27.718h-49.973l-1.804,31.974c5.878-8.097,13.939-12.146,24.177-12.146
				c10.099,0,18.971,3.703,26.615,11.108c7.643,7.407,11.466,19.171,11.466,35.296c0,16.472-4.396,28.912-13.184,37.32
				c-8.79,8.409-20.243,12.613-34.362,12.613c-13.15,0-23.947-3.633-32.389-10.9c-8.445-7.267-13.288-16.989-14.534-29.171
				l28.341-4.671c1.591,12.943,7.716,19.413,18.375,19.413c11.695,0,17.544-7.646,17.544-22.942c0-6.782-1.556-12.266-4.663-16.454
				c-3.108-4.186-7.564-6.281-13.366-6.281c-7.599,0-12.78,3.669-15.543,11.004l-24.459-4.671L211.152,226.808z"/>
		</g>
		<g>
			<g>
				<path fill="#DBDADA" d="M350.06,322.988c-1.514,0-3.145-0.699-4.31-6.057c-1.165-5.358-2.912-10.833-2.912-10.833
					c1.864,0,2.912-0.816,2.912-0.816c-1.282-0.582-4.077-2.563-5.941-5.009c-1.864-2.446-6.64-6.407-6.64-6.407s0-2.562,0-7.921
					c0-5.359,3.437-9.552,3.437-9.552c-2.329,0-3.437,2.096-3.437,2.096s0-0.116,0-11.299c0-11.183,5.649-16.191,5.649-16.191
					c-1.747-0.116-2.912,0.699-2.912,0.699c0.815-8.27,3.349-10.717,3.349-10.717c-9.319-2.446-14.517,3.029-14.517,3.029
					c-1.049-5.009,3.051-7.922,3.051-7.922c-4.776-1.049-8.726,0.349-8.726,0.349c0-7.339,2.918-9.786,2.918-9.786
					c-14.561,0-22.829,10.949-22.829,10.949c-0.582-4.66,0.7-8.741,0.7-8.741c-14.095,5.941-17.822,19.097-17.822,19.097
					c-0.932-2.213-1.048-7.237-1.048-7.237s-5.825,9.756-6.873,16.512c-1.049,6.757,0.932,26.152,0.932,26.152
					s-0.931-1.165-2.912-1.398c0,0,2.097,2.33,2.097,7.572c0,0-0.816-0.699-2.213-0.349c0,0,2.213,1.98,2.446,5.358
					c0,0-2.563,1.747-3.96,3.495c0,0-2.213,0.116-3.378,0.466c0,0,1.864,1.048,2.213,1.98c0,0-5.475,5.591-8.271,10.134
					c0,0,2.446-1.514,4.194-1.048c0,0-3.844,4.659-5.126,12.348c0,0,1.864-0.932,2.679-0.466c0,0-2.33,4.892-2.446,10.018
					l-2.563,1.515l1.98,1.398c0,0-1.514,6.29-1.864,9.901c0,0,1.165-1.165,2.097-1.514c0,0,1.282,3.029,3.029,5.358
					c1.747,2.33,5.708,4.31,8.038,4.31l4.379-0.171c-0.543,2.344-1.615,4.331-3.873,4.435l-0.251,0.402
					c-0.047-0.003-0.094-0.006-0.14-0.007c-0.045,0.684-1.425,0.807-1.805,1.282c-1.154,1.44-2.035,3.419-2.621,5.184
					c-0.43,1.293-0.227,1.293-0.524,2.621c-0.098,0.435-0.548,0.899-0.699,1.34c1.258-0.423,4.744-0.705,6.58-0.839l0.031,1.625
					c0,0,0.303,0.282,0.804,0.486c0.018-0.004,0.034-0.008,0.055-0.006c0.17,0.014,0.335,0.039,0.496,0.079
					c2.755-0.246,4.674,0.218,7.868-0.047c0.621-0.074,1.204-0.161,1.748-0.471c0.155-0.462,0.175-0.49,0.248-1.087
					c0.016-0.106,0.016-0.216,0.041-0.345c0.05-0.008,0.099-0.016,0.147-0.023c0.019-0.007,0.049-0.013,0.114-0.016
					c0.014-0.004,0.025-0.011,0.04-0.012c0.051-0.005,0.101-0.008,0.152-0.013c0.035-0.013,0.068-0.017,0.098-0.008
					c0.578-0.052,1.506-0.1,2.084-0.132c1.879-0.003,4.35,0.213,4.35,0.213c0.153-2.106,0.306-5.373,3.713-14.896l0.845-0.524
					c0,0,10.465,3.687,20.175-0.149c0.768,1.891,3.255,8.248,3.646,12.256c0.334,0.47,0.297,1.066,0.308,1.697
					c0.009,0.534,0.054,1.069,0.069,1.602c0.349-0.047,1.61-0.202,3.202-0.199c0.578,0.031,1.506,0.08,2.084,0.132
					c0.03-0.008,0.063-0.005,0.098,0.008c0.051,0.005,0.101,0.008,0.152,0.013c0.015,0.001,0.027,0.008,0.041,0.012
					c0.065,0.002,0.095,0.008,0.114,0.016c0.049,0.007,0.097,0.014,0.147,0.023c0.026,0.13,0.026,0.239,0.041,0.345
					c0.073,0.597,0.094,0.625,0.248,1.087c0.05,0.028,0.1,0.053,0.151,0.078c1.739-0.22,3.501-0.261,5.251-0.178
					c1.376,0.065,2.728,0.323,4.083,0.57c0,0.013,0.001,0.026,0.001,0.039c0.136,0.015,0.27,0.024,0.403,0.033
					c0.727,0.13,1.456,0.251,2.189,0.33c0.014-0.917,0.009-1.72-0.01-2.424c1.459,0.07,3.571,0.36,4.457,0.489
					c0.351,0.084,0.637,0.136,0.936,0.201c0.041,0.012,0.084,0.024,0.121,0.037c-0.001-0.004-0.003-0.007-0.005-0.011
					c0.301,0.067,0.625,0.153,1.053,0.302c-0.065-0.788-0.059-0.772-0.163-1.76c-0.08-0.764-0.628-3.086-1.653-4.043
					c0,0,1.117,0.483,1.458,0.675c-1.101-1.492-1.636-3.624-5.096-5.095c0,0,0.632-0.298,1.21-0.373
					c-0.604-0.372-1.065-0.518-1.676-0.474c0.208-0.59,1.121-2.077,1.888-2.268c0,0-0.471-0.327-1.24-0.074
					c-0.286,0.15-0.563,0.311-0.833,0.501c-0.102,0.072-0.251-0.003-0.281-0.114c-0.242-0.895-0.399-1.803-0.542-2.716
					c6.971-0.253,7.949-3.829,7.949-3.829c0.582,0.466,0.582,1.514,0.582,1.514c3.029-3.96,2.679-7.921,2.679-7.921
					c0.699,0.116,1.282,0.582,1.282,0.582c0.349-6.057-1.514-16.425-1.514-16.425c0.932,0.466,1.514-0.116,1.514-0.116
					c-1.048-0.466-1.165-1.631-1.165-1.631C349.827,324.385,350.06,322.988,350.06,322.988z"/>
			</g>
			<path fill="#E5E5E5" d="M283.417,366.938c0,0,0.273-2.946-0.688-5.072c0,0,1.82,0.123,2.126,4.929
				C284.855,366.794,283.581,366.942,283.417,366.938z"/>
			<path fill="#E5E5E5" d="M274.284,357.002l0.011-0.09C274.302,356.957,274.301,356.991,274.284,357.002z"/>
			<path fill="#E5E5E5" d="M275.987,366.709c-0.011-0.003-0.017-0.005-0.017-0.005s0.007-0.02,0.021-0.055L275.987,366.709z"/>
			<path fill="#E8EAEA" d="M299.152,237.598c-0.582-4.66,0.7-8.741,0.7-8.741c-14.095,5.941-17.822,19.097-17.822,19.097
				c-0.932-2.213-1.048-7.237-1.048-7.237s-5.825,9.756-6.873,16.512c-1.049,6.756,0.932,26.152,0.932,26.152
				s-0.931-1.165-2.912-1.398c0,0,2.097,2.33,2.097,7.572c0,0-0.816-0.699-2.213-0.349c0,0,2.213,1.98,2.446,5.358
				c0,0-2.563,1.747-3.96,3.495c0,0-2.213,0.116-3.378,0.466c0,0,1.864,1.049,2.213,1.98c0,0-5.475,5.591-8.271,10.134
				c0,0,2.446-1.514,4.194-1.049c0,0-3.844,4.659-5.126,12.348c0,0,1.864-0.932,2.679-0.466c0,0-2.33,4.892-2.446,10.018
				l-2.563,1.515l1.98,1.398c0,0-1.514,6.29-1.864,9.901c0,0,1.165-1.165,2.097-1.514c0,0,1.282,3.029,3.029,5.358
				c1.747,2.33,5.708,4.31,8.038,4.31l0.295-0.04c-0.13,0.803-0.276,1.603-0.489,2.392c-0.03,0.111-0.179,0.186-0.281,0.114
				c-0.27-0.191-0.547-0.351-0.833-0.501c-0.769-0.253-1.24,0.074-1.24,0.074c0.767,0.191,1.68,1.678,1.888,2.268
				c-0.611-0.044-1.072,0.102-1.676,0.474c0.578,0.075,1.21,0.373,1.21,0.373c-3.459,1.47-3.995,3.603-5.096,5.095
				c0.341-0.192,1.458-0.675,1.458-0.675c-1.025,0.958-1.573,3.279-1.653,4.043c-0.104,0.988-0.098,0.972-0.163,1.76
				c0.917-0.319,1.363-0.35,2.105-0.528c1.147-0.167,4.353-0.606,5.53-0.484l-0.186,2.265c0,0,0.024,0,0.058-0.001
				c0.604-0.173,1.097-0.15,1.636-0.208c0.008-0.624,0.04-1.248,0.092-1.869c-0.036-1.063,0.096-2.031,0.313-3.109
				c0.007-0.036,0.016-0.074,0.024-0.111c0.428-1.473,1.172-2.311,1.655-2.827c0.16-0.171,0.299-0.374,0.419-0.582
				c0.288-0.384,0.588-0.884,0.819-1.515c0.479-1.307,0.274-4.178-0.689-6.979c1.015,1.459,1.939,2.741,2.377,3.179l-0.029-3.567
				c0,0,1.864,1.863,3.532,3.27c0.803,0.701,1.794,1.531,2.497,1.894c0.051,0.032,0.097-0.526,0.153,0.122h0
				c0.007,0,0.014-0.019,0.021-0.015c0.945,0.53,1.917,0.992,2.826,1.581c0.097,0.063,0.197,0.114,0.292,0.18
				c0.421,0.29,1.162,0.623,1.829,0.974l0.63,7.445c0.568-7.819,5.023-15.304,5.023-15.304l-0.163-0.049
				c-1.379-0.426-11.466-3.915-17.427-16.377c-0.392-0.821,2.213,0.932,2.213,0.932c-2.446-5.941-3.378-15.493-3.378-15.493
				c0.815,0.699,1.631,0.815,1.631,0.815c-1.747-4.892-2.446-10.95-2.446-16.425c-0.466-29.471,10.426-36.228,10.426-36.228
				c-1.864-0.699-3.844-0.64-3.844-0.64c2.155-5.184,9.319-12.406,9.319-12.406c-1.922,0.117-9.436,2.155-9.436,2.155
				c6.232-16.25,12.523-20.56,12.523-20.56c-0.466,3.902,1.048,8.038,1.048,8.038c13.513-16.716,24.369-15.936,24.369-15.936
				c0.805-1.677,1.72-2.82,1.72-2.82C307.421,226.65,299.152,237.598,299.152,237.598z"/>
			<path fill="#E5E5E5" d="M337.348,366.845c0,0-0.131-4.223-1.092-6.349c0,0,2.505,1.544,2.49,6.421
				C338.746,366.918,337.511,366.85,337.348,366.845z"/>
			<path fill="#22313F" d="M272.185,345.126c1.65-16.158,2.099-47.767,2.099-47.767c-3.582,7.077-6.465,19.919-6.465,19.919
				l0.699,2.796l-1.573-0.699c-2.527,8.772-0.817,20.514-0.251,23.822C268.302,344.471,270.217,344.9,272.185,345.126z"/>
			<path fill="#22313F" d="M268.806,344.777c0.512,2.586,1.044,5.077,1.634,7.645c0.437,0.065,0.928,0.033,0.928,0.033
				c0.401-1.562,0.467-3.98,0.779-6.955C270.999,345.366,269.872,345.162,268.806,344.777z"/>
			<path fill="#E5E5E5" d="M323.551,358.701c-0.094,0.027-0.165-0.015-0.204-0.079c-0.181,0.035-0.32,0.068-0.413,0.092c0,0,0,0,0,0
				c2.403-1.749,2.624-3.598,2.624-3.598c-1.594,0.719-3.287,0.987-4.11,1.082c5.555-4.815,6.478-13.756,6.478-13.756
				c-2.275,2.793-5.504,5.153-7.999,6.737l0.005-0.011c0,0-1.672,0.935-3.217,1.663c-0.068-0.01-0.136,0.008-0.187,0.087
				c-0.794,0.368-1.534,0.668-1.969,0.74c0,0,1.287,2.376,1.824,3.657l-0.105,0.085c0,0,1.861,4.4,2.539,8.661
				c0.072,0.72,0.127,1.351,0.166,1.833c0.032,0.624,0.077,1.053,0.077,1.053c2.461-0.364,5.937-0.009,5.937-0.009
				c-0.017,0.401,0.204,1.363,0.244,1.538c1.168-0.158,2.348-0.226,3.527-0.237C328.752,364.109,328.57,357.245,323.551,358.701z"/>
			<path fill="#DBDADA" d="M272.069,346.365c-3.872-0.645-7.374-5.08-7.374-5.08c2.814,2.992,6.317,3.393,6.317,3.393
				c0.463-3.417-2.362-11.238-2.362-11.238c2.091,2.605,3.236,5.618,3.874,8.077L272.069,346.365z"/>
			<path fill="#C1C1C0" d="M280.814,340.322c0,0,3.036,5.351,5.701,7.666c2.876,2.499,5.548,6.028,6.684,8.169
				c0,0,1.442-3.348,2.228-4.514C295.426,351.644,286.908,349.146,280.814,340.322z"/>
			<path fill="#C1C1C0" d="M320.441,350.759c0.422-0.594,0.906-1.146,1.366-1.71c0.756-0.925,1.619-1.823,2.253-2.83
				c-1.095,0.819-2.314,1.529-3.56,2.279c-3.617,2.451-6.137,3.145-6.137,3.145c0.786,1.165,2.228,4.514,2.228,4.514
				c0.687-1.296,1.939-3.1,3.457-4.877C320.175,351.104,320.317,350.934,320.441,350.759z"/>
			<path fill="#828282" d="M279.663,260.634c-0.331,0.024-1.391,0.051-1.391,0.051c-9.604,0.67-16.664-6.772-16.664-6.772
				s-0.631,5.809,3.541,10.9c4.173,5.091,12.63,5.962,12.63,5.962c0.275,1.19-0.321,3.845-0.321,3.845s2.473-2.735,3.101-7.918
				C281,263.07,279.868,260.619,279.663,260.634"/>
			<path fill="#9D9D9D" d="M279.663,260.634c-0.318,0.018-1.391,0.051-1.391,0.051c-9.604,0.67-16.664-6.772-16.664-6.772
				s4.388,12.698,19.041,11.694C280.648,265.607,281.054,263.259,279.663,260.634"/>
			<path fill="#828282" d="M327.615,260.634c0.331,0.024,1.391,0.051,1.391,0.051c9.604,0.67,16.664-6.772,16.664-6.772
				s0.631,5.809-3.541,10.9c-4.173,5.091-12.63,5.962-12.63,5.962c-0.275,1.19,0.321,3.845,0.321,3.845s-2.473-2.735-3.101-7.918
				C326.278,263.07,327.41,260.619,327.615,260.634"/>
			<path fill="#9D9D9D" d="M327.615,260.634c0.318,0.018,1.391,0.051,1.391,0.051c9.604,0.67,16.664-6.772,16.664-6.772
				s-4.388,12.698-19.041,11.694C326.629,265.607,326.224,263.259,327.615,260.634"/>
			<path fill="#E5E5E5" d="M274.352,303.65c0,0-6.806,24.812,0,40.713V303.65z"/>
			<path fill="#E5E5E5" d="M343.39,342.899c-3.407,2.6-6.953,2.765-6.953,2.765c-0.158-3.397,3.556-10.823,3.556-10.823
				c-0.845,0.499-1.524,1.102-2.083,1.764l-0.024-2.492l2.679-2.213l-2.155-1.747l2.737-11.008l-2.621,1.747
				c0,0-0.815-15.667-0.233-22.424c0,0-3.32-3.32-4.951-4.66c0,0,0.308,4.824,0.66,12.532c1.488,6.183,3.799,18.978,0.924,30.231
				c0.033,2.281,0.058,4.598,0.071,6.936c0,0,1.432,4.977,1.898,8.472c0,0,0.466,0.131,1.165,0.015l-0.052-5.352
				C341.608,345.554,343.39,342.899,343.39,342.899z"/>
			<ellipse fill="#E5E5E5" cx="314.88" cy="294.854" rx="3.786" ry="4.791"/>
			<ellipse fill="#FFFFFF" cx="314.938" cy="293.574" rx="3.728" ry="4.718"/>
			<path fill="#22313F" d="M313.949,291.142c-0.03,0.116-0.05,0.237-0.05,0.365c0,0.664,0.433,1.203,0.967,1.203
				c0.474,0,0.868-0.426,0.949-0.986c0.304,0.399,0.492,0.937,0.492,1.531c0,1.231-0.802,2.228-1.791,2.228
				c-0.989,0-1.791-0.997-1.791-2.228C312.725,292.27,313.238,291.438,313.949,291.142z"/>
			<ellipse fill="#E5E5E5" cx="296.708" cy="294.854" rx="3.786" ry="4.791"/>
			<ellipse fill="#FFFFFF" cx="296.766" cy="293.574" rx="3.728" ry="4.718"/>
			<path fill="#22313F" d="M296.475,291.142c-0.03,0.116-0.05,0.237-0.05,0.365c0,0.664,0.433,1.203,0.967,1.203
				c0.475,0,0.868-0.426,0.949-0.986c0.304,0.399,0.492,0.937,0.492,1.531c0,1.231-0.802,2.228-1.791,2.228
				c-0.989,0-1.791-0.997-1.791-2.228C295.252,292.27,295.764,291.438,296.475,291.142z"/>
			<path fill="#22313F" d="M327.686,289.1c-1.688-0.247-4.635-0.527-8.172-0.346c-4.603,0.237-8.547,0.876-10.902,1.257
				c-0.703,0.114-1.256,0.204-1.677,0.26l-0.46,0.063c-0.517,0.071-0.856,0.116-1.144,0.13c-0.289-0.014-0.628-0.059-1.144-0.13
				l-0.46-0.063c-0.421-0.056-0.974-0.146-1.677-0.26c-2.356-0.382-6.299-1.02-10.902-1.257c-3.537-0.181-6.484,0.099-8.172,0.346
				c0,0-1.801,0.229-3.342,0.881l0.294,1.958c0,0,1.628-0.388,3.218-0.6c0.296,2.761,0.871,6.31,0.871,6.31l0.009,0.11
				c0.044,0.179,0.084,0.353,0.128,0.542c0.328,1.396,0.653,2.216,1.961,2.708c1.285,0.485,4.326,0.934,7.393,1.092
				c1.14,0.059,2.435-0.011,3.744-0.202c1.941-0.284,3.697-0.806,4.368-1.302c0.977-0.721,1.499-2.537,1.844-3.738l0.103-0.354
				c0.122-0.41,0.228-0.839,0.331-1.257c0.147-0.599,0.3-1.218,0.43-1.432c0.024-0.037,0.133-0.167,0.56-0.229
				c0.132-0.019,0.281-0.029,0.444-0.031c0.163,0.002,0.311,0.012,0.444,0.031c0.427,0.063,0.536,0.192,0.56,0.229
				c0.13,0.214,0.282,0.833,0.43,1.432c0.103,0.417,0.209,0.847,0.331,1.257l0.103,0.354c0.346,1.201,0.868,3.017,1.844,3.738
				c0.671,0.496,2.427,1.019,4.368,1.302c1.309,0.19,2.604,0.261,3.744,0.202c3.067-0.158,6.108-0.607,7.393-1.092
				c1.308-0.492,1.634-1.312,1.961-2.708c0.044-0.189,0.085-0.363,0.128-0.542l0.009-0.11c0,0,0.575-3.549,0.871-6.31
				c1.59,0.212,3.218,0.6,3.218,0.6l0.294-1.958C329.488,289.33,327.686,289.1,327.686,289.1z M302.293,293.353l-0.004,0.032
				c-0.077,0.635-0.494,3.854-1.173,4.951c-0.657,1.059-0.89,1.324-2.934,1.669c-0.088,0.015-0.179,0.029-0.274,0.042
				c-2.205,0.322-6.231,0.379-8.483-0.054l-0.156-0.03c-2.299-0.444-3.105-0.634-3.343-1.349c-0.321-0.966-0.938-5.432-0.983-6.39
				c-0.035-0.727,0.649-1.059,0.834-1.108c0.116-0.031,0.303-0.065,0.556-0.102c1.613-0.236,5.142-0.468,6.807-0.394
				c2.108,0.095,7.254,0.821,8.413,1.341C302.415,292.346,302.375,292.682,302.293,293.353z M324.735,298.614
				c-0.238,0.715-1.044,0.905-3.343,1.349l-0.156,0.03c-2.252,0.432-6.278,0.376-8.483,0.054c-0.095-0.014-0.187-0.028-0.275-0.042
				c-2.044-0.346-2.277-0.61-2.934-1.669c-0.679-1.096-1.096-4.316-1.173-4.951l-0.004-0.032c-0.082-0.671-0.122-1.007,0.74-1.393
				c1.159-0.52,6.305-1.246,8.413-1.341c1.665-0.073,5.193,0.159,6.807,0.394c0.253,0.037,0.44,0.071,0.556,0.102
				c0.186,0.049,0.869,0.382,0.834,1.108C325.672,293.181,325.056,297.647,324.735,298.614z"/>
			<path fill="#22313F" d="M297.876,284.141c0,0-4.211-2.009-6.621,1.721c0,0-0.249-3.708,3.152-4.123
				C297.808,281.324,297.876,284.141,297.876,284.141z"/>
			<path fill="#22313F" d="M296.297,278.692c0,0-3.904-1.842-5.682,1.698c0,0-0.581-3.093,2.205-3.84
				C295.605,275.804,296.297,278.692,296.297,278.692z"/>
			<path fill="#22313F" d="M312.96,286.415c0,0,3.27-1.56,5.142,1.337c0,0,0.193-2.88-2.448-3.202
				C313.013,284.227,312.96,286.415,312.96,286.415z"/>
			<path fill="#22313F" d="M315.286,281.257c0,0,3.31-0.536,3.876,2.489c0,0,1.098-2.184-0.82-3.34
				C316.423,279.249,315.286,281.257,315.286,281.257z"/>
			<path fill="#22313F" d="M297.583,313.518c0,0,2.31-1.553,3.674-1.767c0,0,0.298,2.93,1.653,4.374c0,0,2.925-2.637,5.817-2.824
				c0,0,0.747,1.607,1.959,2.203l-0.007,0.019c0.438,0.273,0.973,0.549,1.493,0.664c0,0,1.66-1.005,2.14-2.839
				c0,0,0.16,3.873-2.271,5.984c0,0-1.854-0.905-3.19-2.353c-0.401-0.391-0.818-0.845-1.021-1.214c0,0-4.289,3.035-4.446,4.765
				c0,0-3.096-3.019-4.152-5.345c0,0-2.066,0.652-2.64,1.073c0,0-1.661-2.717-1.998-5.168
				C294.594,311.09,296.592,312.997,297.583,313.518z"/>
			<path fill="#5C5B5D" d="M305.38,305.905c-0.171-0.037,4.351,0.313,8.791,0.155c0,0,0.237-0.847,0.578-1.313
				c0,0-0.074,1.426,0.325,1.718c0,0-2.222,0.875-4.463,0.868c0,0,2.442-0.407,3.261-0.829
				C313.872,306.505,309.416,306.753,305.38,305.905z"/>
		</g>
	</g>
	<g>
		<path fill="#DBDADA" d="M187,190.474h14.386v4.365h-9.044v5.377h8.45v4.33h-8.45v9.463H187V190.474z"/>
		<path fill="#DBDADA" d="M221.187,205.28c0,6.251-4.435,9.114-9.009,9.114c-4.993,0-8.834-3.282-8.834-8.8
			c0-5.517,3.631-9.044,9.114-9.044C217.695,196.55,221.187,200.146,221.187,205.28z M208.826,205.454
			c0,2.933,1.222,5.133,3.492,5.133c2.06,0,3.387-2.06,3.387-5.133c0-2.549-0.978-5.133-3.387-5.133
			C209.769,200.321,208.826,202.94,208.826,205.454z"/>
		<path fill="#DBDADA" d="M240.568,208.527c0,2.235,0.07,4.05,0.14,5.482h-4.609l-0.244-2.409h-0.105
			c-0.663,1.048-2.27,2.794-5.343,2.794c-3.457,0-6.006-2.165-6.006-7.438v-10.021h5.343v9.183c0,2.479,0.803,3.981,2.654,3.981
			c1.467,0,2.304-1.013,2.654-1.851c0.14-0.314,0.175-0.733,0.175-1.153v-10.161h5.343L240.568,208.527L240.568,208.527z"/>
		<path fill="#DBDADA" d="M244.829,202.381c0-2.13-0.07-3.946-0.14-5.447h4.609l0.244,2.339h0.105
			c0.698-1.083,2.444-2.724,5.273-2.724c3.492,0,6.111,2.304,6.111,7.333v10.126h-5.308v-9.463c0-2.2-0.768-3.701-2.689-3.701
			c-1.467,0-2.339,1.013-2.689,1.99c-0.14,0.314-0.21,0.838-0.21,1.327v9.847h-5.308L244.829,202.381L244.829,202.381z"/>
		<path fill="#DBDADA" d="M281.844,189.217v19.694c0,1.921,0.07,3.946,0.14,5.098h-4.714l-0.244-2.514h-0.07
			c-1.083,1.921-3.143,2.898-5.343,2.898c-4.05,0-7.298-3.457-7.298-8.765c-0.035-5.761,3.562-9.079,7.647-9.079
			c2.095,0,3.736,0.733,4.505,1.921h0.07v-9.253H281.844z M276.537,204.162c0-0.279-0.035-0.663-0.07-0.943
			c-0.314-1.432-1.467-2.619-3.108-2.619c-2.409,0-3.666,2.165-3.666,4.854c0,2.898,1.432,4.714,3.632,4.714
			c1.536,0,2.759-1.048,3.073-2.549c0.105-0.384,0.14-0.768,0.14-1.222L276.537,204.162L276.537,204.162z"/>
		<path fill="#DBDADA" d="M295.813,214.009l-0.314-1.711h-0.105c-1.117,1.362-2.863,2.095-4.888,2.095
			c-3.457,0-5.517-2.514-5.517-5.238c0-4.435,3.98-6.565,10.022-6.53v-0.244c0-0.908-0.489-2.2-3.108-2.2
			c-1.746,0-3.596,0.593-4.714,1.292l-0.978-3.422c1.187-0.663,3.527-1.502,6.634-1.502c5.692,0,7.507,3.352,7.507,7.368v5.936
			c0,1.641,0.07,3.213,0.244,4.155L295.813,214.009L295.813,214.009z M295.185,205.943c-2.793-0.035-4.958,0.628-4.958,2.689
			c0,1.362,0.908,2.025,2.095,2.025c1.327,0,2.409-0.873,2.759-1.955c0.07-0.279,0.105-0.593,0.105-0.908L295.185,205.943
			L295.185,205.943z"/>
		<path fill="#DBDADA" d="M310.202,192.046v4.889h3.806v3.911h-3.806v6.181c0,2.06,0.489,3.003,2.095,3.003
			c0.663,0,1.187-0.07,1.572-0.14l0.035,4.015c-0.698,0.279-1.956,0.454-3.457,0.454c-1.711,0-3.143-0.593-3.981-1.467
			c-0.978-1.013-1.467-2.654-1.467-5.063v-6.983h-2.27v-3.911h2.27v-3.701L310.202,192.046z"/>
		<path fill="#DBDADA" d="M322.563,192.185c0,1.467-1.118,2.654-2.864,2.654c-1.676,0-2.793-1.187-2.759-2.654
			c-0.035-1.536,1.083-2.689,2.794-2.689S322.528,190.649,322.563,192.185z M317.081,214.009v-17.075h5.308v17.075H317.081z"/>
		<path fill="#DBDADA" d="M343.515,205.28c0,6.251-4.435,9.114-9.009,9.114c-4.994,0-8.834-3.282-8.834-8.8
			c0-5.517,3.632-9.044,9.113-9.044C340.023,196.55,343.515,200.146,343.515,205.28z M331.153,205.454
			c0,2.933,1.222,5.133,3.492,5.133c2.06,0,3.387-2.06,3.387-5.133c0-2.549-0.978-5.133-3.387-5.133
			C332.096,200.321,331.153,202.94,331.153,205.454z"/>
		<path fill="#DBDADA" d="M346.798,202.381c0-2.13-0.07-3.946-0.14-5.447h4.609l0.244,2.339h0.105
			c0.698-1.083,2.444-2.724,5.273-2.724c3.492,0,6.111,2.304,6.111,7.333v10.126h-5.308v-9.463c0-2.2-0.768-3.701-2.689-3.701
			c-1.467,0-2.339,1.013-2.689,1.99c-0.14,0.314-0.21,0.838-0.21,1.327v9.847h-5.307V202.381z"/>
	</g>
</g>
</svg>
