<?xml version="1.0" standalone="no"?>
<!DOCTYPE svg PUBLIC "-//W3C//DTD SVG 20010904//EN"
 "http://www.w3.org/TR/2001/REC-SVG-20010904/DTD/svg10.dtd">
<svg version="1.0" xmlns="http://www.w3.org/2000/svg"
 width="340.000000pt" height="340.000000pt" viewBox="0 0 340.000000 340.000000"
 preserveAspectRatio="xMidYMid meet">
<metadata>
Created by potrace 1.11, written by Peter Selinger 2001-2013
</metadata>
<g transform="translate(0.000000,340.000000) scale(0.100000,-0.100000)"
fill="#000000" stroke="none">
<path d="M0 1695 l0 -1695 1695 0 1695 0 0 1695 0 1695 -1695 0 -1695 0 0
-1695z m1346 1243 l27 -71 27 69 c21 52 33 70 49 72 20 3 21 0 21 -92 0 -77
-3 -96 -15 -96 -10 0 -15 16 -17 63 l-3 62 -23 -63 c-29 -79 -47 -79 -78 3
l-23 60 0 -62 c-1 -49 -4 -63 -16 -63 -12 0 -15 17 -15 95 0 87 2 95 19 95 15
0 26 -17 47 -72z m244 12 c27 -15 36 -74 16 -105 -31 -48 -97 -41 -117 12 -11
29 4 88 24 97 21 8 58 6 77 -4z m120 -4 c0 -7 -9 -16 -20 -19 -17 -4 -20 -14
-20 -56 0 -39 -4 -51 -15 -51 -12 0 -15 14 -15 70 l0 70 35 0 c23 0 35 -5 35
-14z m138 -74 c-3 -78 -5 -87 -29 -104 -20 -15 -30 -17 -52 -9 -27 11 -45 36
-33 48 3 3 15 -2 27 -12 15 -14 24 -17 36 -9 30 19 27 34 -5 28 -55 -11 -93
72 -57 124 13 18 25 21 66 20 l50 -1 -3 -85z m130 71 c5 -10 12 -44 15 -75 4
-45 3 -58 -8 -58 -8 0 -17 5 -21 11 -4 8 -9 8 -17 0 -16 -16 -52 -14 -67 3
-23 29 -8 60 38 74 23 8 42 18 42 23 0 12 -47 11 -55 -1 -9 -15 -35 -12 -35 3
0 38 91 54 108 20z m149 5 c19 -16 18 -128 -2 -128 -12 0 -15 13 -15 55 0 51
-2 55 -24 55 -28 0 -36 -16 -36 -71 0 -28 -4 -39 -15 -39 -12 0 -15 14 -15 69
l0 68 47 1 c26 1 53 -4 60 -10z m-1009 -45 c-2 -11 -17 -20 -41 -25 -52 -11
-131 -53 -200 -105 -32 -25 -148 -142 -257 -262 l-199 -216 152 -152 c83 -84
147 -153 142 -153 -6 0 -5 -4 2 -8 15 -10 163 -268 163 -284 0 -7 -32 -67 -70
-133 -64 -111 -81 -132 -235 -285 l-166 -166 186 -203 c103 -113 213 -226 244
-253 68 -60 159 -113 224 -129 35 -8 47 -16 47 -30 0 -15 -5 -17 -32 -12 -43
8 -121 38 -156 60 -82 52 -162 128 -353 335 l-211 230 161 162 c152 152 161
163 144 177 -10 9 -91 67 -180 129 -90 62 -163 116 -163 120 0 4 83 65 185
136 l184 129 -161 162 -162 162 20 23 c295 331 444 483 529 536 95 61 210 92
203 55z m1282 -6 c122 -50 199 -120 494 -442 80 -88 146 -162 146 -165 0 -3
-73 -78 -162 -167 l-163 -161 183 -127 c100 -71 182 -131 182 -135 0 -9 -386
-280 -399 -280 -10 0 -161 262 -161 279 0 7 34 71 76 144 70 123 86 143 229
287 85 85 154 160 154 165 -1 20 -394 439 -453 482 -74 54 -143 91 -193 101
-24 5 -39 14 -41 25 -5 24 40 22 108 -6z m0 -495 c0 -4 -233 -309 -518 -678
l-518 -669 518 -3 518 -2 0 -50 0 -50 -690 0 -690 0 0 23 c0 14 183 259 501
672 l501 650 -501 3 -501 2 0 55 0 55 690 0 c380 0 690 -4 690 -8z m632 -1307
c-22 -35 -428 -466 -469 -496 -94 -71 -164 -106 -245 -123 -23 -5 -28 -3 -28
12 0 14 14 23 58 35 123 34 217 114 506 432 l136 149 -150 151 c-120 120 -148
153 -138 163 10 10 46 -21 175 -150 97 -96 159 -166 155 -173z m-1619 -507
c35 -18 46 -40 47 -89 0 -69 -31 -99 -105 -99 l-55 0 0 100 0 100 46 0 c25 0
55 -5 67 -12z m387 -3 c0 -8 -7 -15 -15 -15 -8 0 -15 7 -15 15 0 8 7 15 15 15
8 0 15 -7 15 -15z m-212 -51 c14 -10 22 -25 22 -45 0 -28 -2 -29 -46 -29 -32
0 -44 -4 -42 -12 6 -16 58 -23 58 -9 0 6 7 11 15 11 19 0 19 -9 -2 -32 -24
-27 -68 -23 -92 8 -28 35 -26 69 4 99 28 29 51 31 83 9z m147 -6 c14 -21 14
-23 -2 -27 -9 -2 -19 2 -21 8 -4 13 -42 15 -42 2 0 -5 17 -18 38 -28 61 -30
52 -83 -14 -83 -31 0 -64 21 -64 41 0 12 27 12 35 -1 8 -13 55 -13 55 -1 0 5
-17 18 -37 28 -43 20 -54 50 -27 70 27 20 61 16 79 -9z m65 -53 c0 -60 -3 -75
-15 -75 -12 0 -15 14 -15 68 0 38 3 72 7 75 17 18 23 1 23 -68z m150 -14 c0
-65 -4 -89 -17 -103 -21 -24 -65 -23 -88 2 -23 26 -12 37 19 20 26 -13 56 -8
56 10 0 5 -12 10 -27 10 -41 0 -63 26 -63 76 0 52 24 74 81 71 l39 -1 0 -85z
m128 77 c7 -6 12 -35 12 -74 0 -50 -3 -64 -15 -64 -12 0 -15 13 -15 60 0 51
-3 60 -18 60 -30 0 -42 -21 -42 -72 0 -36 -4 -48 -15 -48 -12 0 -15 15 -15 73
l0 74 48 1 c26 0 53 -4 60 -10z"/>
<path d="M1520 2911 c-10 -21 -4 -51 14 -63 20 -14 36 -8 47 16 22 48 -36 93
-61 47z"/>
<path d="M1765 2924 c-19 -19 -19 -44 -1 -69 25 -35 64 1 52 49 -7 30 -31 40
-51 20z"/>
<path d="M1928 2877 c-29 -11 -38 -37 -14 -37 16 0 46 26 46 41 0 5 -1 9 -2 8
-2 -1 -15 -6 -30 -12z"/>
<path d="M1330 500 l0 -70 33 0 c43 0 67 26 67 72 0 43 -25 68 -68 68 l-32 0
0 -70z"/>
<path d="M1527 514 c-15 -15 -6 -24 24 -24 20 0 29 4 27 13 -5 14 -40 21 -51
11z"/>
<path d="M1871 506 c-7 -8 -11 -27 -9 -43 2 -22 8 -28 28 -28 22 0 25 4 25 40
0 43 -21 58 -44 31z"/>
</g>
</svg>
