<?xml version="1.0" encoding="utf-8"?>
<!-- Generator: Adobe Illustrator 19.0.0, SVG Export Plug-In . SVG Version: 6.00 Build 0)  -->
<svg version="1.1" xmlns="http://www.w3.org/2000/svg" xmlns:xlink="http://www.w3.org/1999/xlink" x="0px" y="0px"
	 viewBox="0 0 612 792" style="enable-background:new 0 0 612 792;" xml:space="preserve">
<style type="text/css">
	.st0{fill:none;stroke:#000000;stroke-width:16;stroke-miterlimit:10;}
	.st1{fill:none;}
	.st2{fill:#ED1C24;}
	.st3{font-family:'Tahoma-Bold';}
	.st4{font-size:303.1999px;}
	.st5{font-size:33px;}
	.st6{display:none;}
</style>
<g id="Layer_1">
	<g id="XMLID_53_">
		<path id="XMLID_57_" class="st0" d="M106,312.6c8.6-96.5,85.4-173.3,181.9-181.9"/>
		<path id="XMLID_56_" class="st0" d="M506,312.6c-8.6-96.5-85.4-173.3-181.9-181.9"/>
		<path id="XMLID_55_" class="st0" d="M506,348.8c-8.2,92-78.3,166.1-168.5,180.3c-4.5,0.7-9,1.3-13.6,1.7"/>
		<path id="XMLID_54_" class="st0" d="M106,348.6c8.5,96.6,85.4,173.5,182,182.1"/>
	</g>
	<rect id="XMLID_7_" x="174.4" y="207.3" class="st1" width="300.8" height="296.8"/>
	<text id="XMLID_51_" transform="matrix(1 0 0 1 174.357 437.6904)" class="st2 st3 st4">M</text>
	<g id="XMLID_46_">
		<path id="XMLID_50_" class="st0" d="M438.5,220.6c52.8,63.2,52.8,155.4,0,218.5"/>
		<path id="XMLID_49_" class="st0" d="M198.3,460.8c63.2,52.8,155.4,52.8,218.5,0"/>
		<path id="XMLID_48_" class="st0" d="M176.6,439.1c-50.4-60.2-52.7-146.8-7.1-209.5c2.3-3.1,4.7-6.2,7.2-9.2"/>
		<path id="XMLID_47_" class="st0" d="M416.9,199c-63.2-52.9-155.5-52.9-218.7,0"/>
	</g>
</g>
<g id="Layer_2">
	<rect x="188.4" y="556.1" class="st1" width="250.1" height="104.4"/>
	<text transform="matrix(1 0 0 1 188.4386 581.1628)" class="st3 st5">MARKED 2016</text>
	<path id="SVGID_x5F_1_x5F_" class="st1" d="M198.3,469.2c63.2,51.4,155.4,51.4,218.5,0"/>
	<text class="st6">	<textPath  xlink:href="#SVGID_x5F_1_x5F_" startOffset="14.951%"  style="display:inline;">
<tspan  class="st3" style="fill:#FFFFFF; font-size:19.4586px;">MARKED 2016</tspan>	</textPath>
</text>
</g>
</svg>
