<svg xmlns="http://www.w3.org/2000/svg" width="501" height="515.726" viewBox="0 0 501 515.726"><path stroke="#000" d="M.5.5h500v500H.5z"/><path fill="none" d="M67.515 417.832h371.066v62.247H67.515z"/><text transform="translate(106.992 469.6)" fill="#D92D27" font-family="'Helvetica'" font-size="72">LEGACY</text><g font-family="'Helvetica'" font-size="9.402"><text transform="translate(103.367 25.017)" fill="#FFF">LegacyLEG</text><text transform="translate(152.504 25.017)" fill="#FFF">A</text><text transform="translate(340.547 25.017)" fill="#FFF">CYlegacyLeG</text><text transform="translate(398.56 25.017)" fill="#FFF">A</text><text transform="translate(406.94 25.017)" fill="#FFF"></text><text transform="translate(91.596 36.299)" fill="#FFF">CyLEGacylega</text><text transform="translate(329.644 36.299)" fill="#FFF">CYLegacyLEGA</text><text transform="translate(397.604 36.299)" fill="#FFF"></text><text transform="translate(83.589 47.586)" fill="#FFF">CYlegacyLeGACyLE</text><text transform="translate(324.233 47.586)" fill="#FFF">GacylegaCYLegacy</text><text transform="translate(77.749 58.868)" fill="#FFF">LEGACYlegacyLeGAC</text><text transform="translate(322.269 58.868)" fill="#FFF">LEGacylegaCYLega</text><text transform="translate(412.7 58.868)" fill="#FFF"></text><text transform="translate(73.562 70.15)" fill="#FFF">cy</text><text transform="translate(82.959 70.15)" fill="#ED1C24">LEGACY</text><text transform="translate(121.107 70.15)" fill="#FFF">le gacyLeG</text><text transform="translate(168.67 70.15)" fill="#FFF">A</text><text transform="translate(324.282 70.15)" fill="#FFF">CyLEGacylegaCYLega</text><text transform="translate(74.633 81.432)" fill="#FFF">cyLEGACYlegac yLe</text><text transform="translate(328.47 81.432)" fill="#FFF">GACyLEGacyleg aCYLe</text><text transform="translate(77.786 92.713)" fill="#FFF">gacyLEGACYlega</text><text transform="translate(335.19 92.713)" fill="#FFF">cyLeGACyLEGacyle</text><text transform="translate(83.895 104.001)" fill="#FFF">gaCYLega cyLE</text><text transform="translate(344.93 104.001)" fill="#FFF">GACYlegacyLe</text><text transform="translate(96.444 115.277)" fill="#FFF">GACyLEGa</text><text transform="translate(348.621 115.277)" fill="#FFF">cylegaCYLe</text><text transform="translate(105.816 126.553)" fill="#FFF">gacyLEG</text><text transform="translate(144.49 126.553)" fill="#FFF">A</text><text transform="translate(333.293 126.553)" fill="#FFF">CYlegacyLe</text><text transform="translate(95.336 137.853)" fill="#FFF">GACyLEGacylega</text><text transform="translate(317.959 137.853)" fill="#FFF">CYLegacylegacyLe</text><text transform="translate(84.856 149.128)" fill="#FFF">GACyLEGacylegaCYLega</text><text transform="translate(302.625 149.128)" fill="#FFF">cyLEGACYlegacyLeG</text><text transform="translate(395.132 149.128)" fill="#FFF">A</text><text transform="translate(74.382 160.417)" fill="#FFF">CyLEGacylegaCYLegacyLEG</text><text transform="translate(199.296 160.417)" fill="#FFF">A</text><text transform="translate(287.297 160.417)" fill="#FFF">CYlegacyLeGACyL</text><text transform="translate(367.965 160.417)" fill="#FFF">EGacylega</text><text transform="translate(63.903 171.698)" fill="#FFF">CYLegacyLEGACYlegacyLeGACyLE</text><text transform="translate(271.969 171.698)" fill="#FFF">GacylegaCYLegac</text><text transform="translate(350.366 171.698)" fill="#FFF">y</text><text transform="translate(355.067 171.698)" fill="#ED1C24">LEGACY</text><text transform="translate(393.216 171.698)" fill="#FFF">legacyLe</text><text transform="translate(53.429 182.98)" fill="#FFF">GACyLEGacylegaCYLegacyLEGACYlega</text><text transform="translate(256.635 182.98)" fill="#FFF">cyLeGACyLEGacylegaCYLegacyLEGACYle</text><text transform="translate(42.955 194.262)" fill="#FFF">gacyLe GACyLEGacylega</text><text transform="translate(180.344 194.262)" fill="#FFF">CYLegacyLEgacyLegacyLEG</text><text transform="translate(304.217 194.262)" fill="#FFF">A</text><text transform="translate(338.344 194.262)" fill="#FFF">CYlegacyLeG</text><text transform="translate(396.356 194.262)" fill="#FFF">A</text><text transform="translate(404.73 194.262)" fill="#FFF">CyLEGacyle</text><text transform="translate(32.475 205.543)" fill="#FFF">gaCYLega</text><text transform="translate(101.133 205.543)" fill="#FFF">cyLEGACYlega</text><text transform="translate(198.604 205.543)" fill="#FFF">cyLeGACyLEGacylega</text><text transform="translate(334.518 205.543)" fill="#FFF">CYLegacy</text><text transform="translate(415.228 205.543)" fill="#FFF">LEGACYlega</text><text transform="translate(22.002 216.825)" fill="#FFF">cyLeGAC</text><text transform="translate(97.68 216.825)" fill="#FFF">LEGacylega</text><text transform="translate(216.852 216.825)" fill="#FFF">CYLega cyLE</text><text transform="translate(330.685 216.825)" fill="#FFF">GACYle gacyLe</text><text transform="translate(426.944 216.825)" fill="#FFF">GACyLEGa</text><text transform="translate(476.063 216.825)" fill="#FFF"></text><text transform="translate(15.519 228.113)" fill="#FFF">cylegaCYLe</text><text transform="translate(94.222 228.113)" fill="#FFF">gacyLEGACYlegac</text><text transform="translate(235.106 228.113)" fill="#FFF">yLeG</text><text transform="translate(257.577 228.113)" fill="#FFF">A</text><text transform="translate(326.86 228.113)" fill="#FFF">CyLEGacyleg</text><text transform="translate(438.667 228.113)" fill="#FFF">aCYLega</text><text transform="translate(15.807 239.389)" fill="#FFF">cyLEG</text><text transform="translate(44.026 239.389)" fill="#FFF">A</text><text transform="translate(90.775 239.389)" fill="#FFF">CYlegacyLeGACyLE</text><text transform="translate(323.022 239.389)" fill="#FFF">GacylegaCYLega cy</text><text transform="translate(450.384 239.389)" fill="#FFF">LEGA</text><text transform="translate(474.955 239.389)" fill="#FFF"></text><text transform="translate(16.094 250.677)" fill="#FFF">CYle</text><text transform="translate(87.317 250.677)" fill="#FFF">gacyLeGACyLEGacyle</text><text transform="translate(319.195 250.677)" fill="#FFF">gaCYLegacyLEGACYle</text><text transform="translate(462.1 250.677)" fill="#FFF">gacy</text><text transform="translate(83.87 261.964)" fill="#FFF">LeGACyLEGacylega</text><text transform="translate(315.363 261.964)" fill="#FFF">CYLegacyLEGACYlega</text><text transform="translate(80.418 273.24)" fill="#FFF">cyLeGACyLEGacylegaCY</text><text transform="translate(189.483 273.24)" fill="#FFF"></text><text transform="translate(311.531 273.24)" fill="#FFF">LegacyLEGACYlega cyLe</text><text transform="translate(76.966 284.527)" fill="#FFF">GaCy LEGacylegaCYLegacy</text><text transform="translate(307.706 284.527)" fill="#FFF">LEGACYlegacyLeGACyL</text><text transform="translate(413.453 284.527)" fill="#FFF"></text><text transform="translate(416.067 284.527)" fill="#FFF"></text><text transform="translate(73.513 295.81)" fill="#FFF">EGacylegaCYLegacyLEGAC</text><text transform="translate(194.766 295.81)" fill="#FFF">Y</text><text transform="translate(303.874 295.81)" fill="#FFF">legacyLeGACyLEGacylega</text><text transform="translate(70.06 307.09)" fill="#FFF">CY</text><text transform="translate(83.124 307.09)" fill="#ED1C24">Legac</text><text transform="translate(108.742 307.09)" fill="#ED1C24">y</text><text transform="translate(113.443 307.09)" fill="#FFF">LEGACYlegacyLeG</text><text transform="translate(196.542 307.09)" fill="#FFF">A</text><text transform="translate(300.036 307.09)" fill="#FFF">CyLEGacylegaCYLegacyLEGAC</text><text transform="translate(438.012 307.09)" fill="#FFF"></text><text transform="translate(66.614 318.379)" fill="#FFF">YlegacyLeG</text><text transform="translate(117.832 318.379)" fill="#FFF">A</text><text transform="translate(138.737 318.379)" fill="#FFF">CyLEGacylega</text><text transform="translate(296.21 318.379)" fill="#FFF">CYLegacyLEG</text><text transform="translate(358.403 318.379)" fill="#FFF">A</text><text transform="translate(377.086 318.379)" fill="#FFF">CYlegacyLe</text><text transform="translate(430.39 318.379)" fill="#FFF"></text><text transform="translate(63.156 329.654)" fill="#FFF">GACyLEGa</text><text transform="translate(144.43 329.654)" fill="#FFF">cylegaCYLega</text><text transform="translate(292.384 329.654)" fill="#FFF">cyLEgacyLega</text><text transform="translate(381.94 329.654)" fill="#FFF">cyLEGACYleg</text><text transform="translate(59.71 340.937)" fill="#FFF">acyLeGACy</text><text transform="translate(150.117 340.937)" fill="#FFF">LEGacylega</text><text transform="translate(288.552 340.937)" fill="#FFF">CYLegacyLE</text><text transform="translate(386.8 340.937)" fill="#FFF">GACYlega</text><text transform="translate(56.251 352.225)" fill="#FFF">cyLeGACyLE</text><text transform="translate(155.803 352.225)" fill="#FFF">GacylegaCYLe</text><text transform="translate(284.72 352.225)" fill="#FFF">gacy LEGACY</text><text transform="translate(345.18 352.225)" fill="#FFF"></text><text transform="translate(391.661 352.225)" fill="#FFF">legacyLeGAC</text><text transform="translate(449.667 352.225)" fill="#FFF"></text><text transform="translate(52.805 363.506)" fill="#FFF">LEGacylega</text><text transform="translate(161.49 363.506)" fill="#FFF">CYLegacyLEG</text><text transform="translate(280.894 363.506)" fill="#FFF">ACYle gacyLe</text><text transform="translate(396.516 363.506)" fill="#FFF">GACyLEGa</text><text transform="translate(445.634 363.506)" fill="#FFF"></text><text transform="translate(49.352 374.788)" fill="#FFF">cylegaCYLe</text><text transform="translate(167.177 374.788)" fill="#FFF">gacyLEGAC</text><text transform="translate(218.909 374.788)" fill="#FFF">Y</text><text transform="translate(277.063 374.788)" fill="#FFF">legacyLeG</text><text transform="translate(322.012 374.788)" fill="#FFF">A</text><text transform="translate(401.376 374.788)" fill="#FFF">CyLEGacyleg</text><text transform="translate(45.9 386.076)" fill="#FFF">aCYLega</text><text transform="translate(172.864 386.076)" fill="#FFF">cyLEGACYle</text><text transform="translate(273.23 386.076)" fill="#FFF">gacyLeG</text><text transform="translate(310.858 386.076)" fill="#FFF">A</text><text transform="translate(406.23 386.076)" fill="#FFF">Cy</text><text transform="translate(417.72 386.076)" fill="#ED1C24">Legac</text><text transform="translate(443.338 386.076)" fill="#ED1C24">y</text><text transform="translate(448.04 386.076)" fill="#FFF">le</text><text transform="translate(42.447 397.352)" fill="#FFF">gaCYLega</text><text transform="translate(178.544 397.352)" fill="#FFF">cyLEGACYle</text><text transform="translate(269.398 397.352)" fill="#FFF">gacyLeG</text><text transform="translate(307.032 397.352)" fill="#FFF">A</text><text transform="translate(411.09 397.352)" fill="#FFF">CyLEGa</text><text transform="translate(446.625 397.352)" fill="#FFF"></text><text transform="translate(38.995 408.64)" fill="#FFF">cylegaCYLe</text><text transform="translate(415.944 408.64)" fill="#FFF">gacyLEG</text><text transform="translate(454.62 408.64)" fill="#FFF">A</text><text transform="translate(35.548 419.927)" fill="#FFF">CYlega</text><text transform="translate(420.805 419.927)" fill="#FFF">cyLeGAC</text><text transform="translate(461.047 419.927)" fill="#FFF">y</text></g></svg>