<svg xmlns="http://www.w3.org/2000/svg" viewBox="0 0 1201 400"><linearGradient id="a" gradientUnits="userSpaceOnUse" x1="494.481" y1="147.277" x2="559.914" y2="147.277"><stop offset="0" stop-color="red"/><stop offset=".216" stop-color="#c20000" stop-opacity=".784"/><stop offset=".604" stop-color="#5b0000" stop-opacity=".396"/><stop offset=".874" stop-color="#190000" stop-opacity=".126"/><stop offset="1" stop-opacity="0"/></linearGradient><path fill="url(#a)" d="M556.7 134.7c-.9.6-1.7 1.3-2.6 1.8l-1.7 1c-.6.3-1.1.6-1.7.9-1.2.6-2.3 1.2-3.5 1.7l-3.6 1.5c-1.2.5-2.4 1-3.6 1.4-1.2.4-2.4.9-3.7 1.3-1.2.4-2.5.8-3.7 1.2-1.2.3-2.5.7-3.7 1-2.5.6-5 1.2-7.6 1.6-1.3.2-2.5.4-3.8.6-1.3.2-2.5.4-3.8.6-1.3.2-2.5.4-3.8.6-1.3.2-2.6.4-3.8.5l-1.9.2-1.9.1c-1.3.1-2.6.1-3.9.1l.5-1c1 1 2.2 1.9 3.4 2.7 1.2.8 2.5 1.5 3.8 2.1.7.3 1.3.6 2 .8.7.2 1.3.5 2 .7.7.2 1.4.4 2 .6l2.1.5c1.4.2 2.8.4 4.2.4 1.4.1 2.8-.1 4.2-.1l2.1-.3 1-.2c.3-.1.7-.2 1-.3l2.1-.5.3-.1h.1c-.3.1-.1 0-.1 0h.1l.5-.2 1-.4c1.4-.6 2.8-1.1 4-1.8l1.9-.9 1.9-1c1.3-.7 2.5-1.4 3.7-2.2l1.8-1.2c.6-.4 1.2-.8 1.8-1.3 1.1-.9 2.3-1.8 3.3-2.8.6-.5 1.1-1 1.6-1.5l.8-.8.7-.8.7-.8.7-.8c.5-.6.9-1.1 1.3-1.7.6-1 1.2-2.1 1.8-3.2zm.6-.4c-.4 1.5-1 2.8-1.7 4.2-.7 1.3-1.5 2.6-2.4 3.9-.4.6-.9 1.2-1.4 1.8-.5.6-1 1.2-1.5 1.7s-1 1.1-1.6 1.6l-1.7 1.6c-.6.5-1.2 1-1.7 1.5-.6.5-1.2 1-1.8 1.4-1.2.9-2.5 1.8-3.8 2.5-.7.4-1.3.8-2 1.2l-2 1c-.7.3-1.4.7-2 1l-2 .9-1 .4-.5.2h-.1l-.2.1h-.1l-.3.1-2.3.6c-.4.1-.7.2-1.1.2l-1.2.1c-.8.1-1.5.2-2.3.3-1.6 0-3.1.1-4.7 0s-3.1-.4-4.6-.7l-2.2-.6c-.7-.2-1.5-.5-2.2-.8-1.4-.6-2.8-1.3-4.1-2.1-1.3-.8-2.6-1.7-3.8-2.6-1.2-1-2.3-2-3.3-3.1l-1-1.1 1.5.1c1.2.1 2.5.2 3.8.1 1.3 0 2.5-.1 3.8-.3 1.3-.1 2.5-.3 3.8-.5 1.3-.2 2.5-.5 3.8-.8 1.2-.3 2.5-.6 3.7-.9 1.2-.3 2.5-.7 3.7-1.1l7.3-2.2 7.3-2.2c1.2-.3 2.4-.8 3.7-1.1l3.6-1.2 3.6-1.2 1.8-.6c.6-.2 1.2-.4 1.8-.7l1.8-.7 1.7-.7c1.2-.4 2.3-1.1 3.5-1.6l.3-.1.1.4z"/><linearGradient id="b" gradientUnits="userSpaceOnUse" x1="478.213" y1="191.06" x2="572.2" y2="191.06"><stop offset="0" stop-color="red"/><stop offset=".216" stop-color="#c20000" stop-opacity=".784"/><stop offset=".604" stop-color="#5b0000" stop-opacity=".396"/><stop offset=".874" stop-color="#190000" stop-opacity=".126"/><stop offset="1" stop-opacity="0"/></linearGradient><path fill="url(#b)" d="M563.2 242l-.2.1H562.4l-.6.1c-.4.1-.9.1-1.3.2-.9.2-1.7.4-2.5.6-1.7.4-3.3 1-4.9 1.7-3.1 1.4-6 3.3-8.3 5.9-2.3 2.5-4 5.6-4.9 8.8-1 3.3-1.2 6.7-1.1 10.1l-1.2-.7c2.9-1.7 5.9-3.4 8.9-4.9 3-1.6 6.1-3.1 9.2-4.4 1.6-.7 3.2-1.3 4.8-1.8 1.6-.5 3.3-1 5.1-1.2.9-.1 1.9-.1 2.9 0 .5.1 1 .3 1.6.6.5.3 1 .8 1.3 1.4.3.6.4 1.2.4 1.7v1.4c0 .8-.1 1.7-.1 2.5-.1 1.7-.1 3.4-.1 5v5.1l.1 10.1c.1 6.8.2 13.5.4 20.3v1.4h-1.4c-5.6 0-11.3-.8-16.7-2.5-5.4-1.7-10.5-4.3-15.1-7.5s-8.7-7.1-12.4-11.3c-3.7-4.2-6.9-8.8-9.8-13.5-5.8-9.5-10.3-19.6-14.1-30-1.9-5.2-3.6-10.4-5.2-15.7-1.5-5.3-3-10.6-4.3-16-1.3-5.4-2.5-10.7-3.6-16.2-1.1-5.4-2.1-10.8-3-16.3-1.8-10.9-3.3-21.8-4.5-32.8-1.2-11-2.1-22-2.7-33-.3-5.5-.6-11-.7-16.6-.2-5.5-.3-11-.2-16.6v-1.9l1.9.6 5.5 1.7 2.7.9c.9.3 1.8.5 2.8.8l5.5 1.5c1.9.4 3.7.8 5.6 1.3l2.8.6c.9.2 1.9.3 2.8.5l5.6 1 5.7.8c1.9.3 3.8.5 5.7.7 1.9.2 3.8.5 5.7.6 1.9.2 3.8.3 5.7.5l5.7.3 5.7.2c1.9.1 3.8.1 5.7.1h5.7c1.9-.1 3.8-.1 5.7-.2 1.9-.1 3.8-.2 5.7-.4l1.7-.1v1.7l-.2 33-.2 33-.4 33-.5 33h-.3l-.6-33-.4-33-.3-33-.2-33 1.7 1.5c-2 .2-3.9.3-5.8.4-1.9.1-3.9.2-5.8.2l-5.8.1c-1.9 0-3.9 0-5.8-.1l-5.8-.2-5.8-.4c-1.9-.1-3.9-.3-5.8-.5-1.9-.1-3.8-.4-5.8-.6-1.9-.2-3.8-.4-5.8-.8l-5.7-.9-5.7-1.1c-.9-.2-1.9-.4-2.9-.6l-2.8-.7c-1.9-.4-3.8-.9-5.7-1.3l-5.6-1.5c-.9-.3-1.9-.5-2.8-.8l-2.8-.9-5.5-1.8 1.9-1.3c-.1 5.5 0 11 .1 16.5s.3 11 .5 16.5.5 11 .9 16.5.8 11 1.3 16.5c1 11 2.2 21.9 3.9 32.8 1.6 10.9 3.7 21.7 6.3 32.4 1.3 5.4 2.7 10.7 4.3 15.9 1.6 5.3 3.3 10.5 5.3 15.6s4.1 10.2 6.5 15.1c2.4 4.9 5.1 9.7 8.1 14.3 3 4.6 6.3 9 9.9 13 3.7 4 7.7 7.7 12.2 10.7 4.5 3 9.3 5.4 14.5 7 5.1 1.6 10.5 2.4 15.9 2.4l-1.3 1.4c-.1-6.8-.2-13.6-.2-20.3V274l.1-5.1c0-1.7.1-3.4.1-5.1 0-.9.1-1.7.1-2.6 0-.4.1-.9.1-1.2 0-.3-.1-.6-.2-.8-.2-.4-.6-.6-1.2-.8-.6-.1-1.4-.1-2.2 0-1.6.2-3.2.6-4.7 1.1-1.6.5-3.1 1.1-4.7 1.7-3.1 1.2-6.2 2.6-9.2 4.1-3 1.5-6 3.1-8.9 4.7l-1.2.7v-1.4c-.1-3.5.3-7.1 1.4-10.6 1.1-3.4 3-6.6 5.5-9.1 2.5-2.6 5.6-4.5 8.8-5.8 1.6-.7 3.3-1.2 5-1.6.9-.2 1.7-.3 2.6-.5.4-.1.9-.1 1.3-.2l.7-.1h.6v.1l-.1.5z"/><g opacity=".7"><linearGradient id="c" gradientUnits="userSpaceOnUse" x1="572.2" y1="191.06" x2="478.213" y2="191.06"><stop offset="0" stop-opacity=".7"/><stop offset=".02" stop-color="#1b0000" stop-opacity=".677"/><stop offset=".061" stop-color="#4b0000" stop-opacity=".631"/><stop offset=".104" stop-color="#760000" stop-opacity=".582"/><stop offset=".15" stop-color="#9b0000" stop-opacity=".53"/><stop offset=".2" stop-color="#ba0000" stop-opacity=".474"/><stop offset=".253" stop-color="#d30000" stop-opacity=".414"/><stop offset=".312" stop-color="#e70000" stop-opacity=".347"/><stop offset=".38" stop-color="#f50000" stop-opacity=".27"/><stop offset=".465" stop-color="#fd0000" stop-opacity=".174"/><stop offset=".619" stop-color="red" stop-opacity="0"/></linearGradient><path fill="url(#c)" d="M563.2 242l-.2.1H562.4l-.6.1c-.4.1-.9.1-1.3.2-.9.2-1.7.4-2.5.6-1.7.4-3.3 1-4.9 1.7-3.1 1.4-6 3.3-8.3 5.9-2.3 2.5-4 5.6-4.9 8.8-1 3.3-1.2 6.7-1.1 10.1l-1.2-.7c2.9-1.7 5.9-3.4 8.9-4.9 3-1.6 6.1-3.1 9.3-4.4 1.6-.7 3.2-1.3 4.8-1.8 1.6-.5 3.3-1 5.1-1.2.9-.1 1.9-.1 2.9 0 .5.1 1 .3 1.6.6.5.3 1 .8 1.3 1.4.3.6.4 1.2.4 1.7v1.4c0 .8-.1 1.7-.1 2.5-.1 1.7-.1 3.4-.1 5v5.1l.1 10.1c.1 6.8.2 13.5.4 20.3v1.4h-1.4c-5.6 0-11.3-.8-16.7-2.5-5.4-1.7-10.5-4.3-15.1-7.5s-8.7-7.1-12.4-11.3c-3.7-4.2-6.9-8.8-9.8-13.5-5.8-9.5-10.3-19.6-14.1-30-1.9-5.2-3.6-10.4-5.2-15.7-1.5-5.3-3-10.6-4.3-16-1.3-5.4-2.5-10.7-3.6-16.2-1.1-5.4-2.1-10.8-3-16.3-1.8-10.9-3.3-21.8-4.5-32.8-1.2-11-2.1-22-2.7-33-.3-5.5-.6-11-.7-16.6-.2-5.5-.3-11-.2-16.6v-1.9l1.9.6 5.5 1.7 2.7.9c.9.3 1.8.5 2.8.8l5.5 1.5c1.9.4 3.7.8 5.6 1.3l2.8.6c.9.2 1.9.3 2.8.5l5.6 1 5.7.8c1.9.3 3.8.5 5.7.7 1.9.2 3.8.5 5.7.6 1.9.2 3.8.3 5.7.5l5.7.3 5.7.2c1.9.1 3.8.1 5.7.1h5.7c1.9-.1 3.8-.1 5.7-.2 1.9-.1 3.8-.2 5.7-.4l1.7-.1v1.7l-.2 33-.2 33-.4 33-.5 33h-.3l-.6-33-.4-33-.3-33-.2-33 1.7 1.5c-2 .2-3.9.3-5.8.4-1.9.1-3.9.2-5.8.2l-5.8.1c-1.9 0-3.9 0-5.8-.1l-5.8-.2-5.8-.4c-1.9-.1-3.9-.3-5.8-.5-1.9-.1-3.8-.4-5.8-.6-1.9-.2-3.8-.4-5.8-.8l-5.7-.9-5.7-1.1c-.9-.2-1.9-.4-2.9-.6l-2.8-.7c-1.9-.4-3.8-.9-5.7-1.3l-5.6-1.5c-.9-.3-1.9-.5-2.8-.8l-2.8-.9-5.5-1.8 1.9-1.3c-.1 5.5 0 11 .1 16.5s.3 11 .5 16.5.5 11 .9 16.5.8 11 1.3 16.5c1 11 2.2 21.9 3.9 32.8 1.6 10.9 3.7 21.7 6.3 32.4 1.3 5.4 2.7 10.7 4.3 15.9 1.6 5.3 3.3 10.5 5.3 15.6s4.1 10.2 6.5 15.1c2.4 4.9 5.1 9.7 8.1 14.3 3 4.6 6.3 9 9.9 13 3.7 4 7.7 7.7 12.2 10.7 4.5 3 9.3 5.4 14.5 7 5.1 1.6 10.5 2.4 15.9 2.4l-1.3 1.4c-.1-6.8-.2-13.6-.2-20.3V274l.1-5.1c0-1.7.1-3.4.1-5.1 0-.9.1-1.7.1-2.6 0-.4.1-.9.1-1.2 0-.3-.1-.6-.2-.8-.2-.4-.6-.6-1.2-.8-.6-.1-1.4-.1-2.2 0-1.6.2-3.2.6-4.7 1.1-1.6.5-3.1 1.1-4.7 1.7-3.1 1.2-6.2 2.6-9.2 4.1-3 1.5-6 3.1-8.9 4.7l-1.2.7v-1.4c-.1-3.5.3-7.1 1.4-10.6 1.1-3.4 3-6.6 5.5-9.1 2.5-2.6 5.6-4.5 8.8-5.8 1.6-.7 3.3-1.2 5-1.6.9-.2 1.7-.3 2.6-.5.4-.1.9-.1 1.3-.2l.7-.1h.6v.1l-.2.5z"/></g><g><linearGradient id="d" gradientUnits="userSpaceOnUse" x1="561.547" y1="171.47" x2="655.397" y2="171.47"><stop offset="0" stop-color="gray"/><stop offset=".271" stop-color="#a65a5a" stop-opacity=".729"/><stop offset=".766" stop-color="#e61919" stop-opacity=".234"/><stop offset="1" stop-color="red" stop-opacity="0"/></linearGradient><path fill="url(#d)" d="M563.2 257.7l.3 14.3.3 14.3-.7-.7c5.5-.1 11-.9 16.1-2.7 5.2-1.7 10.1-4.3 14.5-7.5s8.5-6.9 12.1-11.1c3.6-4.1 6.8-8.6 9.6-13.3 2.9-4.7 5.4-9.6 7.8-14.6 2.4-5 4.4-10.1 6.4-15.3 3.9-10.3 7.1-21 9.8-31.7 2.7-10.8 5-21.6 6.7-32.6.9-5.5 1.7-11 2.4-16.5s1.3-11 1.8-16.6c.5-5.5 1-11.1 1.3-16.6.3-5.5.6-11.1.8-16.6.4-11.1.6-22.2.4-33.3l1.5 1-5.5 2-2.7 1c-.9.3-1.8.6-2.8.9l-5.6 1.7c-1.9.5-3.7 1-5.6 1.5l-2.8.7c-.9.2-1.9.4-2.8.6l-5.7 1.2-5.7 1c-1.9.4-3.8.6-5.7.8-1.9.2-3.8.5-5.8.7l-5.8.6-5.8.4-5.8.3c-1.9.1-3.9.1-5.8.1h-5.8c-1.9-.1-3.9-.1-5.8-.2s-3.9-.2-5.8-.4l1.8-1.6v18.6l-.1 18.6-.3 37.1-.2 18.6-.2 18.6-.3 18.6-.4 18.6h-.3l-.4-18.6-.3-18.6-.2-18.6-.2-18.6-.3-37.1-.1-18.6V67.7l1.8.2c1.8.2 3.8.3 5.7.4 1.9.1 3.8.2 5.7.2 1.9 0 3.8.1 5.7.1 1.9 0 3.8 0 5.7-.1l5.7-.2 5.7-.4 5.7-.5c1.9-.1 3.8-.4 5.7-.7 1.9-.2 3.8-.5 5.7-.8l5.7-.9 5.6-1.1c.9-.2 1.9-.4 2.8-.6l2.8-.7c1.9-.5 3.7-.9 5.6-1.4l5.5-1.6c.9-.3 1.8-.5 2.8-.8l2.7-.9 5.4-1.9 1.5-.5v1.6c0 5.6-.1 11.1-.3 16.7-.2 5.6-.5 11.1-.8 16.7-.3 5.6-.7 11.1-1.2 16.6-.5 5.5-.9 11.1-1.5 16.6-.6 5.5-1.2 11.1-1.9 16.6-.7 5.5-1.5 11-2.3 16.5-.8 5.5-1.7 11-2.7 16.5-1 5.5-2.1 10.9-3.3 16.4-1.2 5.4-2.6 10.8-4.1 16.2-.7 2.7-1.6 5.4-2.4 8-.9 2.7-1.7 5.3-2.7 7.9-1.9 5.3-4 10.5-6.4 15.5-2.4 5.1-5 10-8 14.8-3 4.8-6.3 9.3-10 13.6-3.7 4.2-7.9 8.1-12.6 11.3-4.7 3.2-9.8 5.8-15.2 7.4-5.4 1.7-11.1 2.4-16.7 2.4h-.7v-.7l.3-14.3.3-14.3.4.2z"/><linearGradient id="e" gradientUnits="userSpaceOnUse" x1="561.556" y1="225.361" x2="598.432" y2="225.361"><stop offset="0" stop-color="gray"/><stop offset=".271" stop-color="#a65a5a" stop-opacity=".729"/><stop offset=".766" stop-color="#e61919" stop-opacity=".234"/><stop offset="1" stop-color="red" stop-opacity="0"/></linearGradient><path fill="url(#e)" d="M562.9 241.9s.1-.2.2-.2h.1l.2-.1.4-.1.7-.3 1.5-.6 2.9-1.2c1-.4 1.9-.8 2.8-1.2.9-.4 1.9-.8 2.8-1.3.9-.5 1.8-.9 2.7-1.4.9-.5 1.8-1 2.7-1.4 1.8-1 3.5-2 5.2-3.1.9-.6 1.7-1.1 2.5-1.8a21.976 21.976 0 0 0 4.3-4.3c.6-.8 1.1-1.7 1.6-2.6.9-1.8 1.6-3.8 1.9-5.8.3-2 .4-4 .3-6l1.8 1.1c-2.8 1.6-5.6 3-8.5 4.4-1.4.7-2.9 1.3-4.4 1.9-1.5.6-3 1.1-4.5 1.7-1.5.5-3.1 1-4.6 1.4-1.6.4-3.2.7-4.8.9-1.6.2-3.3.2-5-.2-.8-.2-1.7-.7-2.3-1.5-.6-.8-.6-1.7-.4-2.5h.3c.1.8.3 1.5.8 1.9.5.4 1.2.6 1.9.7 1.4.1 2.9-.2 4.4-.6 1.5-.4 2.9-.8 4.4-1.3 1.5-.5 2.9-1.1 4.4-1.6l4.3-1.8 4.3-1.8c2.9-1.2 5.8-2.5 8.6-3.7l1.9-.9-.1 2c-.2 4.4-1.7 8.6-3.8 12.2-.5.9-1.1 1.8-1.7 2.7-.6.9-1.2 1.7-1.9 2.6-1.3 1.6-2.8 3.3-4.4 4.7-1.6 1.4-3.3 2.7-5.2 3.8-.9.5-1.9 1-2.8 1.5-1 .4-1.9.9-2.9 1.3s-2 .7-3 1c-1 .3-2 .6-3.1.8-1 .2-2.1.4-3.1.6-.5.1-1 .1-1.6.2-.3 0-.5.1-.8.1H563.2v-.1-.1h-.3z"/><g><linearGradient id="f" gradientUnits="userSpaceOnUse" x1="573.636" y1="113.953" x2="639.069" y2="113.953"><stop offset="0" stop-color="gray"/><stop offset=".271" stop-color="#a65a5a" stop-opacity=".729"/><stop offset=".766" stop-color="#e61919" stop-opacity=".234"/><stop offset="1" stop-color="red" stop-opacity="0"/></linearGradient><path fill="url(#f)" d="M576.8 126.5c.9-.6 1.7-1.3 2.6-1.8l1.7-1c.6-.3 1.1-.6 1.7-.9 1.2-.6 2.3-1.2 3.5-1.7l3.6-1.5c1.2-.5 2.4-1 3.6-1.4 1.2-.4 2.4-.9 3.7-1.3 1.2-.4 2.5-.8 3.7-1.2 1.2-.3 2.5-.7 3.7-1 2.5-.6 5-1.2 7.6-1.6 1.3-.2 2.5-.4 3.8-.6 1.3-.2 2.5-.4 3.8-.6 1.3-.2 2.5-.4 3.8-.6 1.3-.2 2.6-.4 3.8-.5l1.9-.2 1.9-.1c1.3-.1 2.6-.1 3.9-.1l-.5 1c-1-1-2.2-1.9-3.4-2.7-1.2-.8-2.5-1.5-3.8-2.1-.7-.3-1.3-.6-2-.8-.7-.2-1.3-.5-2-.7-.7-.2-1.4-.4-2-.6l-2.1-.5c-1.4-.2-2.8-.4-4.2-.4-1.4-.1-2.8.1-4.2.1l-2.1.3-1 .2c-.3.1-.7.2-1 .3l-1.8.5-.3.1h-.1c.3-.1.1 0 .1 0h-.1l-.5.2-1 .4c-1.4.6-2.8 1.1-4 1.8l-1.9.9-1.9 1c-1.3.7-2.5 1.4-3.7 2.2l-1.8 1.2c-.6.4-1.2.8-1.8 1.3-1.1.9-2.3 1.8-3.3 2.8-.6.5-1.1 1-1.6 1.5l-.8.8-.7.8-.7.8-.7.8c-.5.6-.9 1.1-1.3 1.7-.8 1-1.5 2.1-2.1 3.2zm-.6.5c.4-1.5 1-2.8 1.7-4.2.7-1.3 1.5-2.6 2.4-3.9.4-.6.9-1.2 1.4-1.8.5-.6 1-1.2 1.5-1.7s1-1.1 1.6-1.6l1.7-1.6c.6-.5 1.2-1 1.7-1.5.6-.5 1.2-1 1.8-1.4 1.2-.9 2.5-1.8 3.8-2.5.7-.4 1.3-.8 2-1.2l2-1c.7-.3 1.4-.7 2-1l2-.9 1-.4.5-.2h.1l.2-.1h.1l.3-.1 2.3-.6c.4-.1.7-.2 1.1-.2l1.2-.1c.8-.1 1.5-.2 2.3-.3 1.6 0 3.1-.1 4.7 0s3.1.4 4.6.7l2.2.6c.7.2 1.5.5 2.2.8 1.4.6 2.8 1.3 4.1 2.1 1.3.8 2.6 1.7 3.8 2.6 1.2 1 2.3 2 3.3 3.1l1 1.1-1.5-.1c-1.2-.1-2.5-.2-3.8-.1-1.3 0-2.5.1-3.8.3-1.3.1-2.5.3-3.8.5-1.3.2-2.5.5-3.8.8-1.2.3-2.5.6-3.7.9-1.2.3-2.5.7-3.7 1.1l-7.3 2.2-7.3 2.2c-1.2.3-2.4.8-3.7 1.1l-3.6 1.2-3.6 1.2-1.8.6c-.6.2-1.2.4-1.8.7l-1.8.7-1.7.7c-1.2.4-2.3 1.1-3.5 1.6l-.3.1-.1-.4z"/></g></g><g><linearGradient id="g" gradientUnits="userSpaceOnUse" x1="655.397" y1="171.47" x2="561.547" y2="171.47"><stop offset="0" stop-color="#666"/><stop offset=".379" stop-color="#a53c3c" stop-opacity=".621"/><stop offset=".801" stop-color="#e61111" stop-opacity=".199"/><stop offset="1" stop-color="red" stop-opacity="0"/></linearGradient><path fill="url(#g)" d="M563.2 257.7l.3 14.3.3 14.3-.7-.7c5.5-.1 11-.9 16.1-2.7 5.2-1.7 10.1-4.3 14.5-7.5s8.5-6.9 12.1-11.1c3.6-4.1 6.8-8.6 9.6-13.3 2.9-4.7 5.4-9.6 7.8-14.6 2.4-5 4.4-10.1 6.4-15.3 3.9-10.3 7.1-21 9.8-31.7 2.7-10.8 5-21.6 6.7-32.6.9-5.5 1.7-11 2.4-16.5s1.3-11 1.8-16.6c.5-5.5 1-11.1 1.3-16.6.3-5.5.6-11.1.8-16.6.4-11.1.6-22.2.4-33.3l1.5 1-5.5 2-2.7 1c-.9.3-1.8.6-2.8.9l-5.6 1.7c-1.9.5-3.7 1-5.6 1.5l-2.8.7c-.9.2-1.9.4-2.8.6l-5.7 1.2-5.7 1c-1.9.4-3.8.6-5.7.8-1.9.2-3.8.5-5.8.7l-5.8.6-5.8.4-5.8.3c-1.9.1-3.9.1-5.8.1h-5.8c-1.9-.1-3.9-.1-5.8-.2s-3.9-.2-5.8-.4l1.8-1.6v18.6l-.1 18.6-.3 37.1-.2 18.6-.2 18.6-.3 18.6-.4 18.6h-.3l-.4-18.6-.3-18.6-.2-18.6-.2-18.6-.3-37.1-.1-18.6V67.7l1.8.2c1.8.2 3.8.3 5.7.4 1.9.1 3.8.2 5.7.2 1.9 0 3.8.1 5.7.1 1.9 0 3.8 0 5.7-.1l5.7-.2 5.7-.4 5.7-.5c1.9-.1 3.8-.4 5.7-.7 1.9-.2 3.8-.5 5.7-.8l5.7-.9 5.6-1.1c.9-.2 1.9-.4 2.8-.6l2.8-.7c1.9-.5 3.7-.9 5.6-1.4l5.5-1.6c.9-.3 1.8-.5 2.8-.8l2.7-.9 5.4-1.9 1.5-.5v1.6c0 5.6-.1 11.1-.3 16.7-.2 5.6-.5 11.1-.8 16.7-.3 5.6-.7 11.1-1.2 16.6-.5 5.5-.9 11.1-1.5 16.6-.6 5.5-1.2 11.1-1.9 16.6-.7 5.5-1.5 11-2.3 16.5-.8 5.5-1.7 11-2.7 16.5-1 5.5-2.1 10.9-3.3 16.4-1.2 5.4-2.6 10.8-4.1 16.2-.7 2.7-1.6 5.4-2.4 8-.9 2.7-1.7 5.3-2.7 7.9-1.9 5.3-4 10.5-6.4 15.5-2.4 5.1-5 10-8 14.8-3 4.8-6.3 9.3-10 13.6-3.7 4.2-7.9 8.1-12.6 11.3-4.7 3.2-9.8 5.8-15.2 7.4-5.4 1.7-11.1 2.4-16.7 2.4h-.7v-.7l.3-14.3.3-14.3.4.2z"/><linearGradient id="h" gradientUnits="userSpaceOnUse" x1="598.432" y1="225.361" x2="561.556" y2="225.361"><stop offset="0" stop-color="#666"/><stop offset=".379" stop-color="#a53c3c" stop-opacity=".621"/><stop offset=".801" stop-color="#e61111" stop-opacity=".199"/><stop offset="1" stop-color="red" stop-opacity="0"/></linearGradient><path fill="url(#h)" d="M562.9 241.9s.1-.2.2-.2h.1l.2-.1.4-.1.7-.3 1.5-.6 2.9-1.2c1-.4 1.9-.8 2.8-1.2.9-.4 1.9-.8 2.8-1.3.9-.5 1.8-.9 2.7-1.4.9-.5 1.8-1 2.7-1.4 1.8-1 3.5-2 5.2-3.1.9-.6 1.7-1.1 2.5-1.8a21.976 21.976 0 0 0 4.3-4.3c.6-.8 1.1-1.7 1.6-2.6.9-1.8 1.6-3.8 1.9-5.8.3-2 .4-4 .3-6l1.8 1.1c-2.8 1.6-5.6 3-8.5 4.4-1.4.7-2.9 1.3-4.4 1.9-1.5.6-3 1.1-4.5 1.7-1.5.5-3.1 1-4.6 1.4-1.6.4-3.2.7-4.8.9-1.6.2-3.3.2-5-.2-.8-.2-1.7-.7-2.3-1.5-.6-.8-.6-1.7-.4-2.5h.3c.1.8.3 1.5.8 1.9.5.4 1.2.6 1.9.7 1.4.1 2.9-.2 4.4-.6 1.5-.4 2.9-.8 4.4-1.3 1.5-.5 2.9-1.1 4.4-1.6l4.3-1.8 4.3-1.8c2.9-1.2 5.8-2.5 8.6-3.7l1.9-.9-.1 2c-.2 4.4-1.7 8.6-3.8 12.2-.5.9-1.1 1.8-1.7 2.7-.6.9-1.2 1.7-1.9 2.6-1.3 1.6-2.8 3.3-4.4 4.7-1.6 1.4-3.3 2.7-5.2 3.8-.9.5-1.9 1-2.8 1.5-1 .4-1.9.9-2.9 1.3s-2 .7-3 1c-1 .3-2 .6-3.1.8-1 .2-2.1.4-3.1.6-.5.1-1 .1-1.6.2-.3 0-.5.1-.8.1H563.2v-.1-.1h-.3z"/><g><linearGradient id="i" gradientUnits="userSpaceOnUse" x1="639.069" y1="113.953" x2="573.636" y2="113.953"><stop offset="0" stop-color="#666"/><stop offset=".379" stop-color="#a53c3c" stop-opacity=".621"/><stop offset=".801" stop-color="#e61111" stop-opacity=".199"/><stop offset="1" stop-color="red" stop-opacity="0"/></linearGradient><path fill="url(#i)" d="M576.8 126.5c.9-.6 1.7-1.3 2.6-1.8l1.7-1c.6-.3 1.1-.6 1.7-.9 1.2-.6 2.3-1.2 3.5-1.7l3.6-1.5c1.2-.5 2.4-1 3.6-1.4 1.2-.4 2.4-.9 3.7-1.3 1.2-.4 2.5-.8 3.7-1.2 1.2-.3 2.5-.7 3.7-1 2.5-.6 5-1.2 7.6-1.6 1.3-.2 2.5-.4 3.8-.6 1.3-.2 2.5-.4 3.8-.6 1.3-.2 2.5-.4 3.8-.6 1.3-.2 2.6-.4 3.8-.5l1.9-.2 1.9-.1c1.3-.1 2.6-.1 3.9-.1l-.5 1c-1-1-2.2-1.9-3.4-2.7-1.2-.8-2.5-1.5-3.8-2.1-.7-.3-1.3-.6-2-.8-.7-.2-1.3-.5-2-.7-.7-.2-1.4-.4-2-.6l-2.1-.5c-1.4-.2-2.8-.4-4.2-.4-1.4-.1-2.8.1-4.2.1l-2.1.3-1 .2c-.3.1-.7.2-1 .3l-1.8.5-.3.1h-.1c.3-.1.1 0 .1 0h-.1l-.5.2-1 .4c-1.4.6-2.8 1.1-4 1.8l-1.9.9-1.9 1c-1.3.7-2.5 1.4-3.7 2.2l-1.8 1.2c-.6.4-1.2.8-1.8 1.3-1.1.9-2.3 1.8-3.3 2.8-.6.5-1.1 1-1.6 1.5l-.8.8-.7.8-.7.8-.7.8c-.5.6-.9 1.1-1.3 1.7-.8 1-1.5 2.1-2.1 3.2zm-.6.5c.4-1.5 1-2.8 1.7-4.2.7-1.3 1.5-2.6 2.4-3.9.4-.6.9-1.2 1.4-1.8.5-.6 1-1.2 1.5-1.7s1-1.1 1.6-1.6l1.7-1.6c.6-.5 1.2-1 1.7-1.5.6-.5 1.2-1 1.8-1.4 1.2-.9 2.5-1.8 3.8-2.5.7-.4 1.3-.8 2-1.2l2-1c.7-.3 1.4-.7 2-1l2-.9 1-.4.5-.2h.1l.2-.1h.1l.3-.1 2.3-.6c.4-.1.7-.2 1.1-.2l1.2-.1c.8-.1 1.5-.2 2.3-.3 1.6 0 3.1-.1 4.7 0s3.1.4 4.6.7l2.2.6c.7.2 1.5.5 2.2.8 1.4.6 2.8 1.3 4.1 2.1 1.3.8 2.6 1.7 3.8 2.6 1.2 1 2.3 2 3.3 3.1l1 1.1-1.5-.1c-1.2-.1-2.5-.2-3.8-.1-1.3 0-2.5.1-3.8.3-1.3.1-2.5.3-3.8.5-1.3.2-2.5.5-3.8.8-1.2.3-2.5.6-3.7.9-1.2.3-2.5.7-3.7 1.1l-7.3 2.2-7.3 2.2c-1.2.3-2.4.8-3.7 1.1l-3.6 1.2-3.6 1.2-1.8.6c-.6.2-1.2.4-1.8.7l-1.8.7-1.7.7c-1.2.4-2.3 1.1-3.5 1.6l-.3.1-.1-.4z"/></g></g><g><text transform="matrix(1.0011 0 0 1 435.47 339.398)"><tspan x="0" y="0" fill="none" stroke="#000" stroke-miterlimit="10" font-family="'Helvetica-Light'" font-size="34.67">U N V E </tspan><tspan x="131" y="0" fill="none" stroke="#F00" stroke-miterlimit="10" font-family="'Helvetica-Light'" font-size="34.67">I </tspan><tspan x="150.3" y="0" fill="none" stroke="#000" stroke-miterlimit="10" font-family="'Helvetica-Light'" font-size="34.67">L I N G</tspan></text></g></svg>