<svg xmlns="http://www.w3.org/2000/svg" width="1201" height="404.521" viewBox="0 0 1201 404.521"><path stroke="#000" d="M.5.5h1200v400H.5z"/><g fill="#FFF" font-family="'Helvetica'" font-size="7.115"><text transform="translate(502.482 33.209)">LegacyLEG</text><text transform="translate(539.663 33.209)">A</text><text transform="translate(681.953 33.209)">CYlegacyLeG</text><text transform="translate(725.85 33.209)">A</text><text transform="translate(732.191 33.209)"></text><text transform="translate(493.575 41.746)">CyLEGacylega</text><text transform="translate(673.703 41.746)">CYLegacyLEGA</text><text transform="translate(725.127 41.746)"></text><text transform="translate(487.517 50.287)">CYlegacyLeGACyLE</text><text transform="translate(669.608 50.287)">GacylegaCYLegacy</text><text transform="translate(483.098 58.824)">LEGACYlegacyLeGAC</text><text transform="translate(668.121 58.824)">LEGacylegaCYLega</text><text transform="translate(736.549 58.824)"></text><text transform="translate(479.93 67.36)">cyLEGACYle gacyLeG</text><text transform="translate(551.896 67.36)">A</text><text transform="translate(669.645 67.36)">CyLEGacylegaCYLega</text><text transform="translate(480.74 75.897)">cyLEGACYlegac yLe</text><text transform="translate(672.813 75.897)">GACyLEGacyleg aCYLe</text><text transform="translate(483.125 84.435)">gacyLEGACYlega</text><text transform="translate(677.9 84.435)">cyLeGACyLEGacyle</text><text transform="translate(487.748 92.976)">gaCYLega cyLE</text><text transform="translate(685.27 92.976)">GACYlegacyLe</text><text transform="translate(497.244 101.508)">GACyLEGa</text><text transform="translate(688.063 101.508)">cylegaCYLe</text><text transform="translate(504.335 110.04)">gacyLEG</text><text transform="translate(533.6 110.04)">A</text><text transform="translate(676.464 110.04)">CYlegacyLe</text><text transform="translate(496.405 118.59)">GACyLEGacylega</text><text transform="translate(664.86 118.59)">CYLegacylegacyLe</text><text transform="translate(488.475 127.122)">GACyLEGacylegaCYLega</text><text transform="translate(653.258 127.122)">cyLEGACYlegacyLeG</text><text transform="translate(723.256 127.122)">A</text><text transform="translate(480.55 135.664)">CyLEGacylegaCYLegacyLEG</text><text transform="translate(575.07 135.664)">A</text><text transform="translate(641.66 135.664)">CYlegacyLeGACyL</text><text transform="translate(702.7 135.664)">EGacylega</text><text transform="translate(472.62 144.2)">CYLegacyLEGACYlegacyLeGACyLE</text><text transform="translate(630.06 144.2)">GacylegaCYLegacyLEGACYlegacyLe</text><text transform="translate(464.695 152.737)">GACyLEGacylegaCYLegacyLEGACYlega</text><text transform="translate(618.457 152.737)">cyLeGACyLEGacylegaCYLegacyLEGACYle</text><text transform="translate(456.77 161.273)">gacyLe GACyLEGacylega</text><text transform="translate(560.73 161.273)">CYLegacyLEgacyLegacyLEG</text><text transform="translate(654.462 161.273)">A</text><text transform="translate(680.285 161.273)">CYlegacyLeG</text><text transform="translate(724.182 161.273)">A</text><text transform="translate(730.519 161.273)">CyLEGacyle</text><text transform="translate(448.84 169.81)">gaCYLega</text><text transform="translate(500.791 169.81)">cyLEGACYlega</text><text transform="translate(574.546 169.81)">cyLeGACyLEGacylega</text><text transform="translate(677.39 169.81)">CYLegacy</text><text transform="translate(738.463 169.81)">LEGACYlega</text><text transform="translate(440.914 178.348)">cyLeGAC</text><text transform="translate(498.18 178.348)">LEGacylega</text><text transform="translate(588.355 178.348)">CYLega cyLE</text><text transform="translate(674.49 178.348)">GACYle gacyLe</text><text transform="translate(747.328 178.348)">GACyLEGa</text><text transform="translate(784.495 178.348)"></text><text transform="translate(436.009 186.889)">cylegaCYLe</text><text transform="translate(495.562 186.889)">gacyLEGACYlegac</text><text transform="translate(602.167 186.889)">yLeG</text><text transform="translate(619.17 186.889)">A</text><text transform="translate(671.596 186.889)">CyLEGacyleg</text><text transform="translate(756.198 186.889)">aCYLega</text><text transform="translate(436.227 195.42)">cyLEG</text><text transform="translate(457.58 195.42)">A</text><text transform="translate(492.954 195.42)">CYlegacyLeGACyLE</text><text transform="translate(668.691 195.42)">GacylegaCYLega cy</text><text transform="translate(765.064 195.42)">LEGA</text><text transform="translate(783.656 195.42)"></text><text transform="translate(436.444 203.962)">CYle</text><text transform="translate(490.337 203.962)">gacyLeGACyLEGacyle</text><text transform="translate(665.797 203.962)">gaCYLegacyLEGACYle</text><text transform="translate(773.93 203.962)">gacy</text><text transform="translate(487.73 212.504)">LeGACyLEGacylega</text><text transform="translate(662.896 212.504)">CYLegacyLEGACYlega</text><text transform="translate(485.117 221.035)">cyLeGACyLEGacylegaCY</text><text transform="translate(567.645 221.035)"></text><text transform="translate(659.997 221.035)">LegacyLEGACYlega cyLe</text><text transform="translate(482.504 229.577)">GaCy LEGacylegaCYLegacy</text><text transform="translate(657.102 229.577)">LEGACYlegacyLeGACyL</text><text transform="translate(737.12 229.577)"></text><text transform="translate(739.098 229.577)"></text><text transform="translate(479.892 238.113)">EGacylegaCYLegacyLEGAC</text><text transform="translate(571.642 238.113)">Y</text><text transform="translate(654.203 238.113)">legacyLeGACyLEGacylega</text><text transform="translate(477.28 246.65)">CYLegacyLEGACYlegacyLeG</text><text transform="translate(572.985 246.65)">A</text><text transform="translate(651.298 246.65)">CyLEGacylegaCYLegacyLEGAC</text><text transform="translate(755.703 246.65)"></text><text transform="translate(474.672 255.191)">YlegacyLeG</text><text transform="translate(513.428 255.191)">A</text><text transform="translate(529.246 255.191)">CyLEGacylega</text><text transform="translate(648.403 255.191)">CYLegacyLEG</text><text transform="translate(695.464 255.191)">A</text><text transform="translate(709.6 255.191)">CYlegacyLe</text><text transform="translate(749.936 255.191)"></text><text transform="translate(472.055 263.724)">GACyLEGa</text><text transform="translate(533.554 263.724)">cylegaCYLega</text><text transform="translate(645.508 263.724)">cyLEgacyLega</text><text transform="translate(713.273 263.724)">cyLEGACYleg</text><text transform="translate(469.447 272.26)">acyLeGACy</text><text transform="translate(537.856 272.26)">LEGacylega</text><text transform="translate(642.608 272.26)">CYLegacyLE</text><text transform="translate(716.951 272.26)">GACYlega</text><text transform="translate(466.83 280.802)">cyLeGACyLE</text><text transform="translate(542.16 280.802)">GacylegaCYLe</text><text transform="translate(639.709 280.802)">gacy LEGACY</text><text transform="translate(685.459 280.802)"></text><text transform="translate(720.629 280.802)">legacyLeGAC</text><text transform="translate(764.521 280.802)"></text><text transform="translate(464.222 289.339)">LEGacylega</text><text transform="translate(546.463 289.339)">CYLegacyLEG</text><text transform="translate(636.814 289.339)">ACYle gacyLe</text><text transform="translate(724.303 289.339)">GACyLEGa</text><text transform="translate(761.47 289.339)"></text><text transform="translate(461.61 297.875)">cylegaCYLe</text><text transform="translate(550.766 297.875)">gacyLEGAC</text><text transform="translate(589.91 297.875)">Y</text><text transform="translate(633.914 297.875)">legacyLeG</text><text transform="translate(667.927 297.875)">A</text><text transform="translate(727.98 297.875)">CyLEGacyleg</text><text transform="translate(458.998 306.417)">aCYLega</text><text transform="translate(555.069 306.417)">cyLEGACYle</text><text transform="translate(631.015 306.417)">gacyLeG</text><text transform="translate(659.487 306.417)">A</text><text transform="translate(731.653 306.417)">CyLegacyle</text><text transform="translate(456.385 314.948)">gaCYLega</text><text transform="translate(559.368 314.948)">cyLEGACYle</text><text transform="translate(628.115 314.948)">gacyLeG</text><text transform="translate(656.592 314.948)">A</text><text transform="translate(735.332 314.948)">CyLEGa</text><text transform="translate(762.22 314.948)"></text><text transform="translate(453.772 323.49)">cylegaCYLe</text><text transform="translate(739.004 323.49)">gacyLEG</text><text transform="translate(768.27 323.49)">A</text><text transform="translate(451.165 332.031)">CYlega</text><text transform="translate(742.682 332.031)">cyLeGAC</text><text transform="translate(773.133 332.031)">y</text></g><path fill="none" d="M490.097 329.334h245.987v55.497H490.097z"/><text transform="translate(490.097 372.474)" fill="#EF4136" font-family="'Helvetica'" font-size="60">LEGACY</text></svg>