<svg id="Layer_1" data-name="Layer 1" xmlns="http://www.w3.org/2000/svg" viewBox="0 0 86 75"><defs><style>.cls-1{fill:#72958b;}</style></defs><title>Artboard 1</title><path class="cls-1" d="M53.45,3.44a3.87,3.87,0,0,1-.7,2L7.85,68.19H53.1v4.25H1V70.59a2.54,2.54,0,0,1,.17-1,5.49,5.49,0,0,1,.42-.82l45-62.85H2.3V1.69H53.45Zm-2.36,69q-1.22,0-1.22-1.34V38.8q0-1.34,1.22-1.34h5.2q.93,0,1.39,1.46l7,21.9q1.07,3.37,1.27,4.06t.56,2.55h.15q.37-1.86.56-2.55t1.27-4.06l7-21.9q.46-1.46,1.39-1.46H82q1.22,0,1.22,1.34V71.12q0,1.34-1.22,1.34H79.8q-1.22,0-1.22-1.34V45.51q0-1,0-2h-.1L69.53,71q-.49,1.49-1.61,1.49H65.23q-1.12,0-1.61-1.49l-9-27.42h-.1q0,1,0,2V71.12q0,1.34-1.22,1.34Z"/></svg>