<?xml version="1.0" encoding="utf-8"?>
<!-- Generator: Adobe Illustrator 16.0.4, SVG Export Plug-In . SVG Version: 6.00 Build 0)  -->
<!DOCTYPE svg PUBLIC "-//W3C//DTD SVG 1.1//EN" "http://www.w3.org/Graphics/SVG/1.1/DTD/svg11.dtd">
<svg version="1.1" id="Layer_1" xmlns="http://www.w3.org/2000/svg" xmlns:xlink="http://www.w3.org/1999/xlink" x="0px" y="0px"
	 width="340px" height="340px" viewBox="0 0 340 340" enable-background="new 0 0 340 340" xml:space="preserve">
<g>
	<path d="M239.826,99.92L135.211,235.174h104.614v9.277H102.497v-3.662l101.44-131.591h-101.44V99.92H239.826z"/>
</g>
<polygon points="452,142 468,170 452,198 412,170 "/>
<polygon points="652,199 636,171 652,143 692,171 "/>
<g>
	<polygon points="72,142 88,170 72,198 32,170 	"/>
	<path fill="none" stroke="#000000" stroke-width="3" stroke-miterlimit="10" d="M70.333,141.833L39.25,110.75L73,74
		c0,0,18.667-22.667,38.667-24.5"/>
	<path fill="none" stroke="#000000" stroke-width="3" stroke-miterlimit="10" d="M69.333,197.5L38.25,228.584L72,265.334
		c0,0,18.667,22.667,38.667,24.5"/>
</g>
<g>
	<polygon points="268,198 252,170 268,142 308,170 	"/>
	<path fill="none" stroke="#000000" stroke-width="3" stroke-miterlimit="10" d="M270.583,141.834l31.083-31.084L267.917,74
		c0,0-18.667-22.667-38.667-24.5"/>
	<path fill="none" stroke="#000000" stroke-width="3" stroke-miterlimit="10" d="M270.583,198.5l31.083,31.084l-33.75,36.75
		c0,0-18.667,22.667-38.667,24.5"/>
</g>
<g>
	<g>
		<path d="M131.293,39.106l6,16.107l6.12-16.107h2.613V58h-2.014V42.493L138.333,58h-1.827l-5.787-15.507V58h-2.027V39.106H131.293z
			"/>
		<path d="M148.933,51.227c0-0.969,0.135-1.88,0.407-2.733c0.271-0.853,0.667-1.6,1.187-2.24s1.162-1.145,1.927-1.513
			c0.764-0.369,1.64-0.554,2.626-0.554c0.987,0,1.867,0.185,2.64,0.554c0.773,0.369,1.422,0.873,1.947,1.513
			c0.524,0.64,0.924,1.387,1.2,2.24c0.275,0.854,0.414,1.765,0.414,2.733c0,0.969-0.138,1.88-0.414,2.733s-0.675,1.596-1.2,2.227
			c-0.525,0.631-1.173,1.131-1.947,1.5s-1.653,0.554-2.64,0.554c-0.986,0-1.862-0.185-2.626-0.554
			c-0.765-0.369-1.407-0.869-1.927-1.5c-0.52-0.631-0.916-1.373-1.187-2.227C149.068,53.106,148.933,52.196,148.933,51.227z
			 M150.92,51.227c0,0.72,0.095,1.4,0.287,2.04c0.191,0.64,0.466,1.196,0.827,1.667c0.36,0.472,0.797,0.845,1.313,1.12
			c0.516,0.276,1.094,0.414,1.733,0.414c0.64,0,1.218-0.138,1.733-0.414c0.516-0.275,0.954-0.648,1.313-1.12
			c0.36-0.471,0.638-1.026,0.833-1.667c0.195-0.64,0.293-1.32,0.293-2.04c0-0.72-0.098-1.4-0.293-2.04
			c-0.196-0.64-0.474-1.2-0.833-1.68s-0.798-0.858-1.313-1.133s-1.093-0.414-1.733-0.414c-0.64,0-1.218,0.138-1.733,0.414
			s-0.953,0.653-1.313,1.133c-0.36,0.48-0.636,1.04-0.827,1.68C151.015,49.827,150.92,50.507,150.92,51.227z"/>
		<path d="M164.146,44.427h1.987l-0.08,2.08c0.418-0.755,0.914-1.331,1.487-1.727c0.573-0.395,1.242-0.593,2.007-0.593
			c0.142,0,0.3,0.014,0.473,0.04c0.173,0.027,0.327,0.067,0.46,0.12V46.4c-0.427-0.151-0.756-0.227-0.987-0.227
			c-0.533,0-1.006,0.1-1.42,0.3c-0.413,0.2-0.765,0.467-1.053,0.8c-0.289,0.333-0.509,0.72-0.66,1.16
			c-0.151,0.44-0.227,0.9-0.227,1.38V58h-1.987V44.427z"/>
		<path d="M184.413,58.333c0,0.933-0.16,1.755-0.48,2.466c-0.32,0.711-0.747,1.307-1.28,1.787c-0.533,0.48-1.145,0.842-1.833,1.087
			c-0.689,0.244-1.402,0.367-2.14,0.367c-0.64,0-1.24-0.08-1.8-0.24c-0.56-0.16-1.075-0.409-1.546-0.747s-0.889-0.767-1.253-1.287
			c-0.365-0.52-0.671-1.14-0.92-1.86h2.013c0.374,0.827,0.844,1.424,1.414,1.793c0.569,0.369,1.267,0.553,2.093,0.553
			c0.507,0,0.984-0.096,1.433-0.287c0.449-0.191,0.842-0.456,1.18-0.793s0.604-0.74,0.8-1.207c0.196-0.467,0.293-0.976,0.293-1.527
			v-2.373c-0.471,0.738-1.042,1.295-1.713,1.673c-0.671,0.377-1.358,0.566-2.06,0.566c-0.924,0-1.753-0.187-2.486-0.56
			c-0.733-0.373-1.36-0.882-1.88-1.526s-0.917-1.398-1.193-2.26c-0.275-0.862-0.413-1.782-0.413-2.76
			c0-0.978,0.138-1.894,0.413-2.747c0.276-0.853,0.667-1.595,1.173-2.227c0.507-0.631,1.116-1.128,1.827-1.493
			c0.711-0.364,1.502-0.547,2.374-0.547c0.302,0,0.625,0.034,0.967,0.1c0.342,0.067,0.687,0.182,1.033,0.347s0.687,0.389,1.02,0.673
			c0.333,0.285,0.646,0.64,0.94,1.067v-1.947h2.027V58.333z M182.386,51.04c-0.018-0.702-0.111-1.362-0.28-1.98
			c-0.169-0.618-0.409-1.155-0.72-1.613s-0.693-0.82-1.146-1.087c-0.454-0.267-0.965-0.4-1.534-0.4
			c-0.586,0-1.129,0.136-1.626,0.407c-0.498,0.271-0.929,0.645-1.293,1.12c-0.364,0.476-0.649,1.031-0.853,1.667
			c-0.205,0.636-0.307,1.318-0.307,2.047s0.102,1.416,0.307,2.06c0.204,0.645,0.489,1.209,0.853,1.693
			c0.365,0.485,0.795,0.867,1.293,1.147c0.498,0.28,1.04,0.42,1.626,0.42c0.587,0,1.109-0.138,1.567-0.414
			c0.458-0.275,0.842-0.651,1.153-1.126s0.549-1.033,0.713-1.673s0.247-1.324,0.247-2.053V51.04z"/>
		<path d="M187.666,48.067c0.036-0.667,0.218-1.245,0.547-1.733c0.329-0.489,0.744-0.894,1.247-1.213
			c0.502-0.32,1.06-0.556,1.673-0.707c0.613-0.151,1.222-0.227,1.827-0.227c0.667,0,1.315,0.073,1.947,0.22
			c0.631,0.146,1.191,0.38,1.68,0.7c0.489,0.32,0.88,0.736,1.173,1.247c0.293,0.511,0.44,1.126,0.44,1.847v7.146
			c0,0.142,0.027,0.285,0.08,0.427c0.054,0.142,0.125,0.269,0.213,0.38c0.089,0.111,0.193,0.2,0.313,0.267
			c0.12,0.067,0.247,0.1,0.38,0.1c0.098,0,0.198-0.011,0.3-0.033c0.102-0.022,0.22-0.056,0.353-0.1v1.64
			c-0.285,0.08-0.526,0.14-0.727,0.18s-0.42,0.06-0.66,0.06c-0.578,0-1.056-0.213-1.433-0.64c-0.378-0.426-0.593-1.084-0.647-1.973
			c-0.426,0.56-0.849,1.011-1.267,1.354s-0.833,0.606-1.247,0.793c-0.413,0.187-0.831,0.311-1.253,0.374
			c-0.422,0.062-0.851,0.093-1.287,0.093c-0.56,0-1.084-0.089-1.573-0.267s-0.913-0.433-1.273-0.767
			c-0.36-0.333-0.645-0.735-0.853-1.207c-0.209-0.471-0.313-0.996-0.313-1.574c0-0.578,0.126-1.073,0.38-1.486
			c0.253-0.414,0.589-0.767,1.007-1.06c0.417-0.293,0.893-0.542,1.427-0.747c0.533-0.205,1.075-0.387,1.626-0.547
			s1.093-0.311,1.626-0.453c0.534-0.142,1.009-0.302,1.427-0.48s0.753-0.385,1.007-0.62s0.38-0.522,0.38-0.86
			c0-0.791-0.289-1.362-0.867-1.713s-1.382-0.527-2.413-0.527c-0.4,0-0.78,0.04-1.14,0.12s-0.678,0.205-0.953,0.373
			c-0.276,0.169-0.507,0.387-0.693,0.653c-0.187,0.267-0.307,0.587-0.36,0.96H187.666z M196.186,50.333
			c-0.275,0.293-0.638,0.538-1.086,0.733c-0.449,0.195-0.929,0.371-1.44,0.526c-0.511,0.156-1.027,0.305-1.547,0.447
			s-0.989,0.313-1.407,0.513c-0.418,0.2-0.758,0.442-1.02,0.727c-0.262,0.285-0.393,0.64-0.393,1.067c0,0.391,0.066,0.722,0.2,0.993
			c0.133,0.271,0.311,0.496,0.534,0.673c0.222,0.178,0.473,0.307,0.753,0.387c0.28,0.08,0.562,0.12,0.847,0.12
			c0.835,0,1.651-0.251,2.447-0.753c0.795-0.502,1.5-1.278,2.113-2.327V50.333z"/>
		<path d="M202.706,44.427h2.014v2.053c0.702-0.809,1.462-1.394,2.28-1.753s1.653-0.54,2.507-0.54c0.64,0,1.211,0.093,1.713,0.28
			c0.502,0.187,0.929,0.456,1.28,0.807s0.618,0.778,0.8,1.28c0.182,0.502,0.273,1.069,0.273,1.7V58h-1.986v-9.507
			c0-0.462-0.056-0.855-0.167-1.18c-0.111-0.325-0.273-0.587-0.486-0.787c-0.213-0.2-0.474-0.345-0.78-0.434
			s-0.651-0.133-1.033-0.133c-0.613,0-1.187,0.109-1.72,0.327c-0.533,0.218-1,0.507-1.4,0.867s-0.713,0.773-0.94,1.24
			c-0.227,0.466-0.34,0.949-0.34,1.446V58h-2.014V44.427z"/>
	</g>
	<g>
		<path d="M130.693,280.606h7.013c1.253,0,2.382,0.249,3.387,0.747s1.86,1.173,2.567,2.026c0.707,0.854,1.249,1.852,1.626,2.993
			c0.378,1.143,0.567,2.358,0.567,3.646c0,1.343-0.2,2.592-0.6,3.747s-0.96,2.158-1.68,3.007c-0.72,0.849-1.578,1.516-2.573,2
			s-2.093,0.727-3.293,0.727h-7.013V280.606z M132.68,297.673h4.213c0.995,0,1.915-0.171,2.76-0.513
			c0.844-0.342,1.573-0.84,2.187-1.493s1.093-1.454,1.44-2.4s0.52-2.02,0.52-3.22c0-1.307-0.173-2.44-0.52-3.4
			s-0.829-1.751-1.446-2.373c-0.618-0.622-1.349-1.085-2.193-1.387c-0.845-0.302-1.76-0.453-2.747-0.453h-4.213V297.673z"/>
		<path d="M150.826,293.087c0.009,0.631,0.12,1.244,0.333,1.84s0.504,1.122,0.874,1.58c0.369,0.458,0.802,0.824,1.3,1.1
			c0.498,0.275,1.036,0.413,1.613,0.413c1.956,0,3.249-0.906,3.88-2.72h1.827c-0.151,0.712-0.409,1.345-0.773,1.9
			c-0.365,0.556-0.802,1.022-1.313,1.399c-0.511,0.378-1.076,0.667-1.693,0.867c-0.618,0.2-1.26,0.3-1.927,0.3
			c-0.951,0-1.811-0.195-2.58-0.587c-0.769-0.391-1.422-0.917-1.96-1.58c-0.538-0.662-0.953-1.431-1.247-2.307
			c-0.293-0.875-0.44-1.802-0.44-2.779c0-0.907,0.145-1.773,0.433-2.601c0.289-0.826,0.702-1.553,1.24-2.18
			c0.538-0.627,1.188-1.124,1.953-1.493s1.622-0.554,2.574-0.554c0.915,0,1.744,0.167,2.486,0.5s1.374,0.794,1.894,1.38
			c0.52,0.587,0.92,1.285,1.2,2.094c0.28,0.809,0.42,1.685,0.42,2.627v0.8H150.826z M158.853,291.526
			c-0.018-0.568-0.122-1.102-0.313-1.6c-0.191-0.498-0.462-0.929-0.813-1.293c-0.352-0.365-0.773-0.651-1.267-0.86
			c-0.493-0.209-1.051-0.313-1.673-0.313c-0.56,0-1.078,0.111-1.553,0.333c-0.476,0.223-0.891,0.522-1.247,0.9
			s-0.636,0.812-0.84,1.3c-0.205,0.489-0.312,1-0.32,1.533H158.853z"/>
		<path d="M165.879,295.3c0.009,0.498,0.096,0.92,0.26,1.267c0.164,0.347,0.384,0.627,0.66,0.84c0.275,0.214,0.602,0.369,0.98,0.467
			c0.378,0.099,0.789,0.146,1.233,0.146c0.364,0,0.745-0.033,1.14-0.1s0.76-0.18,1.093-0.34s0.609-0.378,0.827-0.653
			s0.327-0.627,0.327-1.054c0-0.382-0.116-0.711-0.347-0.986s-0.538-0.518-0.92-0.727s-0.815-0.396-1.3-0.561
			c-0.485-0.164-0.98-0.337-1.487-0.52s-1.002-0.38-1.487-0.594c-0.484-0.213-0.918-0.469-1.3-0.767
			c-0.382-0.298-0.689-0.648-0.92-1.053c-0.231-0.404-0.347-0.892-0.347-1.46c0-0.596,0.131-1.116,0.393-1.561
			s0.611-0.811,1.047-1.1s0.938-0.505,1.506-0.646c0.569-0.143,1.16-0.214,1.773-0.214c0.693,0,1.34,0.073,1.94,0.22
			c0.6,0.147,1.122,0.372,1.567,0.674c0.444,0.302,0.798,0.687,1.06,1.153s0.407,1.02,0.433,1.66c-0.169,0-0.355-0.005-0.56-0.014
			s-0.373-0.014-0.506-0.014h-0.96c-0.045-0.364-0.153-0.668-0.327-0.913c-0.173-0.244-0.392-0.439-0.653-0.587
			c-0.263-0.146-0.565-0.251-0.907-0.312c-0.342-0.062-0.705-0.094-1.087-0.094c-0.88,0-1.551,0.162-2.013,0.486
			c-0.462,0.325-0.693,0.754-0.693,1.287c0,0.355,0.115,0.664,0.347,0.927c0.231,0.262,0.538,0.495,0.92,0.7
			c0.382,0.204,0.815,0.396,1.3,0.573c0.484,0.178,0.982,0.357,1.493,0.54c0.511,0.182,1.009,0.38,1.493,0.593
			c0.484,0.214,0.918,0.463,1.3,0.747c0.382,0.284,0.688,0.615,0.92,0.993c0.231,0.378,0.347,0.824,0.347,1.34
			c0,0.738-0.147,1.367-0.44,1.887c-0.293,0.521-0.687,0.947-1.18,1.28s-1.069,0.575-1.727,0.727
			c-0.658,0.151-1.347,0.227-2.067,0.227c-0.693,0-1.351-0.091-1.973-0.273c-0.623-0.182-1.169-0.46-1.64-0.833
			s-0.849-0.84-1.133-1.4c-0.285-0.56-0.44-1.213-0.467-1.96H165.879z"/>
		<path d="M179.772,280.5v2.347h-1.987V280.5H179.772z M179.772,285.927V299.5h-1.987v-13.573H179.772z"/>
		<path d="M194.853,299.833c0,0.934-0.16,1.756-0.48,2.467c-0.32,0.711-0.747,1.307-1.28,1.787
			c-0.533,0.479-1.145,0.842-1.833,1.086c-0.689,0.245-1.402,0.367-2.14,0.367c-0.64,0-1.24-0.08-1.8-0.24
			c-0.56-0.16-1.075-0.409-1.546-0.746c-0.471-0.338-0.889-0.767-1.253-1.287c-0.365-0.52-0.671-1.14-0.92-1.86h2.013
			c0.374,0.827,0.844,1.425,1.414,1.794c0.569,0.368,1.267,0.553,2.093,0.553c0.507,0,0.984-0.096,1.433-0.286
			c0.449-0.191,0.842-0.456,1.18-0.794s0.604-0.739,0.8-1.206c0.196-0.467,0.293-0.976,0.293-1.526v-2.374
			c-0.471,0.738-1.042,1.296-1.713,1.674s-1.358,0.566-2.06,0.566c-0.924,0-1.753-0.187-2.486-0.56
			c-0.733-0.374-1.36-0.883-1.88-1.527s-0.917-1.397-1.193-2.26c-0.275-0.862-0.413-1.782-0.413-2.76s0.138-1.894,0.413-2.747
			c0.276-0.854,0.667-1.595,1.173-2.227c0.507-0.631,1.116-1.129,1.827-1.493c0.711-0.364,1.502-0.547,2.374-0.547
			c0.302,0,0.625,0.033,0.967,0.101c0.342,0.066,0.687,0.182,1.033,0.347c0.347,0.164,0.687,0.389,1.02,0.673s0.646,0.64,0.94,1.066
			v-1.946h2.027V299.833z M192.826,292.54c-0.018-0.702-0.111-1.362-0.28-1.98c-0.169-0.617-0.409-1.155-0.72-1.613
			c-0.311-0.457-0.693-0.819-1.146-1.086c-0.454-0.267-0.965-0.4-1.534-0.4c-0.586,0-1.129,0.136-1.626,0.406
			c-0.498,0.271-0.929,0.646-1.293,1.12c-0.364,0.476-0.649,1.031-0.853,1.667c-0.205,0.636-0.307,1.318-0.307,2.047
			s0.102,1.415,0.307,2.06c0.204,0.645,0.489,1.209,0.853,1.693c0.365,0.484,0.795,0.867,1.293,1.146
			c0.498,0.28,1.04,0.42,1.626,0.42c0.587,0,1.109-0.138,1.567-0.413c0.458-0.275,0.842-0.65,1.153-1.126s0.549-1.034,0.713-1.674
			s0.247-1.324,0.247-2.054V292.54z"/>
		<path d="M197.719,285.927h2.014v2.054c0.702-0.81,1.462-1.394,2.28-1.754s1.653-0.54,2.507-0.54c0.64,0,1.211,0.094,1.713,0.28
			c0.502,0.187,0.929,0.455,1.28,0.807s0.618,0.777,0.8,1.28c0.182,0.502,0.273,1.068,0.273,1.699v9.747h-1.986v-9.507
			c0-0.462-0.056-0.855-0.167-1.18s-0.273-0.587-0.486-0.787c-0.213-0.199-0.474-0.344-0.78-0.433s-0.651-0.134-1.033-0.134
			c-0.613,0-1.187,0.109-1.72,0.327c-0.533,0.218-1,0.506-1.4,0.866s-0.713,0.773-0.94,1.24s-0.34,0.949-0.34,1.446v8.16h-2.014
			V285.927z"/>
	</g>
</g>
</svg>
